<?xml version="1.0" encoding="UTF-8"?>
<svg version="1.1" xmlns="http://www.w3.org/2000/svg" width="1024" height="1024">
<path d="M0 0 C337.92 0 675.84 0 1024 0 C1024 337.92 1024 675.84 1024 1024 C686.08 1024 348.16 1024 0 1024 C0 686.08 0 348.16 0 0 Z " fill="#FEFEFE" transform="translate(0,0)"/>
<path d="M0 0 C4.70426082 1.99607397 9.15926599 4.37865043 13.66357422 6.78515625 C17.81757076 8.94506083 22.07166887 10.89283008 26.3125 12.875 C35.67489546 17.2938045 44.8532014 22.01005875 53.97021484 26.91308594 C55.80300876 27.89451467 57.64512473 28.85848614 59.48828125 29.8203125 C60.46152344 30.33335937 61.43476562 30.84640625 62.4375 31.375 C63.64212891 32.00535156 63.64212891 32.00535156 64.87109375 32.6484375 C67.31083854 34.1973397 69.12343765 35.80162183 71 38 C72.36607533 45.65002184 69.00109238 51.59272073 65 58 C61.31934283 62.81396687 56.95971663 63.50052564 51.26953125 64.421875 C48.75105957 64.87171957 48.75105957 64.87171957 46.5625 67.25 C45.7890625 68.61125 45.7890625 68.61125 45 70 C44.13375 71.3921875 44.13375 71.3921875 43.25 72.8125 C41.7169405 76.72180174 40.65876775 79.95394938 42 84 C44.20922228 86.29056961 46.48156333 88.2362294 49.03125 90.140625 C52.27374829 94.84996776 51.75461814 99.47236119 51 105 C49.75552974 109.56026889 48.02987476 113.83887887 46.1875 118.1875 C45.69773682 119.38624756 45.20797363 120.58499512 44.70336914 121.82006836 C43.16946363 125.56134866 41.5899984 129.28227423 40 133 C39.48244141 134.21397461 38.96488281 135.42794922 38.43164062 136.67871094 C29.81649543 156.77525685 29.81649543 156.77525685 27 161 C23.8587838 159.55075707 21.26114105 157.76295769 18.5 155.6875 C4.99338231 146.08858327 -8.89105077 144.6600417 -25 146 C-37.4592753 148.21015237 -47.68559639 157.06780983 -55 167 C-62.04368735 178.69783109 -65.37920634 191.2943048 -62.59716797 204.98193359 C-58.91604853 219.25645738 -51.79552235 231.15727886 -39.3125 239.25 C-27.13190483 246.05625623 -14.28526879 248.24966429 -0.77709961 244.45800781 C13.18830642 240.1438901 24.37638378 233.46072197 31.4375 220.125 C35.69508153 210.73186109 37.41521338 201.24384831 38 191 C56.29039642 196.45897986 72.29180498 210.23207829 86 223 C87.37075183 224.19240122 88.74557863 225.38013883 90.125 226.5625 C97.9275162 233.39556529 104.56941476 240.87097115 111 249 C111.81726563 250.01191406 112.63453125 251.02382813 113.4765625 252.06640625 C139.95020421 285.22520729 156.97855953 329.95899528 157.203125 372.4609375 C157.20882507 373.33158844 157.21452515 374.20223938 157.22039795 375.09927368 C157.22977612 376.93286961 157.23635302 378.76648185 157.24023438 380.60009766 C157.24985563 383.33397862 157.28091362 386.06707854 157.3125 388.80078125 C157.38652852 401.12983153 156.19981503 412.87650336 154 425 C153.81711426 426.05912598 153.63422852 427.11825195 153.44580078 428.20947266 C147.65410939 460.02555601 133.16548398 489.89216931 113 515 C112.51096191 515.61601074 112.02192383 516.23202148 111.51806641 516.86669922 C100.41121685 530.73771432 87.51900569 543.49401966 74 555 C74.78723413 559.32197053 76.19881252 563.07362127 78 567.0625 C78.30542725 567.74860352 78.61085449 568.43470703 78.92553711 569.14160156 C79.59107324 570.634026 80.2590613 572.12535887 80.92919922 573.61572266 C82.04438963 576.09883929 83.14965318 578.58622072 84.25390625 581.07421875 C86.13729453 585.30794779 88.04511671 589.52989057 89.97167969 593.74414062 C90.61574939 595.15705707 91.25517555 596.57210976 91.88769531 597.99023438 C92.63758082 599.66772916 93.41157038 601.33439193 94.1875 603 C94.59355469 603.886875 94.99960937 604.77375 95.41796875 605.6875 C98.21097935 609.77012291 100.99872347 611.53308914 105.73120117 612.63720703 C108.98138507 613.18328076 112.23133844 613.64116386 115.5 614.0625 C132.73602599 616.34403176 132.73602599 616.34403176 139 624 C144.35227681 638.18353355 142 655.95384283 142 670 C12.64 670 -116.72 670 -250 670 C-250 630 -250 630 -245 622 C-234.18679506 613.06735244 -218.00142337 614.84948045 -204.77636719 614.79467773 C-203.28692875 614.78507419 -201.7974929 614.77506277 -200.30805969 614.76467896 C-196.3027164 614.73789161 -192.29736164 614.7167422 -188.29197979 614.69667697 C-184.09195104 614.67465389 -179.89195656 614.64734586 -175.69195557 614.62062073 C-167.75565578 614.57091267 -159.81933674 614.52589362 -151.88299966 614.48259836 C-142.84054912 614.43303766 -133.798133 614.37819001 -124.75571585 614.32291877 C-106.1705079 614.20943517 -87.58526797 614.10322199 -69 614 C-65.04 605.09 -61.08 596.18 -57 587 C-63.68433296 584.77168047 -63.68433296 584.77168047 -70.375 582.5625 C-90.84325237 575.71243458 -110.43048176 567.00369141 -129 556 C-129.75361816 555.56187988 -130.50723633 555.12375977 -131.28369141 554.67236328 C-155.98513492 540.29468384 -172.44828014 523.39008177 -186.5 498.5 C-186.92152344 497.7587085 -187.34304688 497.01741699 -187.77734375 496.25366211 C-190.17999318 491.89787533 -191.82874583 487.83778895 -193 483 C-193.83132446 483.00785522 -193.83132446 483.00785522 -194.67944336 483.01586914 C-207.89910994 483.1216479 -221.09938342 482.95378612 -234.3125 482.5625 C-235.01228973 482.54285187 -235.71207947 482.52320374 -236.43307495 482.50296021 C-238.4724546 482.44477256 -240.51161027 482.38146442 -242.55078125 482.31640625 C-243.72294189 482.27974854 -244.89510254 482.24309082 -246.1027832 482.20532227 C-251.07784953 481.94321422 -256.03849387 481.45104601 -261 481 C-261 470.11 -261 459.22 -261 448 C-255.0609668 447.96241577 -255.0609668 447.96241577 -249.00195312 447.92407227 C-235.70692573 447.83942463 -222.41192591 447.75094965 -209.11693573 447.66066074 C-201.08073481 447.60617374 -193.04452974 447.55288221 -185.00830078 447.50268555 C-175.70342343 447.44439736 -166.3985737 447.38272982 -157.09375 447.31640625 C-156.3316711 447.31098415 -155.56959221 447.30556204 -154.78442001 447.29997563 C-132.94024687 447.14277226 -111.10528111 446.84101361 -89.26599121 446.33377075 C-75.50794695 446.01512842 -61.76225945 445.87216502 -48 445.9375 C-46.00260539 445.94256704 -44.00520942 445.94712003 -42.0078125 445.95117188 C-37.33850443 445.96167209 -32.66927022 445.97859039 -28 446 C-27.98718989 449.67968425 -27.97948444 453.35936267 -27.97265625 457.0390625 C-27.96899048 458.07426025 -27.96532471 459.10945801 -27.96154785 460.17602539 C-27.94149527 474.59669975 -27.94149527 474.59669975 -29 481 C-30.73484715 482.73484715 -33.13071069 482.27273553 -35.5 482.38891602 C-37.27080933 482.4788961 -37.27080933 482.4788961 -39.07739258 482.57069397 C-40.37185303 482.63115402 -41.66631348 482.69161407 -43 482.75390625 C-44.35116736 482.81949591 -45.7023228 482.88533165 -47.0534668 482.95140076 C-49.90838704 483.08983863 -52.76345027 483.22468432 -55.61865234 483.35717773 C-59.19899223 483.52366816 -62.77878807 483.69962413 -66.35853577 483.87833595 C-83.58027344 484.73253862 -100.75202359 485.22213753 -118 485 C-116.90958333 486.26347463 -115.81663344 487.52476323 -114.72265625 488.78515625 C-114.11429932 489.48777588 -113.50594238 490.19039551 -112.87915039 490.91430664 C-98.98989609 506.33016989 -79.74623277 513.8111706 -60.625 520.4375 C-59.62678223 520.79207275 -58.62856445 521.14664551 -57.60009766 521.51196289 C-50.7902124 523.7945712 -43.60884079 525.7622738 -36.63500977 523.09570312 C-31.05879168 520.31580503 -26.38685598 516.19876109 -21.640625 512.21484375 C-11.43790008 503.65723276 -3.89204659 499.55522565 9.5625 500.375 C10.41263672 500.41882813 11.26277344 500.46265625 12.13867188 500.5078125 C15.90264689 500.72036638 19.35007437 501.02553328 23 502 C30.22500901 502.96701841 35.14608548 501.24462805 41 497 C46.27016741 492.60819382 50.47115471 487.1396091 54.74609375 481.80859375 C56.15414039 480.0540261 57.58098605 478.31419113 59.03515625 476.59765625 C74.54766741 458.06282681 82.83746624 436.35073054 88 413 C88.17934082 412.20062012 88.35868164 411.40124023 88.54345703 410.57763672 C96.43089071 374.17951922 87.69074416 333.807966 67.76293945 302.58911133 C64.16928219 297.10784904 60.30192297 291.94925995 56 287 C55.23042969 286.09765625 54.46085937 285.1953125 53.66796875 284.265625 C41.60079251 270.50714374 23.40627313 254.73825535 4.30859375 252.71484375 C-3.18273431 252.4752046 -9.78262456 253.44072408 -15.75 258.1875 C-20.25570486 263.81963108 -23.46471879 269.85600352 -26.6484375 276.31640625 C-30.37769444 283.82794044 -34.27550435 291.23825527 -38.24075317 298.62728882 C-43.66730693 308.74225893 -49.00334581 318.88228828 -54.0625 329.1875 C-65.09945283 351.60084596 -65.09945283 351.60084596 -70 355 C-73.96405176 354.52971069 -77.1172495 353.13162541 -80.671875 351.3671875 C-82.35676025 350.53973022 -82.35676025 350.53973022 -84.07568359 349.69555664 C-84.67306335 349.3994046 -85.27044312 349.10325256 -85.88592529 348.79812622 C-89.11189721 347.20056189 -92.3482119 345.62436117 -95.5859375 344.05078125 C-96.26552521 343.72047409 -96.94511292 343.39016693 -97.64529419 343.04985046 C-106.82372557 338.60871934 -116.12221236 334.43014598 -125.41699219 330.23974609 C-126.72332509 329.65075563 -128.02964044 329.06172622 -129.3359375 328.47265625 C-129.96901825 328.18729507 -130.602099 327.9019339 -131.25436401 327.60792542 C-137.05831008 324.98589771 -142.82985891 322.29679102 -148.59667969 319.59423828 C-152.99305852 317.53481549 -157.39859376 315.49558395 -161.8046875 313.45703125 C-164 312 -164 312 -164.71949768 310.13131714 C-165.20360479 306.45296688 -163.21140435 303.37544147 -161.65234375 300.1328125 C-161.28958847 299.35462662 -160.92683319 298.57644073 -160.55308533 297.77467346 C-159.35882739 295.21949085 -158.14826539 292.67239656 -156.9375 290.125 C-156.10258172 288.34662448 -155.26876958 286.56772925 -154.43603516 284.78833008 C-152.75519096 281.20091403 -151.06817334 277.61651193 -149.37548828 274.03466797 C-147.31713557 269.67724779 -145.27558639 265.31233219 -143.24609375 260.94140625 C-131.79315142 236.28542274 -120.17149429 211.70777262 -108.5625 187.125 C-108.2117038 186.38215759 -107.86090759 185.63931519 -107.4994812 184.8739624 C-103.90372327 177.26008342 -100.30651078 169.64689643 -96.70529175 162.03559875 C-94.88622704 158.19069894 -93.06803064 154.34538884 -91.25 150.5 C-90.89268799 149.74445831 -90.53537598 148.98891663 -90.16723633 148.21047974 C-86.10891703 139.62662772 -82.07953879 131.03108462 -78.10473633 122.40820312 C-72.40061988 110.03378303 -66.52836325 97.7499686 -60.5625 85.5 C-60.17909454 84.71263458 -59.79568909 83.92526917 -59.40066528 83.11404419 C-57.59122382 79.40100316 -55.77522305 75.69151899 -53.94580078 71.98828125 C-52.71038211 69.48004567 -51.53223634 66.96672261 -50.37841797 64.41796875 C-45.85909692 54.62286735 -45.85909692 54.62286735 -40.95019531 51.70019531 C-37.12865389 50.32811459 -33.37226141 50.606434 -29.375 50.875 C-21.68938274 51.46564871 -21.68938274 51.46564871 -15 48 C-11.47657932 44.11208752 -11.51382696 40.05907177 -11.62890625 35.04296875 C-12.15974449 30.69009516 -13.61218715 26.82235082 -15.09765625 22.71484375 C-17.30927053 16.06085273 -15.75894173 10.21361659 -13 4 C-9.82960667 -0.9994664 -5.43368989 -1.20914528 0 0 Z " fill="#1C3863" transform="translate(678,226)"/>
<path d="M0 0 C1.26865906 -0.00095673 2.53731812 -0.00191345 3.84442139 -0.00289917 C6.53059328 -0.00357757 9.21667336 -0.00225969 11.90283203 0.00244141 C15.90269087 0.00912076 19.902484 0.00253156 23.90234375 -0.00390625 C37.26041421 -0.00947366 50.61507622 0.11243083 63.96875 0.453125 C65.77995331 0.48610184 65.77995331 0.48610184 67.62774658 0.51974487 C77.45529199 0.81764046 87.93103386 1.59487803 95.734375 8.1328125 C97.74230445 12.1486714 97.33177358 16.77602687 96.734375 21.1328125 C93.59831482 28.20562907 85.53683532 31.45305541 78.734375 34.1328125 C77.744375 34.1328125 76.754375 34.1328125 75.734375 34.1328125 C75.74072291 34.73885199 75.74707082 35.34489148 75.75361109 35.9692958 C76.13291091 72.18885848 76.50893586 108.40845379 76.88092181 144.62809234 C76.92596262 149.01337364 76.97102978 153.39865468 77.01611328 157.78393555 C77.02508513 158.65667182 77.03405697 159.52940809 77.04330069 160.42859092 C77.18710825 174.41141304 77.33303238 188.39421228 77.47979122 202.37700371 C77.63123576 216.81091386 77.78028431 231.24484744 77.92727613 245.67880362 C78.00953282 253.74973649 78.09277563 261.82065626 78.17878723 269.89155006 C78.60531418 309.97386339 78.8347282 350.04792632 78.734375 390.1328125 C74.78014849 391.49823499 71.34373254 392.42164238 67.16308594 392.67944336 C66.09467468 392.74969223 65.02626343 392.8199411 63.92547607 392.89231873 C62.78475647 392.96008011 61.64403687 393.02784149 60.46875 393.09765625 C58.0273326 393.25959755 55.5859267 393.42171238 53.14453125 393.58398438 C49.31581945 393.82894935 45.48691449 394.07015518 41.65771484 394.30737305 C37.94817859 394.54008606 34.23977923 394.78698028 30.53125 395.03515625 C29.39862732 395.1008934 28.26600464 395.16663055 27.09906006 395.23435974 C18.44470739 395.82198853 10.7571994 396.81370594 3.734375 402.1328125 C3.074375 402.1328125 2.414375 402.1328125 1.734375 402.1328125 C-3.22152408 417.66129629 -4.10295365 440.48849016 3.53515625 455.3671875 C6.56547013 459.82875713 10.59034396 462.56613682 15.734375 464.1328125 C19.28628857 464.50543287 22.83752306 464.59801967 26.40625 464.6953125 C27.96173553 464.75054077 27.96173553 464.75054077 29.54864502 464.80688477 C32.86032931 464.92412134 36.17222 465.02978907 39.484375 465.1328125 C43.83372687 465.26896834 48.18249187 465.41647544 52.53125 465.5703125 C53.51905457 465.59746338 54.50685913 465.62461426 55.52459717 465.65258789 C70.49162801 466.18259773 70.49162801 466.18259773 75.609375 470.6328125 C81.93998007 479.77403864 81.13275914 490.91456739 81.02734375 501.515625 C81.02173817 503.18284725 81.01747262 504.85007448 81.01448059 506.51730347 C81.00310748 510.87388103 80.97370659 515.23015144 80.94036865 519.58660889 C80.90950393 524.04467618 80.89594044 528.50279382 80.88085938 532.9609375 C80.84882848 541.6850357 80.7977251 550.40888573 80.734375 559.1328125 C79.26967773 559.23770996 79.26967773 559.23770996 77.77539062 559.34472656 C74.06900619 559.61397022 70.3642499 559.90190379 66.65966797 560.19482422 C65.07182493 560.31790044 63.48360662 560.43624853 61.89501953 560.54931641 C39.07118458 561.98407225 39.07118458 561.98407225 20.29296875 573.65234375 C13.81594612 581.59878047 12.28718536 592.41369044 10.77294922 602.25732422 C9.5798852 609.86910822 9.5798852 609.86910822 7.734375 613.1328125 C5.32676692 614.33661654 4.15700761 614.25225215 1.578125 613.5234375 C-8.77752062 608.48368996 -18.00619514 600.47031256 -23.265625 590.1328125 C-24.49679541 586.49844401 -24.3914654 582.97644842 -24.39260864 579.16159058 C-24.39417023 578.45786837 -24.39573181 577.75414617 -24.39734071 577.02909905 C-24.40133959 574.66374661 -24.39816874 572.29845841 -24.39501953 569.93310547 C-24.39635205 568.22920985 -24.39810755 566.52531451 -24.40025234 564.82141972 C-24.40477863 560.15466264 -24.40292334 555.48792709 -24.39983678 550.82116961 C-24.39795799 546.86538834 -24.39960107 542.90961178 -24.40128666 538.95383066 C-24.40626343 527.20637037 -24.4015919 515.45892601 -24.39439774 503.71146774 C-24.39036536 496.99955006 -24.3885402 490.28763274 -24.38693237 483.57571411 C-24.37065489 423.55647566 -24.17063343 363.54447807 -23.62498474 303.52764893 C-23.6134329 302.25651497 -23.60188107 300.98538101 -23.58997917 299.67572784 C-23.56645805 297.09316159 -23.54283369 294.51059628 -23.51910591 291.92803192 C-23.1713011 253.86869766 -22.96677585 215.80835963 -22.75323683 177.74807984 C-22.71509759 170.9646058 -22.67586546 164.18113876 -22.63601685 157.39767456 C-22.38913253 115.3089687 -22.18507973 73.2224071 -22.265625 31.1328125 C-22.94761963 31.00946533 -23.62961426 30.88611816 -24.33227539 30.7590332 C-25.22938232 30.58976318 -26.12648926 30.42049316 -27.05078125 30.24609375 C-28.38314819 29.999198 -28.38314819 29.999198 -29.74243164 29.74731445 C-34.26474257 28.64594468 -37.15516137 26.42835341 -40.140625 22.9453125 C-42.12669069 17.98014827 -42.11937856 13.19979479 -40.078125 8.2578125 C-34.18228367 1.3454468 -24.71428913 1.18374051 -16.20561218 0.34921265 C-10.80758061 -0.04811386 -5.41012947 -0.00921384 0 0 Z " fill="#58B3C8" transform="translate(397.265625,260.8671875)"/>
<path d="M0 0 C1.10793411 -0.00394272 2.21586823 -0.00788544 3.3573761 -0.01194763 C7.0209369 -0.01866142 10.68325209 0.01052245 14.34667969 0.04077148 C16.89629881 0.04502258 19.44592181 0.04735027 21.99554443 0.0478363 C27.34211002 0.054005 32.68824861 0.07607955 38.03466797 0.11230469 C44.19729201 0.15395168 50.35959477 0.17161479 56.5223515 0.17492443 C62.4677489 0.17819046 68.41305902 0.19334427 74.35842133 0.21491814 C76.87970073 0.22377624 79.40098852 0.23051788 81.92227936 0.23507881 C85.45483924 0.24416526 88.98706326 0.2665974 92.51953125 0.29296875 C93.55465347 0.29363342 94.5897757 0.2942981 95.65626526 0.29498291 C103.08209433 0.37112969 110.45298397 0.80852386 117.01855469 4.59936523 C118.55577913 8.05812022 118.33820402 11.89143295 118.01855469 15.59936523 C114.68395787 22.54644194 108.82421832 25.59622723 101.86914062 28.17285156 C101.14821228 28.44067947 100.42728394 28.70850739 99.68450928 28.98445129 C99.13474426 29.18737289 98.58497925 29.39029449 98.01855469 29.59936523 C98.01719816 30.39084792 98.01584163 31.1823306 98.01444399 31.99779761 C97.93367392 78.97883214 97.84267053 125.95983738 97.73850308 172.94082616 C97.72598523 178.5905148 97.7135523 184.24020363 97.70117188 189.88989258 C97.69747288 191.57691491 97.69747288 191.57691491 97.69369917 193.2980185 C97.65404952 211.47348698 97.62126781 229.64896161 97.59105487 247.82444794 C97.55986556 266.49463747 97.52122458 285.16480102 97.47576463 303.8349613 C97.44797871 315.34173222 97.42590312 326.84848429 97.41129218 338.35527961 C97.40069425 346.26171319 97.38281369 354.16811013 97.35938765 362.07451601 C97.34611139 366.62600057 97.33587163 371.17743411 97.33434105 375.72893906 C97.31989301 407.11255386 97.31989301 407.11255386 96.15878296 420.37728882 C96.0499832 421.6285891 96.0499832 421.6285891 95.93898547 422.90516818 C94.58966545 435.82268699 89.99366945 446.94327391 80.01855469 455.59936523 C67.86226217 465.14928348 55.05519398 466.59786317 40.01855469 465.59936523 C30.05706821 464.05677284 20.86406764 458.68780129 14.54589844 450.85327148 C4.58584265 436.15518405 3.86411524 418.87884618 3.89830017 401.75549316 C3.89786381 400.13166681 3.89698769 398.50784052 3.895711 396.88401461 C3.89347889 392.43266343 3.89746977 387.98133639 3.90248907 383.52998829 C3.9068118 378.72572138 3.90534585 373.92145581 3.90458679 369.1171875 C3.90406271 360.7970294 3.9071974 352.47687915 3.91282463 344.15672302 C3.92095534 332.12720733 3.92355646 320.09769543 3.92481262 308.06817728 C3.92700067 288.55057632 3.93365406 269.03297955 3.94311523 249.51538086 C3.95229574 230.55704774 3.95937345 211.59871575 3.96362305 192.64038086 C3.96401713 190.88718014 3.96401713 190.88718014 3.96441918 189.09856123 C3.96572423 183.23497038 3.96698793 177.37137952 3.96823108 171.50778866 C3.978596 122.87164463 3.9962076 74.23550513 4.01855469 25.59936523 C3.19436035 25.47819336 2.37016602 25.35702148 1.52099609 25.23217773 C0.43995605 25.06459961 -0.64108398 24.89702148 -1.75488281 24.72436523 C-2.82657715 24.56194336 -3.89827148 24.39952148 -5.00244141 24.23217773 C-9.8111446 23.21069284 -12.52339976 21.05741078 -15.98144531 17.59936523 C-16.35253906 14.95483398 -16.35253906 14.95483398 -16.41894531 11.78686523 C-16.45890625 10.74916992 -16.49886719 9.71147461 -16.54003906 8.64233398 C-14.87183598 -0.44528978 -7.55098192 -0.10737289 0 0 Z " fill="#1C3863" transform="translate(232.9814453125,409.400634765625)"/>
<path d="M0 0 C32.67 0 65.34 0 99 0 C99.32242427 36.46976785 99.32242427 36.46976785 99.390625 51.828125 C99.4379761 62.40591695 99.49344379 72.98319671 99.60351562 83.56054688 C99.68366551 91.26627107 99.73496238 98.97157721 99.75270796 106.67770672 C99.76306914 110.75210572 99.78713022 114.82530957 99.84584045 118.89932251 C100.28537995 150.63407603 100.28537995 150.63407603 91 164 C90.20194503 165.5379292 89.43075062 167.09059134 88.70581055 168.66430664 C88.40114868 169.29046371 88.09648682 169.91662079 87.78259277 170.56175232 C87.48695435 171.17172562 87.19131592 171.78169891 86.88671875 172.41015625 C86.55055542 173.10194473 86.21439209 173.79373322 85.86804199 174.50648499 C84.80681603 176.6913178 83.74704931 178.87685366 82.6875 181.0625 C82.13432602 182.20244415 82.13432602 182.20244415 81.56997681 183.36541748 C75.77240619 195.3127877 70.01869716 207.28047069 64.30371094 219.26757812 C57.59704009 233.32395642 50.83577053 247.35374043 44.03598022 261.36526489 C33.39885055 283.28407534 22.84829878 305.23929009 12.51757812 327.30444336 C9.10544256 334.58430883 5.6540327 341.83740627 2 349 C1.34 349 0.68 349 0 349 C0 233.83 0 118.66 0 0 Z " fill="#617B90" transform="translate(524,103)"/>
<path d="M0 0 C1.46309822 2.92619643 1.12988338 5.51569556 1.1328125 8.78125 C1.13479141 9.80412865 1.13479141 9.80412865 1.1368103 10.84767151 C1.13872802 13.06516046 1.13239566 15.2825239 1.125 17.5 C1.12367065 18.62098587 1.12367065 18.62098587 1.12231445 19.76461792 C1.10674976 30.86957673 0.87230792 41.92480479 0 53 C-9.932901 56.92088197 -20.92292769 56.16254279 -31.4296875 56.16796875 C-32.91122468 56.17119116 -34.39276155 56.17455593 -35.8742981 56.17805481 C-38.96552263 56.18400808 -42.05671936 56.18589859 -45.14794922 56.18530273 C-49.07679007 56.18520119 -53.00544993 56.19886291 -56.93424797 56.21607494 C-59.990334 56.22728108 -63.04637739 56.22921934 -66.10248184 56.22869301 C-67.54951731 56.22985982 -68.99655437 56.23420699 -70.44356918 56.24202538 C-79.01616102 56.28402183 -87.67185761 56.29341816 -96 54 C-99.48946461 50.51053539 -98.36923961 45.41390301 -98.375 40.6875 C-98.39949219 39.64142578 -98.42398438 38.59535156 -98.44921875 37.51757812 C-98.46629282 33.04701637 -98.36978703 29.79930889 -96.4765625 25.70703125 C-94 24 -94 24 -90.49609375 23.93359375 C-85.95371514 24.82234281 -81.62533145 26.39660479 -77.26879883 27.93457031 C-66.32110713 31.78581037 -55.68041814 35.29080037 -44 33 C-39.73690168 30.69060695 -37.06587324 28.25442748 -34.375 24.25 C-33.7871875 23.37601563 -33.199375 22.50203125 -32.59375 21.6015625 C-30.84776331 18.75149599 -29.39167366 15.87673517 -28.1171875 12.7890625 C-25.30223877 8.28120754 -21.46047411 6.58042741 -16.42382812 5.37304688 C-15.4405957 5.15745117 -15.4405957 5.15745117 -14.4375 4.9375 C-9.40109373 3.81009332 -4.74590016 0 0 0 Z " fill="#627A8E" transform="translate(627,598)"/>
<path d="M0 0 C8.13016658 4.40129319 12.67211604 9.69774885 16 18.375 C18.31816634 28.0438077 16.63763347 36.00440854 11.8125 44.5625 C8.05691539 50.24693472 2.50119485 54.357704 -4 56.375 C-6.82009244 56.61632134 -9.49468233 56.75616051 -12.3125 56.75 C-13.07143555 56.74838867 -13.83037109 56.74677734 -14.61230469 56.74511719 C-20.41875033 56.61753049 -24.14484551 55.7362608 -29 52.375 C-29.86625 51.83875 -30.7325 51.3025 -31.625 50.75 C-38.03716933 44.33783067 -41.97094825 36.15303134 -42.375 27.125 C-42.19751072 18.96049314 -39.34155961 11.91018422 -33.78125 5.91015625 C-24.69970682 -1.91670005 -11.25639734 -4.69341135 0 0 Z " fill="#617B8F" transform="translate(677,394.625)"/>
<path d="M0 0 C4.77581364 0.60156178 8.91352215 1.99971938 13.3125 3.875 C14.02889648 4.175271 14.74529297 4.47554199 15.48339844 4.78491211 C26.38192781 9.3845112 37.19380551 14.18853856 48 19 C48.74459473 19.3295166 49.48918945 19.6590332 50.25634766 19.99853516 C56.84272506 22.91830346 63.00082548 26.00055032 69 30 C66.71143755 37.6805543 64.36446331 45.34249954 62 53 C58.54485665 54.1912018 57.10905751 54.04227724 53.64453125 52.69921875 C52.35934814 52.04379563 51.08238958 51.37208421 49.8125 50.6875 C48.77561035 50.14923584 48.77561035 50.14923584 47.71777344 49.60009766 C41.56250004 46.37649698 35.49575202 42.98418919 29.44165039 39.57519531 C25.2660481 37.22893465 21.06998613 35.01132313 16.75 32.9375 C12.14609505 30.68055777 7.81799561 28.12886942 3.5 25.375 C2.91186523 25.00238037 2.32373047 24.62976074 1.71777344 24.24584961 C-4.68959904 20.07660536 -4.68959904 20.07660536 -7 17 C-6.89559717 12.80300627 -4.83648977 9.36426742 -2.9375 5.6875 C-2.38964844 4.61886719 -1.84179688 3.55023437 -1.27734375 2.44921875 C-0.64505859 1.23685547 -0.64505859 1.23685547 0 0 Z " fill="#1E3962" transform="translate(518,562)"/>
<path d="M0 0 C0.33 0 0.66 0 1 0 C1.13936072 42.29424114 0.97194742 84.58318866 0.59428024 126.87595367 C0.56348721 130.32686568 0.53319076 133.77778176 0.50296021 137.22869873 C0.44313968 144.00535309 0.38068432 150.78198025 0.31640625 157.55859375 C0.30531263 158.7282902 0.29421902 159.89798664 0.28278923 161.10312843 C0.14727473 175.18541501 -0.01215958 189.26709685 -0.20477831 203.348701 C-1.01935558 263.00871799 -1.32937433 322.6695825 -1.56576941 382.33418023 C-1.60993396 393.45133561 -1.66020694 404.56845435 -1.71309371 415.68557135 C-1.7684209 427.32975312 -1.81930443 438.9739473 -1.86572587 450.61816806 C-1.89155109 457.06578687 -1.91898667 463.51338672 -1.9510994 469.96097755 C-2.06409247 492.97035985 -2.16609685 515.97155405 -1.56787109 538.9753418 C-1.54809684 539.76349954 -1.52832259 540.55165729 -1.50794911 541.3636986 C-1.45080948 543.55055456 -1.38689628 545.73707043 -1.31942749 547.92362976 C-1.26362046 549.73530655 -1.26362046 549.73530655 -1.20668602 551.58358288 C-0.99404007 555.09851465 -0.54593375 558.52251697 0 562 C0.66 562 1.32 562 2 562 C2.45375 562.763125 2.9075 563.52625 3.375 564.3125 C5.06107311 567.10100552 6.38028829 568.15079173 9 570 C9.7425 570.804375 10.485 571.60875 11.25 572.4375 C14.45424841 575.42327693 17.76001591 577.76333797 22 579 C23.67397582 578.70556183 25.34239858 578.37582767 27 578 C27.12528076 577.29504395 27.25056152 576.59008789 27.37963867 575.86376953 C27.96643588 572.61442992 28.57679724 569.36992808 29.1875 566.125 C29.38408203 565.01640625 29.58066406 563.9078125 29.78320312 562.765625 C31.68118449 552.83772246 35.38675975 542.10155608 43 535 C55.21256279 527.37924818 71.2779742 527.81583687 85.17578125 526.9140625 C86.52366071 526.8242708 87.8715206 526.73418473 89.21936035 526.64379883 C92.47939381 526.4263173 95.73959217 526.21178199 99 526 C99.04688075 518.11398748 99.0821463 510.22800919 99.10362434 502.34189129 C99.11394625 498.6778277 99.12788564 495.01386123 99.15087891 491.34985352 C99.24800195 475.47037685 99.26965475 459.75836391 97 444 C95.68 444 94.36 444 93 444 C93 442.68 93 441.36 93 440 C91.35 439.67 89.7 439.34 88 439 C88 438.34 88 437.68 88 437 C87.0339962 437.00119339 87.0339962 437.00119339 86.04847717 437.00241089 C79.31528266 437.00485807 72.58323391 436.96547694 65.8503418 436.90234375 C63.34128142 436.88423129 60.83212166 436.87660655 58.32299805 436.87988281 C54.70544247 436.88275332 51.08992808 436.84729428 47.47265625 436.8046875 C46.35979752 436.81378143 45.24693878 436.82287537 44.10035706 436.83224487 C34.79317893 436.66050272 29.91087842 433.41161735 23.0625 427.4375 C18.39273343 421.91868496 16.81838722 413.63475805 17.09765625 406.5078125 C17.33083714 404.66207077 17.65506484 402.82815634 18 401 C18.33 401 18.66 401 19 401 C19.09796875 402.05058594 19.1959375 403.10117187 19.296875 404.18359375 C20.48449637 417.86191075 20.48449637 417.86191075 27.9375 428.9375 C34.15246753 433.12309038 39.34820007 433.36283747 46.671875 433.5625 C47.70886536 433.59931885 48.74585571 433.6361377 49.81427002 433.67407227 C53.12595431 433.79130884 56.437845 433.89697657 59.75 434 C64.09935187 434.13615584 68.44811687 434.28366294 72.796875 434.4375 C73.78467957 434.46465088 74.77248413 434.49180176 75.79022217 434.51977539 C90.75725301 435.04978523 90.75725301 435.04978523 95.875 439.5 C102.20560507 448.64122614 101.39838414 459.78175489 101.29296875 470.3828125 C101.28736317 472.05003475 101.28309762 473.71726198 101.28010559 475.38449097 C101.26873248 479.74106853 101.23933159 484.09733894 101.20599365 488.45379639 C101.17512893 492.91186368 101.16156544 497.36998132 101.14648438 501.828125 C101.11445348 510.5522232 101.0633501 519.27607323 101 528 C99.53530273 528.10489746 99.53530273 528.10489746 98.04101562 528.21191406 C94.33463119 528.48115772 90.6298749 528.76909129 86.92529297 529.06201172 C85.33744993 529.18508794 83.74923162 529.30343603 82.16064453 529.41650391 C59.33680958 530.85125975 59.33680958 530.85125975 40.55859375 542.51953125 C34.08157112 550.46596797 32.55281036 561.28087794 31.03857422 571.12451172 C29.8455102 578.73629572 29.8455102 578.73629572 28 582 C25.59239192 583.20380404 24.42263261 583.11943965 21.84375 582.390625 C11.48810438 577.35087746 2.25942986 569.33750006 -3 559 C-4.12250383 555.59279884 -4.12829905 552.38936392 -4.13371277 548.81608582 C-4.14011874 546.89564579 -4.14011874 546.89564579 -4.14665413 544.936409 C-4.14630541 543.50993344 -4.14583752 542.08345791 -4.14526367 540.65698242 C-4.14821514 539.14042328 -4.15156784 537.62386488 -4.15528679 536.10730743 C-4.16409808 531.91497425 -4.1662693 527.72266045 -4.16702962 523.53031898 C-4.16830098 519.90921693 -4.17285444 516.28812145 -4.17723483 512.66702205 C-4.19141607 500.57277434 -4.19106051 488.47854262 -4.18809986 476.38428879 C-4.18750112 473.19345842 -4.18744942 470.00262851 -4.18758392 466.8117981 C-4.18996574 391.34163777 -3.79382093 315.87575372 -3.18811417 240.40839005 C-3.13605444 233.91339543 -3.08555963 227.41838983 -3.03556901 220.923379 C-2.46770205 147.27177793 -1.42581642 73.63958485 0 0 Z " fill="#6DAEBC" transform="translate(377,292)"/>
<path d="M0 0 C0.66 0 1.32 0 2 0 C2 127.05 2 254.1 2 385 C1.67 385 1.34 385 1 385 C0.855625 383.865625 0.71125 382.73125 0.5625 381.5625 C0.38828522 378.19222799 0.38828522 378.19222799 -1 377 C-1.0987105 375.00453763 -1.12555693 373.00551647 -1.12584114 371.00761414 C-1.12844889 369.69648305 -1.13105664 368.38535196 -1.13374341 367.03448963 C-1.13158087 365.56034647 -1.1293242 364.08620344 -1.12698364 362.61206055 C-1.12813447 361.06098487 -1.12972173 359.50990947 -1.13171089 357.95883465 C-1.13590954 353.67602553 -1.13381112 349.39323852 -1.13072467 345.11042929 C-1.12847295 340.49961283 -1.13194903 335.88880031 -1.13470459 331.27798462 C-1.13916374 322.23727224 -1.13818518 313.19656813 -1.13529195 304.15585542 C-1.13303848 296.81177849 -1.13272515 289.46770389 -1.13381577 282.12362671 C-1.133969 281.0805151 -1.13412223 280.03740348 -1.13428011 278.96268243 C-1.13459982 276.84397769 -1.13492403 274.72527295 -1.1352527 272.60656822 C-1.13810792 252.71437073 -1.13481982 232.82217784 -1.12945233 212.92998111 C-1.12498426 195.84166479 -1.12576018 178.75335526 -1.13037109 161.66503906 C-1.13571612 141.846628 -1.13783322 122.02822098 -1.13475883 102.2098093 C-1.13444026 100.09866397 -1.13412589 97.98751863 -1.13381577 95.87637329 C-1.13366149 94.83750353 -1.13350721 93.79863377 -1.13334826 92.72828311 C-1.13248289 85.38846502 -1.13394641 78.04864948 -1.13629532 70.70883179 C-1.13909273 61.77060015 -1.13835632 52.8323773 -1.13301457 43.89414668 C-1.13037675 39.32906024 -1.12937385 34.76398848 -1.13266373 30.19890213 C-1.13562505 26.02679256 -1.13403665 21.85471139 -1.12868617 17.68260443 C-1.12756128 16.1664761 -1.12815475 14.65034541 -1.13056196 13.13421857 C-1.13356527 11.0869426 -1.12991302 9.03965999 -1.12584114 6.99238586 C-1.12567879 5.8511089 -1.12551644 4.70983194 -1.12534916 3.53397083 C-1 1 -1 1 0 0 Z " fill="#122D55" transform="translate(327,439)"/>
<path d="M0 0 C0.33 0 0.66 0 1 0 C1.10683345 37.94598276 1.1229408 75.8911015 0.77734375 113.8359375 C0.76643141 115.0415546 0.75551907 116.24717171 0.74427605 117.48932266 C0.69871351 122.51013021 0.65278771 127.53093436 0.60666943 132.55173683 C0.06178865 191.9546259 -0.1136367 251.35449222 -0.12283063 310.75988793 C-0.12411716 318.52616564 -0.12786958 326.29243951 -0.13256836 334.05871582 C-0.13869263 344.58184715 -0.13866967 355.10496557 -0.13431931 365.62809753 C-0.13284331 369.5504338 -0.1335503 373.4727602 -0.13615799 377.39509583 C-0.13902846 381.94805639 -0.13710595 386.50098935 -0.13136959 391.05394697 C-0.13007066 392.71080083 -0.1304568 394.36765702 -0.13267231 396.02450991 C-0.13540547 398.27912825 -0.13197391 400.53365646 -0.12698364 402.78826904 C-0.12660662 404.04451458 -0.12622959 405.30076012 -0.12584114 406.5950737 C-0.00668112 409.81922661 0.38922156 412.83569876 1 416 C-2.12518257 413.60898421 -2.9407715 412.42338848 -3.49498463 408.46165657 C-3.51308019 407.01101707 -3.50900986 405.56000205 -3.48774719 404.10940552 C-3.49187046 403.30755951 -3.49599372 402.5057135 -3.50024194 401.67956913 C-3.50918732 398.98541576 -3.48948881 396.29223106 -3.4699707 393.59814453 C-3.47047966 391.6650226 -3.47273636 389.73190046 -3.47660828 387.79878235 C-3.48205253 382.51902002 -3.46250509 377.2396059 -3.43850732 371.9599061 C-3.41707872 366.35763088 -3.41779743 360.75535534 -3.41581726 355.15304565 C-3.40934628 345.66479637 -3.38808562 336.17667473 -3.35668945 326.68847656 C-3.31344076 313.60703013 -3.29713594 300.5256618 -3.28638005 287.44415438 C-3.2416547 238.29681651 -2.93510965 189.15962344 -2.21005642 140.01772964 C-1.98349247 124.62812938 -1.83930584 109.23847131 -1.71875 93.84765625 C-1.69956024 91.47397834 -1.68032975 89.10030077 -1.66105652 86.72662354 C-1.58637252 77.43243958 -1.51477181 68.13823661 -1.44775391 58.84399414 C-1.40495209 52.93795389 -1.35786598 47.03196031 -1.30812073 41.12597466 C-1.29055307 38.94179971 -1.27456682 36.75761133 -1.26036072 34.57341194 C-1.18491601 23.01018223 -0.97070746 11.52700926 0 0 Z " fill="#D4F2F6" transform="translate(374,437)"/>
<path d="M0 0 C0.33 0 0.66 0 1 0 C2.64484081 71.97632975 3.30212582 144.00574021 3 216 C-2.9633104 218.50376495 -9.06983869 218.64510667 -15.44140625 219.0703125 C-17.24205788 219.19924393 -17.24205788 219.19924393 -19.0790863 219.33078003 C-22.90641753 219.60280438 -26.73441554 219.86381386 -30.5625 220.125 C-33.14262607 220.30791878 -35.7227049 220.49150512 -38.30273438 220.67578125 C-40.76558321 220.84955167 -43.22847261 221.02274823 -45.69140625 221.1953125 C-46.84983536 221.27653351 -48.00826447 221.35775452 -49.20179749 221.44143677 C-50.82389381 221.5518782 -50.82389381 221.5518782 -52.47875977 221.66455078 C-53.42662857 221.72957794 -54.37449738 221.7946051 -55.35108948 221.86160278 C-57.9065061 221.99511524 -60.44166092 222.02489048 -63 222 C-62.505 221.01 -62.505 221.01 -62 220 C-59.39393482 219.52757349 -56.88015877 219.19318692 -54.25 218.9375 C-53.44868652 218.85371094 -52.64737305 218.76992188 -51.82177734 218.68359375 C-44.89145997 217.99951384 -37.95996845 217.67481991 -31.00366211 217.39428711 C-24.58437216 217.11947146 -18.20610343 216.6348423 -11.8125 216 C-10.95672363 215.91685547 -10.10094727 215.83371094 -9.21923828 215.74804688 C-4.9761523 215.3870043 -4.9761523 215.3870043 -1 214 C-0.34 214.33 0.32 214.66 1 215 C0.7624139 194.17306067 0.51928451 173.34619268 0.26950932 152.51939583 C0.15367109 142.84971071 0.0396645 133.1800104 -0.07006836 123.51025391 C-0.1656876 115.08460699 -0.26470455 106.65900813 -0.36784559 98.23344982 C-0.42236575 93.76992681 -0.47515455 89.30639813 -0.5238781 84.84280777 C-0.5697508 80.64529551 -0.62015121 76.44786245 -0.67408943 72.25044632 C-0.69311986 70.70647666 -0.71046771 69.16248524 -0.7260437 67.61847687 C-0.74748876 65.51714299 -0.77488007 63.41596983 -0.80381775 61.31472778 C-0.81764464 60.13667635 -0.83147154 58.95862492 -0.84571743 57.74487495 C-0.81600046 55.03773696 -0.81600046 55.03773696 -2 53 C-2.03339887 51.30273952 -1.99826251 49.60392813 -1.92993164 47.90771484 C-1.88981461 46.84676605 -1.84969757 45.78581726 -1.80836487 44.69271851 C-1.7350016 42.96923691 -1.7350016 42.96923691 -1.66015625 41.2109375 C-1.61434921 40.03737701 -1.56854218 38.86381653 -1.52134705 37.6546936 C-1.37342037 33.89457667 -1.21804029 30.13480896 -1.0625 26.375 C-0.96109868 23.83074864 -0.8601809 21.28647796 -0.75976562 18.7421875 C-0.51212756 12.49455638 -0.25836422 6.24719624 0 0 Z " fill="#7BB6C4" transform="translate(473,435)"/>
<path d="M0 0 C1.35334216 0.00186966 2.706685 0.00329097 4.06002808 0.00428772 C7.5879103 0.00806976 11.11575005 0.01786215 14.64361572 0.0289917 C18.25719631 0.03929959 21.87078389 0.04380525 25.484375 0.04882812 C32.54949633 0.05948917 39.61458911 0.07651245 46.6796875 0.09765625 C46.6796875 0.42765625 46.6796875 0.75765625 46.6796875 1.09765625 C26.6876289 2.35558353 6.70057088 2.19886619 -13.3203125 2.09765625 C-13.3203125 2.75765625 -13.3203125 3.41765625 -13.3203125 4.09765625 C-15.1765625 4.03578125 -15.1765625 4.03578125 -17.0703125 3.97265625 C-24.19359658 4.00646931 -31.51281555 4.17094266 -37.5078125 8.28515625 C-39.68611395 11.66527919 -40.1721784 14.09803542 -40.3203125 18.09765625 C-39.5439193 21.17219185 -39.5439193 21.17219185 -37.3203125 23.09765625 C-36.6603125 23.75765625 -36.0003125 24.41765625 -35.3203125 25.09765625 C-32.24228065 26.95785811 -29.63542243 27.4412002 -26.0703125 27.72265625 C-25.17828125 27.79742187 -24.28625 27.8721875 -23.3671875 27.94921875 C-22.35398437 28.02269531 -22.35398437 28.02269531 -21.3203125 28.09765625 C-21.28959432 38.78514555 -21.26929412 49.47262985 -21.2578125 60.16015625 C-21.25695648 60.95133095 -21.25610046 61.74250565 -21.25521851 62.55765533 C-21.22891663 90.08301165 -21.5318761 117.58206462 -22.3203125 145.09765625 C-22.6503125 145.09765625 -22.9803125 145.09765625 -23.3203125 145.09765625 C-23.3203125 107.47765625 -23.3203125 69.85765625 -23.3203125 31.09765625 C-26.6203125 30.43765625 -29.9203125 29.77765625 -33.3203125 29.09765625 C-37.67049195 26.80392527 -40.47488427 24.71122684 -42.3203125 20.09765625 C-42.88458926 15.79504595 -42.79793947 12.25401629 -41.1328125 8.22265625 C-35.25557381 1.33210054 -25.81388564 1.1445841 -17.32713318 0.31182861 C-11.55678954 -0.0991863 -5.7820798 -0.02326596 0 0 Z " fill="#83BCC9" transform="translate(398.3203125,260.90234375)"/>
<path d="M0 0 C8.52761117 -0.43669133 15.60852181 -0.629827 23 4 C23.845625 4.515625 24.69125 5.03125 25.5625 5.5625 C28.08208555 9.83484072 27.8579498 14.20637572 27 19 C23.81246782 26.07149997 15.83424836 29.30772034 9 32 C8.01 32 7.02 32 6 32 C6 76.55 6 121.1 6 167 C5.67 167 5.34 167 5 167 C3.92960057 140.92171378 3.71722444 114.84222935 3.64990234 88.74438477 C3.63635144 83.98768793 3.60805005 79.23139884 3.56787109 74.47485352 C3.51878708 68.65429034 3.49382229 62.83410693 3.48667526 57.01334572 C3.47996298 54.81361481 3.46474162 52.61389253 3.44078445 50.41428185 C3.40940021 47.37166658 3.4090493 44.33057421 3.41650391 41.2878418 C3.40009857 40.38577499 3.38369324 39.48370819 3.36679077 38.55430603 C3.38993577 36.26014956 3.44979227 34.22698896 4 32 C6.85467874 29.47160045 8.19928518 29 12 29 C12 28.34 12 27.68 12 27 C17.75 24 17.75 24 20 24 C20.33 23.01 20.66 22.02 21 21 C21.680625 20.4225 22.36125 19.845 23.0625 19.25 C25.30654329 17.05101362 25.30654329 17.05101362 25.5 13.5625 C24.90804366 9.3448111 23.9919931 7.98223129 21 5 C17.77303939 3.79004605 17.77303939 3.79004605 14.1875 3.25 C13.00542969 3.02828125 11.82335937 2.8065625 10.60546875 2.578125 C7.07510188 2.01204234 3.54171944 1.48976402 0 1 C0 0.67 0 0.34 0 0 Z " fill="#6AACBB" transform="translate(467,263)"/>
<path d="M0 0 C0.33 0 0.66 0 1 0 C2.05115864 16.93079784 2.13479327 33.83719405 2.10139394 50.79355836 C2.09504088 54.57710726 2.09454733 58.36065741 2.09336853 62.14421082 C2.0902898 69.27275322 2.08212423 76.40127985 2.07201904 83.52981538 C2.06074897 91.66073797 2.05532031 99.79166141 2.05032361 107.9225899 C2.03993774 124.61506909 2.02240704 141.30753252 2 158 C-2.47674229 160.00146385 -5.64082773 161.34953921 -10.5625 161.0625 C-15.01680859 160.94136923 -19.10165072 161.22257397 -23.5 161.9375 C-36.50976571 163.97117734 -49.85119186 164.24052698 -63 164 C-59.75514218 161.83676145 -58.48096198 161.67402321 -54.68994141 161.42163086 C-53.6051651 161.34492661 -52.52038879 161.26822235 -51.40274048 161.18919373 C-50.23085175 161.11515823 -49.05896301 161.04112274 -47.8515625 160.96484375 C-46.64688324 160.88126114 -45.44220398 160.79767853 -44.20101929 160.71156311 C-40.34286351 160.44517712 -36.4840383 160.19075239 -32.625 159.9375 C-28.77326642 159.67874769 -24.92173041 159.41746984 -21.07040405 159.15272522 C-18.67225303 158.98850299 -16.27383799 158.8280826 -13.87515259 158.67185974 C-12.78407196 158.59830765 -11.69299133 158.52475555 -10.56884766 158.44897461 C-9.13347153 158.35476479 -9.13347153 158.35476479 -7.6690979 158.25865173 C-4.59238021 158.00568055 -4.59238021 158.00568055 0 157 C0 105.19 0 53.38 0 0 Z " fill="#E1FBFC" transform="translate(475,494)"/>
<path d="M0 0 C32.34 0 64.68 0 98 0 C98 0.99 98 1.98 98 3 C97.34 3 96.68 3 96 3 C96 2.34 96 1.68 96 1 C94.02043559 1.14033111 92.04134859 1.2874123 90.0625 1.4375 C88.96035156 1.51871094 87.85820313 1.59992188 86.72265625 1.68359375 C84.08890097 1.70418084 84.08890097 1.70418084 83 3 C80.75138785 3.09967429 78.49959906 3.1279983 76.2487793 3.12939453 C75.54304779 3.13114685 74.83731628 3.13289917 74.11019897 3.13470459 C71.76484759 3.13912453 69.41957097 3.13618369 67.07421875 3.1328125 C65.4485523 3.13348573 63.82288595 3.13445591 62.19721985 3.13571167 C58.78324428 3.13718902 55.36929481 3.13503375 51.95532227 3.13037109 C47.58044945 3.12468733 43.20563816 3.12794397 38.83076763 3.13394356 C35.47045937 3.13755975 32.11016565 3.13640547 28.74985695 3.13381577 C27.13712367 3.13314872 25.52438907 3.13396715 23.91165733 3.13629532 C21.65420421 3.13883767 19.39685006 3.13495829 17.1394043 3.12939453 C15.85446579 3.12859894 14.56952728 3.12780334 13.24565125 3.12698364 C10.59271976 3.02318971 8.53138299 2.66794818 6 2 C2.70736015 3.16210818 2.00979059 3.98531412 0 7 C0 4.69 0 2.38 0 0 Z " fill="#5C7285" transform="translate(525,103)"/>
<path d="M0 0 C0.64066406 0.34933594 1.28132813 0.69867188 1.94140625 1.05859375 C7.08343812 3.76371633 11.21630561 5.50777069 17 6 C18.86403344 7.86403344 18.12906037 10.54140963 18.1388092 13.02281189 C18.13683029 13.90989334 18.13485138 14.79697479 18.1328125 15.7109375 C18.13417709 16.66106216 18.13554169 17.61118683 18.13694763 18.59010315 C18.13903108 21.85176694 18.13248801 25.11334479 18.125 28.375 C18.12378143 29.50938507 18.12256287 30.64377014 18.12130737 31.81253052 C18.09102058 56.49753863 17.84895629 81.18152679 17.59383392 105.8650589 C17.56261271 108.92644855 17.53277341 111.98784906 17.50323486 115.04925537 C17.45552508 119.95038453 17.40308931 124.85144294 17.34718513 129.75248528 C17.32702221 131.57026637 17.30820738 133.38806304 17.29089165 135.20587349 C17.1879826 145.84112715 16.84791736 156.39558049 16 167 C15.67 167 15.34 167 15 167 C14.97655926 152.8650338 14.95903286 138.73007066 14.94818783 124.59508896 C14.94298135 118.03083367 14.93592446 111.46659149 14.92456055 104.90234375 C14.91365203 98.56107709 14.90770634 92.21982299 14.90512276 85.87854767 C14.90328282 83.4658005 14.89969 81.05305398 14.89426994 78.64031219 C14.88695369 75.24684695 14.88601349 71.85343287 14.88647461 68.45996094 C14.88287933 67.47452301 14.87928406 66.48908508 14.87557983 65.4737854 C14.88429367 59.50222272 15.21162453 53.62330829 15.77415466 47.6778717 C16.10411079 43.76554751 16.1255679 39.87665931 16.09765625 35.953125 C16.09553383 34.78000763 16.09553383 34.78000763 16.09336853 33.58319092 C16.08786883 31.13875129 16.07533727 28.6944109 16.0625 26.25 C16.05747197 24.57031384 16.05291138 22.89062622 16.04882812 21.2109375 C16.03793264 17.14058804 16.02074084 13.07031071 16 9 C15.09636719 8.74605469 14.19273437 8.49210937 13.26171875 8.23046875 C12.08222656 7.88628906 10.90273438 7.54210937 9.6875 7.1875 C7.92986328 6.68283203 7.92986328 6.68283203 6.13671875 6.16796875 C3.2420603 5.09013204 1.79157461 4.46422356 0 2 C0 1.34 0 0.68 0 0 Z " fill="#E6FDFE" transform="translate(358,285)"/>
<path d="M0 0 C0.33 0 0.66 0 1 0 C1 9.24 1 18.48 1 28 C-7.91 28 -16.82 28 -26 28 C-26 27.67 -26 27.34 -26 27 C-25.3709375 26.85304688 -24.741875 26.70609375 -24.09375 26.5546875 C-15.29337798 24.24856592 -8.98515344 20.34431197 -3.9609375 12.65625 C-1.5770165 8.54737804 -0.65394545 4.68660904 0 0 Z " fill="#1C365E" transform="translate(1023,996)"/>
<path d="M0 0 C1.81247828 2.71871742 3.21786783 5.40142038 4.6875 8.3125 C9.61398273 17.31075039 15.43030417 20.7266634 25 24 C25 24.33 25 24.66 25 25 C16.75 25 8.5 25 0 25 C0 16.75 0 8.5 0 0 Z " fill="#203A5F" transform="translate(0,999)"/>
<path d="M0 0 C0.01464223 3.67838117 0.02344703 7.35675472 0.03125 11.03515625 C0.03543945 12.06983032 0.03962891 13.10450439 0.04394531 14.17053223 C0.05507202 21.17062287 -0.16226535 28.04381046 -1 35 C-1.33 35 -1.66 35 -2 35 C-2.06058594 34.24074219 -2.12117187 33.48148438 -2.18359375 32.69921875 C-2.26738281 31.70535156 -2.35117187 30.71148438 -2.4375 29.6875 C-2.51871094 28.70136719 -2.59992188 27.71523438 -2.68359375 26.69921875 C-2.91812559 23.90624401 -2.91812559 23.90624401 -4 21 C-4.09137566 19.60384892 -4.13065667 18.20382391 -4.1328125 16.8046875 C-4.13410156 16.00675781 -4.13539063 15.20882812 -4.13671875 14.38671875 C-4.13285156 13.55785156 -4.12898437 12.72898437 -4.125 11.875 C-4.12886719 11.03839844 -4.13273438 10.20179688 -4.13671875 9.33984375 C-4.12664874 3.12664874 -4.12664874 3.12664874 -3 2 C-33.03 2 -63.06 2 -94 2 C-94 1.67 -94 1.34 -94 1 C-62.66094113 0.21746008 -31.34865164 -0.14374029 0 0 Z " fill="#475B78" transform="translate(650,672)"/>
<path d="M0 0 C-0.66 0.66 -1.32 1.32 -2 2 C-2.29277282 3.88657748 -2.29277282 3.88657748 -2.23046875 6.02734375 C-2.22853516 6.81947266 -2.22660156 7.61160156 -2.22460938 8.42773438 C-2.21236328 9.25595703 -2.20011719 10.08417969 -2.1875 10.9375 C-2.18685547 11.76185547 -2.18621094 12.58621094 -2.18554688 13.43554688 C-2.15988965 16.94488444 -2.120149 19.63955301 -1 23 C-0.86718305 26.67106043 -0.95676703 30.32519714 -1 34 C-7.6 34 -14.2 34 -21 34 C-21 33.67 -21 33.34 -21 33 C-15.06 32.67 -9.12 32.34 -3 32 C-3.33 31.67 -3.66 31.34 -4 31 C-4.33 21.76 -4.66 12.52 -5 3 C-30.08 2.67 -55.16 2.34 -81 2 C-81 1.67 -81 1.34 -81 1 C-53.99787819 0.37880581 -27.01031286 -0.1984481 0 0 Z " fill="#132C52" transform="translate(649,673)"/>
<path d="M0 0 C3.44810613 0.02175926 6.89605434 0.02093266 10.3442173 0.01972389 C13.71089009 0.02027143 17.07746374 0.03129533 20.44410324 0.04572678 C22.02985262 0.05200433 23.61561296 0.05601195 25.20137405 0.05751419 C34.606998 0.07622584 43.67526358 0.63150463 52.94775391 2.39123535 C52.94775391 2.72123535 52.94775391 3.05123535 52.94775391 3.39123535 C51.85353622 3.38679413 50.75931854 3.38235291 49.63194275 3.3777771 C39.2617464 3.33703032 28.89156653 3.30715535 18.52130795 3.28761101 C13.19133576 3.27722494 7.8614288 3.2631616 2.53149414 3.24035645 C-2.62324593 3.21844181 -7.77792373 3.20662792 -12.93270683 3.20148087 C-14.88803524 3.19781823 -16.84336069 3.19066729 -18.79866219 3.17977524 C-32.83514831 3.10477635 -46.45376326 3.50595454 -60.05224609 7.39123535 C-59.72224609 6.40123535 -59.39224609 5.41123535 -59.05224609 4.39123535 C-39.38649702 -0.22262177 -20.06289163 -0.15973031 0 0 Z " fill="#DCF8FB" transform="translate(421.05224609375,258.6087646484375)"/>
<path d="M0 0 C0.99 0.33 1.98 0.66 3 1 C3 2.32 3 3.64 3 5 C3.66 5 4.32 5 5 5 C5.92121894 12.02806804 6.14622671 18.89679943 6.1328125 25.98046875 C6.13376923 27.11092117 6.13472595 28.2413736 6.13571167 29.40608215 C6.13638927 31.78870703 6.13456443 34.17133379 6.13037109 36.55395508 C6.12504204 40.15906025 6.13031756 43.76403942 6.13671875 47.36914062 C6.13963984 58.6173965 6.13277531 69.79739405 5 81 C4.67 81 4.34 81 4 81 C3.99413376 80.1474614 3.98826752 79.29492279 3.98222351 78.41654968 C3.92406587 70.34063338 3.85185904 62.26498688 3.76428509 54.18933392 C3.71975809 50.03859628 3.6804643 45.88795281 3.65356445 41.73706055 C3.62735352 37.72330559 3.58682903 33.70991653 3.53681374 29.69639015 C3.52026424 28.17322185 3.5086764 26.64999044 3.50238609 25.12674522 C3.46256534 16.36176618 2.91037766 8.34525346 0 0 Z " fill="#DBF6FA" transform="translate(474,734)"/>
<path d="M0 0 C0.33 0 0.66 0 1 0 C1 36.3 1 72.6 1 110 C0.67 110 0.34 110 0 110 C-0.01030746 109.31539703 -0.02061493 108.63079407 -0.03123474 107.92544556 C-0.1391468 100.82063955 -0.25375694 93.71596431 -0.37231445 86.61132812 C-0.41571248 83.95738452 -0.45738388 81.3034121 -0.49731445 78.64941406 C-0.55489925 74.84170842 -0.6186275 71.03414845 -0.68359375 67.2265625 C-0.70030624 66.03382721 -0.71701874 64.84109192 -0.73423767 63.61221313 C-0.75418289 62.51122284 -0.77412811 61.41023254 -0.79467773 60.27587891 C-0.81022202 59.30325104 -0.8257663 58.33062317 -0.84178162 57.32852173 C-0.85130651 54.97609526 -0.85130651 54.97609526 -2 53 C-2.03339887 51.30273952 -1.99826251 49.60392813 -1.92993164 47.90771484 C-1.88981461 46.84676605 -1.84969757 45.78581726 -1.80836487 44.69271851 C-1.75945602 43.54373077 -1.71054718 42.39474304 -1.66015625 41.2109375 C-1.61434921 40.03737701 -1.56854218 38.86381653 -1.52134705 37.6546936 C-1.37342037 33.89457667 -1.21804029 30.13480896 -1.0625 26.375 C-0.96109868 23.83074864 -0.8601809 21.28647796 -0.75976562 18.7421875 C-0.51212756 12.49455638 -0.25836422 6.24719624 0 0 Z " fill="#69ACBB" transform="translate(473,435)"/>
<path d="M0 0 C0.33 0 0.66 0 1 0 C1 13.86 1 27.72 1 42 C0.01 42.495 0.01 42.495 -1 43 C-2.59641649 38.07541417 -3.24020659 33.98406799 -3.1953125 28.75390625 C-3.1924826 28.09792953 -3.18965271 27.44195282 -3.18673706 26.76609802 C-3.17565984 24.69803591 -3.15058063 22.63042827 -3.125 20.5625 C-3.11495402 19.14909485 -3.10583102 17.73568283 -3.09765625 16.32226562 C-3.07576184 12.88136606 -3.04132051 9.44072748 -3 6 C-2.34 6 -1.68 6 -1 6 C-1.0309375 4.7934375 -1.0309375 4.7934375 -1.0625 3.5625 C-1 1 -1 1 0 0 Z " fill="#152E57" transform="translate(773,589)"/>
<path d="M0 0 C0 13.2 0 26.4 0 40 C-0.99 40 -1.98 40 -3 40 C-3 27.13 -3 14.26 -3 1 C-1 0 -1 0 0 0 Z " fill="#132C55" transform="translate(432,855)"/>
<path d="M0 0 C0.33 0 0.66 0 1 0 C3.73121788 13.84504159 5.16974456 26.85462028 5 41 C4.67 41 4.34 41 4 41 C3.91959473 40.31373535 3.83918945 39.6274707 3.75634766 38.92041016 C3.38813511 35.82080639 3.00673983 32.72296558 2.625 29.625 C2.49867188 28.54476562 2.37234375 27.46453125 2.2421875 26.3515625 C2.11328125 25.3203125 1.984375 24.2890625 1.8515625 23.2265625 C1.73635254 22.27346191 1.62114258 21.32036133 1.50244141 20.33837891 C1.18284106 17.82098484 1.18284106 17.82098484 -1 16 C-1.23046875 13.3203125 -1.23046875 13.3203125 -1.1875 10.125 C-1.18105469 9.07570313 -1.17460938 8.02640625 -1.16796875 6.9453125 C-1.02619538 4.45933296 -0.7160399 2.37152414 0 0 Z " fill="#314664" transform="translate(830,563)"/>
<path d="M0 0 C0 0.33 0 0.66 0 1 C-17.99555092 3.74372786 -35.78132663 5.33326842 -54 5 C-51.05082648 3.03388432 -50.26982761 2.72546597 -46.94677734 2.49755859 C-46.13518158 2.4376474 -45.32358582 2.37773621 -44.48739624 2.31600952 C-43.17492416 2.23306137 -43.17492416 2.23306137 -41.8359375 2.1484375 C-40.47597153 2.05280014 -40.47597153 2.05280014 -39.08853149 1.95523071 C-37.16721556 1.82178795 -35.24559888 1.69261735 -33.32373047 1.56738281 C-30.40651787 1.37705631 -27.49040677 1.17412231 -24.57421875 0.96875 C-22.70317618 0.84039759 -20.83208367 0.71277071 -18.9609375 0.5859375 C-18.0981015 0.52659027 -17.2352655 0.46724304 -16.34628296 0.40609741 C-10.88534942 0.05361037 -5.47239209 -0.05168485 0 0 Z " fill="#DCF8FA" transform="translate(466,653)"/>
<path d="M0 0 C8.52761117 -0.43669133 15.60852181 -0.629827 23 4 C23.845625 4.515625 24.69125 5.03125 25.5625 5.5625 C28.07058774 9.81534444 27.9016961 14.22908554 27 19 C25.03758553 22.62730159 22.81490551 25.44008234 18.796875 26.6796875 C18.20390625 26.78539062 17.6109375 26.89109375 17 27 C17.33 26.01 17.66 25.02 18 24 C18.66 24 19.32 24 20 24 C20.33 23.01 20.66 22.02 21 21 C21.680625 20.4225 22.36125 19.845 23.0625 19.25 C25.30654329 17.05101362 25.30654329 17.05101362 25.5 13.5625 C24.90804366 9.3448111 23.9919931 7.98223129 21 5 C17.77303939 3.79004605 17.77303939 3.79004605 14.1875 3.25 C13.00542969 3.02828125 11.82335937 2.8065625 10.60546875 2.578125 C7.07510188 2.01204234 3.54171944 1.48976402 0 1 C0 0.67 0 0.34 0 0 Z " fill="#6EADBC" transform="translate(467,263)"/>
<path d="M0 0 C0.99 0.66 1.98 1.32 3 2 C4.25955959 9.55735755 1.12281663 15.73975782 -3 22 C-5.70703125 24.359375 -5.70703125 24.359375 -8 26 C-8.33 25.01 -8.66 24.02 -9 23 C-8.34 23 -7.68 23 -7 23 C-6.67 21.68 -6.34 20.36 -6 19 C-5.01 19 -4.02 19 -3 19 C-1.52847616 14.13170864 -1.57217425 9.06394989 -1.28125 4.01953125 C-1 1 -1 1 0 0 Z " fill="#263B5C" transform="translate(746,262)"/>
<path d="M0 0 C0.78552246 0.01047363 1.57104492 0.02094727 2.38037109 0.03173828 C3.23115234 0.03818359 4.08193359 0.04462891 4.95849609 0.05126953 C6.29267578 0.07640625 6.29267578 0.07640625 7.65380859 0.10205078 C8.99958984 0.11558594 8.99958984 0.11558594 10.37255859 0.12939453 C12.59157445 0.15300108 14.81005937 0.18592768 17.02880859 0.22705078 C17.02880859 0.55705078 17.02880859 0.88705078 17.02880859 1.22705078 C19.66880859 1.55705078 22.30880859 1.88705078 25.02880859 2.22705078 C25.02880859 2.55705078 25.02880859 2.88705078 25.02880859 3.22705078 C15.45880859 3.55705078 5.88880859 3.88705078 -3.97119141 4.22705078 C-3.97119141 1.29963478 -2.86634864 0.33015906 0 0 Z " fill="#2D4163" transform="translate(579.97119140625,706.77294921875)"/>
<path d="M0 0 C0 0.33 0 0.66 0 1 C-12.65923532 2.36106601 -25.28065423 3.41626191 -38 4 C-37.67 3.34 -37.34 2.68 -37 2 C-25.11895064 -1.19722591 -12.1744173 -0.20453273 0 0 Z " fill="#6EADBB" transform="translate(448,653)"/>
<path d="M0 0 C3.27075883 -0.0580476 6.54138524 -0.09361165 9.8125 -0.125 C10.74126953 -0.14175781 11.67003906 -0.15851563 12.62695312 -0.17578125 C13.51962891 -0.18222656 14.41230469 -0.18867188 15.33203125 -0.1953125 C16.15421143 -0.20578613 16.9763916 -0.21625977 17.82348633 -0.22705078 C20 0 20 0 23 2 C20.63707344 4.52588702 19.33537489 5.88820837 16 7 C15.34 6.67 14.68 6.34 14 6 C14 5.34 14 4.68 14 4 C9.38 3.34 4.76 2.68 0 2 C0 1.34 0 0.68 0 0 Z " fill="#283F64" transform="translate(655,472)"/>
<path d="M0 0 C0.33 0 0.66 0 1 0 C1.03758423 1.17973389 1.03758423 1.17973389 1.07592773 2.38330078 C1.19232866 5.96401494 1.31485487 9.5444945 1.4375 13.125 C1.47681641 14.3625 1.51613281 15.6 1.55664062 16.875 C1.59853516 18.07382812 1.64042969 19.27265625 1.68359375 20.5078125 C1.72025146 21.60754395 1.75690918 22.70727539 1.79467773 23.84033203 C1.99683479 26.95129116 2.43289894 29.93644338 3 33 C0.65929211 31.31025821 -0.82875638 29.96466437 -1.34619141 27.04980469 C-1.43135491 24.64746235 -1.39805716 22.27734275 -1.3125 19.875 C-1.29703125 19.02639404 -1.2815625 18.17778809 -1.265625 17.3034668 C-1.13218657 11.49722717 -0.75550603 5.76073351 0 0 Z " fill="#DDF9FC" transform="translate(372,820)"/>
<path d="M0 0 C1.43472656 -0.02126953 1.43472656 -0.02126953 2.8984375 -0.04296875 C5.65510017 0.19004428 7.27447395 0.77829836 9.625 2.1875 C7.625 4.1875 7.625 4.1875 4.1484375 4.3828125 C2.76549032 4.36951493 1.38261346 4.34566232 0 4.3125 C-0.70640625 4.30347656 -1.4128125 4.29445313 -2.140625 4.28515625 C-3.88556098 4.26157603 -5.63032295 4.22570461 -7.375 4.1875 C-7.375 3.1975 -7.375 2.2075 -7.375 1.1875 C-4.801671 -0.0991645 -2.87276962 0.01925449 0 0 Z " fill="#172E56" transform="translate(602.375,704.8125)"/>
<path d="M0 0 C0.66 0.33 1.32 0.66 2 1 C2.02703381 2.93742341 2.04641125 4.87495479 2.0625 6.8125 C2.07410156 7.89144531 2.08570313 8.97039063 2.09765625 10.08203125 C2 13 2 13 1 16 C0.34 16 -0.32 16 -1 16 C-2.02766017 12.91701949 -2.16598738 10.66869574 -2.1875 7.4375 C-2.20167969 6.46683594 -2.21585938 5.49617187 -2.23046875 4.49609375 C-2 2 -2 2 0 0 Z " fill="#142D54" transform="translate(241,826)"/>
<path d="M0 0 C0 0.66 0 1.32 0 2 C-0.81041748 2.35876221 -1.62083496 2.71752441 -2.45581055 3.0871582 C-5.42752971 4.86632151 -5.42752971 4.86632151 -5.65942383 8.82885742 C-5.70053414 10.42060949 -5.71470768 12.0132044 -5.70703125 13.60546875 C-5.72971321 14.86427605 -5.72971321 14.86427605 -5.75285339 16.14851379 C-5.79583547 18.82844693 -5.8045781 21.50725608 -5.8125 24.1875 C-5.83563627 26.00458739 -5.8609998 27.8216479 -5.88867188 29.63867188 C-5.95162758 34.09254772 -5.98388077 38.5457183 -6 43 C-6.33 43 -6.66 43 -7 43 C-7.12351098 37.35839864 -7.2142963 31.71758224 -7.2746582 26.07495117 C-7.2998175 24.1552154 -7.33394885 22.23557556 -7.37719727 20.31616211 C-7.43778853 17.55819054 -7.46619452 14.80148391 -7.48828125 12.04296875 C-7.52699089 10.75376778 -7.52699089 10.75376778 -7.56648254 9.43852234 C-7.5675468 7.18237712 -7.52895359 5.19341677 -7 3 C-4.5656628 0.91007222 -3.21561449 0 0 0 Z " fill="#EDFEFE" transform="translate(481,293)"/>
<path d="M0 0 C7.26 0 14.52 0 22 0 C21.34 1.32 20.68 2.64 20 4 C18.35 4 16.7 4 15 4 C15 3.67 15 3.34 15 3 C10.61414247 2.83131317 7.84475034 2.94946648 4 5 C1.25 5.125 1.25 5.125 -1 5 C-0.67 3.35 -0.34 1.7 0 0 Z " fill="#738696" transform="translate(563,631)"/>
<path d="M0 0 C-1.28813342 0.83878455 -2.58063256 1.67086783 -3.875 2.5 C-4.59429687 2.9640625 -5.31359375 3.428125 -6.0546875 3.90625 C-8 5 -8 5 -10 5 C-11.70084819 10.32932432 -12.52013969 15.43109483 -13 21 C-14.5703125 19.875 -14.5703125 19.875 -16 18 C-15.7421875 15.1875 -15.7421875 15.1875 -14.875 12 C-14.60429687 10.948125 -14.33359375 9.89625 -14.0546875 8.8125 C-13.02927479 6.07806611 -12.31771765 4.72928156 -10 3 C-9.34 3 -8.68 3 -8 3 C-8 2.34 -8 1.68 -8 1 C-3.375 -1.125 -3.375 -1.125 0 0 Z " fill="#72B1C0" transform="translate(409,658)"/>
<path d="M0 0 C0.33 0 0.66 0 1 0 C1.10371911 9.72654773 1.04518445 19.31337984 0 29 C-0.33 29 -0.66 29 -1 29 C-1.06058594 28.25234375 -1.12117187 27.5046875 -1.18359375 26.734375 C-1.26738281 25.74953125 -1.35117187 24.7646875 -1.4375 23.75 C-1.51871094 22.77546875 -1.59992187 21.8009375 -1.68359375 20.796875 C-1.95074584 18.43538247 -2.35371968 16.28098935 -3 14 C-2.34 14 -1.68 14 -1 14 C-1.01160156 13.24074219 -1.02320313 12.48148438 -1.03515625 11.69921875 C-1.04417969 10.70535156 -1.05320312 9.71148438 -1.0625 8.6875 C-1.07410156 7.70136719 -1.08570313 6.71523438 -1.09765625 5.69921875 C-1 3 -1 3 0 0 Z " fill="#4B607B" transform="translate(649,678)"/>
<path d="M0 0 C1.32 0.66 2.64 1.32 4 2 C3.67 2.99 3.34 3.98 3 5 C2.77820215 6.89212737 2.59385985 8.78884472 2.4375 10.6875 C2.35371094 11.68136719 2.26992188 12.67523438 2.18359375 13.69921875 C2.12300781 14.45847656 2.06242188 15.21773438 2 16 C1.34 16 0.68 16 0 16 C-0.66 17.32 -1.32 18.64 -2 20 C-1.34 13.4 -0.68 6.8 0 0 Z " fill="#364A68" transform="translate(716,417)"/>
<path d="M0 0 C0.66 0 1.32 0 2 0 C2.45763495 5.72043683 1.71653644 8.59883843 -2 13 C-3.9374716 14.52634958 -5.86750263 15.73988791 -8 17 C-8 16.01 -8 15.02 -8 14 C-7.05125 13.29875 -6.1025 12.5975 -5.125 11.875 C-1.48485976 9.08479817 -0.95768821 6.18689089 -0.2265625 1.79296875 C-0.15179688 1.20128906 -0.07703125 0.60960937 0 0 Z " fill="#3A4C67" transform="translate(349,418)"/>
<path d="M0 0 C6.20970773 -0.33266291 10.28264895 0.54970669 16 3 C16 3.33 16 3.66 16 4 C11.38 4 6.76 4 2 4 C1.34 2.68 0.68 1.36 0 0 Z " fill="#142C52" transform="translate(642,277)"/>
<path d="M0 0 C4.75481646 0.57634139 7.97048212 2.55068521 12 5 C12 5.33 12 5.66 12 6 C8.37 6 4.74 6 1 6 C0 2 0 2 0 0 Z " fill="#1A3359" transform="translate(697,237)"/>
<path d="M0 0 C2 2 2 2 2.13525391 3.87939453 C2.08288574 4.62302246 2.03051758 5.36665039 1.9765625 6.1328125 C1.89921875 7.34130859 1.89921875 7.34130859 1.8203125 8.57421875 C1.75585938 9.41597656 1.69140625 10.25773438 1.625 11.125 C1.56828125 11.97449219 1.5115625 12.82398438 1.453125 13.69921875 C1.31149023 15.8001345 1.15695674 17.90017334 1 20 C-2.00636995 15.49044507 -2.26737987 12.34759743 -2 7 C-1.4641037 4.60011655 -0.76490828 2.3425316 0 0 Z " fill="#334662" transform="translate(664,232)"/>
<path d="M0 0 C4.19469571 0.59924224 8.00999834 1.57499941 12 3 C10 5 10 5 7.3984375 5.1953125 C6.40070312 5.17210937 5.40296875 5.14890625 4.375 5.125 C2.87066406 5.09792969 2.87066406 5.09792969 1.3359375 5.0703125 C0.56507813 5.04710937 -0.20578125 5.02390625 -1 5 C-0.67 3.35 -0.34 1.7 0 0 Z " fill="#304463" transform="translate(518,562)"/>
<path d="M0 0 C2 1 2 1 3.0625 3.75 C4 7 4 7 4.375 9.75 C4.76447989 12.13732275 4.76447989 12.13732275 6.8125 13.125 C7.8953125 13.558125 7.8953125 13.558125 9 14 C11.25 15.5 11.25 15.5 13 17 C13 17.66 13 18.32 13 19 C7.76074559 17.61313854 4.98263741 14.3162638 2 10 C0.38864713 6.26459107 0 4.10130359 0 0 Z " fill="#DAF8FA" transform="translate(397,705)"/>
<path d="M0 0 C0.99 0.495 0.99 0.495 2 1 C2.484375 4.01953125 2.484375 4.01953125 2.75 7.8125 C2.84796875 9.05644531 2.9459375 10.30039062 3.046875 11.58203125 C3.00249434 14.81812088 2.74081871 16.34190375 1 19 C-0.65497356 15.69005287 -0.10084335 12.00877 -0.0625 8.375 C-0.05798828 7.57320312 -0.05347656 6.77140625 -0.04882812 5.9453125 C-0.03703168 3.96350994 -0.01909605 1.98174567 0 0 Z " fill="#1A3357" transform="translate(326,816)"/>
<path d="M0 0 C0 0.66 0 1.32 0 2 C-1.76858691 2.67260351 -3.53996016 3.33788395 -5.3125 4 C-6.29863281 4.37125 -7.28476562 4.7425 -8.30078125 5.125 C-11 6 -11 6 -14 6 C-14 5.34 -14 4.68 -14 4 C-14.66 4 -15.32 4 -16 4 C-16 3.34 -16 2.68 -16 2 C-13.70858188 1.66496236 -11.41685737 1.33201958 -9.125 1 C-7.21074219 0.7215625 -7.21074219 0.7215625 -5.2578125 0.4375 C-2 0 -2 0 0 0 Z " fill="#1D3357" transform="translate(653,370)"/>
<path d="M0 0 C1 3 1 3 -0.01953125 5.171875 C-2.86769569 7.80094987 -4.88371869 7.4006448 -8.6875 7.25 C-10.45673828 7.19585938 -10.45673828 7.19585938 -12.26171875 7.140625 C-13.61716797 7.07101562 -13.61716797 7.07101562 -15 7 C-15 6.67 -15 6.34 -15 6 C-14.33613281 5.81824219 -13.67226563 5.63648438 -12.98828125 5.44921875 C-8.26546387 4.10476709 -4.07164661 2.85015263 0 0 Z " fill="#2B405E" transform="translate(1012,1017)"/>
<path d="M0 0 C0.99 0.33 1.98 0.66 3 1 C3 3.64 3 6.28 3 9 C1.02 9.33 -0.96 9.66 -3 10 C-2.39009109 6.44219804 -1.4216319 3.3171411 0 0 Z " fill="#183054" transform="translate(589,371)"/>
<path d="M0 0 C3.96 0 7.92 0 12 0 C12 0.66 12 1.32 12 2 C13.32 2.66 14.64 3.32 16 4 C16 4.66 16 5.32 16 6 C10.63904723 4.41078475 5.29156027 2.81027062 0 1 C0 0.67 0 0.34 0 0 Z " fill="#314766" transform="translate(603,806)"/>
<path d="M0 0 C1.88391785 3.26545761 2.49287967 6.28111761 3 10 C3.33 10 3.66 10 4 10 C4 11.98 4 13.96 4 16 C3.34 16 2.68 16 2 16 C1.67 17.32 1.34 18.64 1 20 C0.63704322 16.85511498 0.28611204 13.70900484 -0.0625 10.5625 C-0.16626953 9.66466797 -0.27003906 8.76683594 -0.37695312 7.84179688 C-0.47041016 6.98779297 -0.56386719 6.13378906 -0.66015625 5.25390625 C-0.74918213 4.46314697 -0.83820801 3.6723877 -0.92993164 2.85766602 C-0.9530542 2.24463623 -0.97617676 1.63160645 -1 1 C-0.67 0.67 -0.34 0.34 0 0 Z " fill="#2E4362" transform="translate(768,579)"/>
<path d="M0 0 C-0.60328125 0.39832031 -1.2065625 0.79664063 -1.828125 1.20703125 C-2.62734375 1.73683594 -3.4265625 2.26664063 -4.25 2.8125 C-5.03890625 3.33457031 -5.8278125 3.85664062 -6.640625 4.39453125 C-9.01363202 5.95279356 -9.01363202 5.95279356 -11.109375 7.76171875 C-11.73328125 8.17035156 -12.3571875 8.57898438 -13 9 C-13.99 8.67 -14.98 8.34 -16 8 C-14.75482035 6.86966702 -13.50363348 5.74594964 -12.25 4.625 C-11.55390625 3.99851562 -10.8578125 3.37203125 -10.140625 2.7265625 C-6.56932025 -0.15394243 -4.50533358 -1.60904771 0 0 Z " fill="#DCF6F9" transform="translate(433,826)"/>
<path d="M0 0 C0.66 0 1.32 0 2 0 C0.3341708 6.16356805 -2.87805286 11.48259656 -6 17 C-6.66 17 -7.32 17 -8 17 C-7.57781184 15.3501725 -7.13675575 13.70516335 -6.6875 12.0625 C-6.44386719 11.14597656 -6.20023438 10.22945312 -5.94921875 9.28515625 C-5.63597656 8.53105469 -5.32273437 7.77695312 -5 7 C-4.01 6.67 -3.02 6.34 -2 6 C-2 5.01 -2 4.02 -2 3 C-1.34 3 -0.68 3 0 3 C0 2.01 0 1.02 0 0 Z " fill="#2E415F" transform="translate(637,524)"/>
<path d="M0 0 C0.99 0 1.98 0 3 0 C4.05404945 3.98196457 3.84098656 6.98195309 3 11 C2.01 10.67 1.02 10.34 0 10 C-1.125 3.375 -1.125 3.375 0 0 Z " fill="#17325B" transform="translate(604,339)"/>
<path d="M0 0 C0 0.33 0 0.66 0 1 C-2.31 1.33 -4.62 1.66 -7 2 C-7 2.33 -7 2.66 -7 3 C-7.60328125 2.98839844 -8.2065625 2.97679687 -8.828125 2.96484375 C-9.62734375 2.95582031 -10.4265625 2.94679688 -11.25 2.9375 C-12.03890625 2.92589844 -12.8278125 2.91429687 -13.640625 2.90234375 C-15.9855891 2.91444055 -15.9855891 2.91444055 -18.125 3.5625 C-20.84608737 4.19742039 -22.53863326 3.16231207 -25 2 C-25 1.67 -25 1.34 -25 1 C-8.29157175 -0.14806378 -8.29157175 -0.14806378 0 0 Z " fill="#65B1C5" transform="translate(475,262)"/>
<path d="M0 0 C0.66 0 1.32 0 2 0 C2 4 2 8 2 12 C1.34 12 0.68 12 0 12 C-0.33 11.34 -0.66 10.68 -1 10 C-1.99 10.495 -1.99 10.495 -3 11 C-2.69217504 9.35328588 -2.37860766 7.70764424 -2.0625 6.0625 C-1.88847656 5.14597656 -1.71445312 4.22945313 -1.53515625 3.28515625 C-1 1 -1 1 0 0 Z " fill="#152E55" transform="translate(559,436)"/>
<path d="M0 0 C1.62806318 3.25612636 0.5312863 6.24678686 -0.1875 9.7109375 C-1 12 -1 12 -3.625 13.625 C-4.800625 13.810625 -4.800625 13.810625 -6 14 C-5.41892368 10.2397015 -4.34800504 7.46964968 -2.4375 4.1875 C-1.98246094 3.39730469 -1.52742187 2.60710937 -1.05859375 1.79296875 C-0.53458984 0.90544922 -0.53458984 0.90544922 0 0 Z " fill="#1F3557" transform="translate(624,299)"/>
<path d="M0 0 C-0.79664063 0.45439453 -0.79664063 0.45439453 -1.609375 0.91796875 C-5.9827184 3.51164868 -8.93019263 5.867567 -12 10 C-12.66 10 -13.32 10 -14 10 C-13.40468319 6.80017213 -12.71876055 4.62693651 -10.2265625 2.453125 C-4.21815631 -1.52269768 -4.21815631 -1.52269768 0 0 Z " fill="#DCF8FA" transform="translate(411,659)"/>
<path d="M0 0 C0.86625 0.3403125 0.86625 0.3403125 1.75 0.6875 C1.09 1.3475 0.43 2.0075 -0.25 2.6875 C0.41 4.0075 1.07 5.3275 1.75 6.6875 C0.76 7.1825 0.76 7.1825 -0.25 7.6875 C-0.25 7.0275 -0.25 6.3675 -0.25 5.6875 C-2.23 5.6875 -4.21 5.6875 -6.25 5.6875 C-6.25 4.6975 -6.25 3.7075 -6.25 2.6875 C-4.08146295 0.51896295 -3.10906228 -0.43181421 0 0 Z " fill="#5E7387" transform="translate(622.25,601.3125)"/>
<path d="M0 0 C0.33 0.99 0.66 1.98 1 3 C-0.21484375 4.82421875 -0.21484375 4.82421875 -1.9375 6.6875 C-2.50339844 7.31011719 -3.06929687 7.93273437 -3.65234375 8.57421875 C-4.09707031 9.04472656 -4.54179688 9.51523437 -5 10 C-6.32 9.67 -7.64 9.34 -9 9 C-8.3125 7.0625 -8.3125 7.0625 -7 5 C-4.375 4.25 -4.375 4.25 -2 4 C-2 3.34 -2 2.68 -2 2 C-1.34 2 -0.68 2 0 2 C0 1.34 0 0.68 0 0 Z " fill="#2F425E" transform="translate(613,571)"/>
<path d="M0 0 C-0.33 0.99 -0.66 1.98 -1 3 C-3.97 3 -6.94 3 -10 3 C-10 2.01 -10 1.02 -10 0 C-6.42355152 -1.2380014 -3.66305234 -0.74926071 0 0 Z " fill="#142F5D" transform="translate(669,476)"/>
<path d="M0 0 C3.68754757 0.49831724 5.60490662 1.10067643 8 4 C7.67 4.99 7.34 5.98 7 7 C4.61435923 6.42415568 2.33317216 5.77772405 0 5 C0 3.35 0 1.7 0 0 Z " fill="#182F52" transform="translate(720,314)"/>
<path d="M0 0 C1.875 0.625 1.875 0.625 4 2 C5.95120729 6.55281701 6.21780252 10.4564662 6.125 15.375 C6.10695313 16.62023437 6.08890625 17.86546875 6.0703125 19.1484375 C6.04710937 20.08945312 6.02390625 21.03046875 6 22 C5.67 22 5.34 22 5 22 C4.34 15.73 3.68 9.46 3 3 C1.68 3 0.36 3 -1 3 C-0.67 2.01 -0.34 1.02 0 0 Z " fill="#66ACBB" transform="translate(471,733)"/>
<path d="M0 0 C0.66 0 1.32 0 2 0 C2.24900646 1.93505023 2.47356242 3.87325934 2.6875 5.8125 C2.87892578 7.43091797 2.87892578 7.43091797 3.07421875 9.08203125 C3 12 3 12 0 15 C0 10.05 0 5.1 0 0 Z " fill="#183056" transform="translate(819,675)"/>
<path d="M0 0 C0.66 0 1.32 0 2 0 C2.33 4.62 2.66 9.24 3 14 C2.01 14.33 1.02 14.66 0 15 C0 10.05 0 5.1 0 0 Z " fill="#112B55" transform="translate(827,643)"/>
<path d="M0 0 C0.66 0.33 1.32 0.66 2 1 C1.67 5.62 1.34 10.24 1 15 C0.34 15 -0.32 15 -1 15 C-1.02703381 13.06257659 -1.04641125 11.12504521 -1.0625 9.1875 C-1.07410156 8.10855469 -1.08570313 7.02960937 -1.09765625 5.91796875 C-1 3 -1 3 0 0 Z " fill="#16315B" transform="translate(828,561)"/>
<path d="M0 0 C0.99 0 1.98 0 3 0 C3.12375 0.639375 3.2475 1.27875 3.375 1.9375 C3.684375 2.9584375 3.684375 2.9584375 4 4 C4.66 4.33 5.32 4.66 6 5 C6 6.32 6 7.64 6 9 C6.66 9.33 7.32 9.66 8 10 C5 10 5 10 3.359375 8.57421875 C2.82828125 7.95160156 2.2971875 7.32898438 1.75 6.6875 C1.20859375 6.07261719 0.6671875 5.45773437 0.109375 4.82421875 C-0.25671875 4.22222656 -0.6228125 3.62023437 -1 3 C-0.67 2.01 -0.34 1.02 0 0 Z " fill="#2B4061" transform="translate(733,508)"/>
<path d="M0 0 C2.31 0 4.62 0 7 0 C7.33 0.66 7.66 1.32 8 2 C6.73160474 2.50615298 5.46016898 3.00469099 4.1875 3.5 C3.12595703 3.91765625 3.12595703 3.91765625 2.04296875 4.34375 C0 5 0 5 -3 5 C-2.67 4.01 -2.34 3.02 -2 2 C-1.34 2 -0.68 2 0 2 C0 1.34 0 0.68 0 0 Z " fill="#2C4467" transform="translate(331,434)"/>
<path d="M0 0 C-3.36423277 2.96052484 -6.69159287 3.92289822 -11 5 C-11.33 4.34 -11.66 3.68 -12 3 C-4.71428571 -1.71428571 -4.71428571 -1.71428571 0 0 Z " fill="#304464" transform="translate(308,868)"/>
<path d="M0 0 C1.305239 3.91571701 0.32239848 5.03892997 -1.4375 8.6875 C-1.91058594 9.68136719 -2.38367188 10.67523438 -2.87109375 11.69921875 C-3.42990234 12.83810547 -3.42990234 12.83810547 -4 14 C-4.66 14 -5.32 14 -6 14 C-5.67 11.69 -5.34 9.38 -5 7 C-4.01 6.67 -3.02 6.34 -2 6 C-2 4.68 -2 3.36 -2 2 C-1.34 2 -0.68 2 0 2 C0 1.34 0 0.68 0 0 Z " fill="#647787" transform="translate(575,345)"/>
<path d="M0 0 C0.33 0 0.66 0 1 0 C0.9131197 2.9389507 0.80626233 5.87481289 0.6875 8.8125 C0.66494141 9.64587891 0.64238281 10.47925781 0.61914062 11.33789062 C0.5659668 12.54155273 0.5659668 12.54155273 0.51171875 13.76953125 C0.48553467 14.50792236 0.45935059 15.24631348 0.43237305 16.00708008 C-0.10232963 18.47166391 -1.09965347 19.40052324 -3 21 C-2.17321655 13.97234063 -1.09751783 6.99001647 0 0 Z " fill="#D3F2F6" transform="translate(409,852)"/>
<path d="M0 0 C1.32 0.33 2.64 0.66 4 1 C1.36 4.63 -1.28 8.26 -4 12 C-4.66 11.01 -5.32 10.02 -6 9 C-4.625 7.5 -4.625 7.5 -3 6 C-2.34 6 -1.68 6 -1 6 C-0.67 4.02 -0.34 2.04 0 0 Z " fill="#2E425F" transform="translate(798,725)"/>
<path d="M0 0 C6.625 0.75 6.625 0.75 10 3 C9 4 9 4 5.5625 4.125 C2 4 2 4 0 3 C0 2.01 0 1.02 0 0 Z " fill="#2C4260" transform="translate(339,411)"/>
<path d="M0 0 C0.99 0.33 1.98 0.66 3 1 C1.02 4.96 -0.96 8.92 -3 13 C-3.66 12.67 -4.32 12.34 -5 12 C-5 10.68 -5 9.36 -5 8 C-4.34 8 -3.68 8 -3 8 C-3 7.01 -3 6.02 -3 5 C-2.34 5 -1.68 5 -1 5 C-0.67 3.35 -0.34 1.7 0 0 Z " fill="#283D5D" transform="translate(621,390)"/>
<path d="M0 0 C3.3 0 6.6 0 10 0 C10 0.66 10 1.32 10 2 C8.68 2 7.36 2 6 2 C6 2.66 6 3.32 6 4 C3.03 3.505 3.03 3.505 0 3 C0 2.01 0 1.02 0 0 Z " fill="#162C53" transform="translate(537,546)"/>
<path d="M0 0 C3 3 3 3 3.07421875 6.13671875 C2.94660156 7.30847656 2.81898438 8.48023438 2.6875 9.6875 C2.50767578 11.45673828 2.50767578 11.45673828 2.32421875 13.26171875 C2.21722656 14.16535156 2.11023438 15.06898438 2 16 C1.67 16 1.34 16 1 16 C0.67 10.72 0.34 5.44 0 0 Z " fill="#173053" transform="translate(819,530)"/>
<path d="M0 0 C0.66 0.33 1.32 0.66 2 1 C0.84414715 4.91211733 -0.35534962 7.8745041 -3 11 C-3.33 9.35 -3.66 7.7 -4 6 C-3.34 6 -2.68 6 -2 6 C-1.855625 5.195625 -1.71125 4.39125 -1.5625 3.5625 C-1 1 -1 1 0 0 Z " fill="#708390" transform="translate(530,437)"/>
<path d="M0 0 C0.66 0.33 1.32 0.66 2 1 C-1.465 8.425 -1.465 8.425 -5 16 C-6.32095328 12.03714015 -5.27105135 10.64909563 -3.625 6.875 C-3.16351562 5.79992187 -2.70203125 4.72484375 -2.2265625 3.6171875 C-1 1 -1 1 0 0 Z " fill="#DEEAF2" transform="translate(592,362)"/>
<path d="M0 0 C-0.33 1.32 -0.66 2.64 -1 4 C-3.3431213 3.74438677 -5.67843403 3.40729228 -8 3 C-8.33 2.34 -8.66 1.68 -9 1 C-6.04335481 -0.4783226 -3.25770263 -0.06032783 0 0 Z " fill="#1C3356" transform="translate(699,478)"/>
<path d="M0 0 C0.33 0 0.66 0 1 0 C1.33 4.29 1.66 8.58 2 13 C1.01 13 0.02 13 -1 13 C-1.02686553 11.02090602 -1.04633375 9.04171029 -1.0625 7.0625 C-1.07410156 5.96035156 -1.08570313 4.85820312 -1.09765625 3.72265625 C-1 1 -1 1 0 0 Z " fill="#1F3556" transform="translate(218,414)"/>
<path d="M0 0 C0.99 0 1.98 0 3 0 C3 3.63 3 7.26 3 11 C2.67 11 2.34 11 2 11 C1.67 9.35 1.34 7.7 1 6 C0.01 6.495 0.01 6.495 -1 7 C-0.67 4.69 -0.34 2.38 0 0 Z " fill="#193055" transform="translate(573,405)"/>
<path d="M0 0 C-3.14272231 3.41209851 -5.57129956 5.56366472 -10 7 C-10.99 7.495 -10.99 7.495 -12 8 C-10.67667681 4.03003043 -7.9910601 2.23963605 -4.75390625 -0.14453125 C-3 -1 -3 -1 0 0 Z " fill="#71838F" transform="translate(654,396)"/>
<path d="M0 0 C0.99 0.33 1.98 0.66 3 1 C1.515 3.475 1.515 3.475 0 6 C-2.88437779 4.70700306 -4.87219421 3.34058637 -7 1 C-4.69 1 -2.38 1 0 1 C0 0.67 0 0.34 0 0 Z " fill="#354966" transform="translate(705,381)"/>
<path d="M0 0 C0.66 0 1.32 0 2 0 C0.58192622 4.47238653 -1.11304374 8.71146306 -3 13 C-3.33 13 -3.66 13 -4 13 C-4.5497272 7.36529617 -2.95047835 4.61012242 0 0 Z " fill="#2F4362" transform="translate(712,367)"/>
<path d="M0 0 C-0.33 0.99 -0.66 1.98 -1 3 C-4.47325181 4.1577506 -7.36067448 4.06866652 -11 4 C-7.2060585 0.99101192 -4.96966376 0 0 0 Z " fill="#2F405F" transform="translate(446,843)"/>
<path d="M0 0 C3 0 3 0 5.6875 2.5 C6.450625 3.325 7.21375 4.15 8 5 C7.67 5.99 7.34 6.98 7 8 C4.36 6.35 1.72 4.7 -1 3 C-0.67 2.01 -0.34 1.02 0 0 Z " fill="#314566" transform="translate(532,768)"/>
<path d="M0 0 C1.125 1.5625 1.125 1.5625 2 4 C1.125 7.75 1.125 7.75 0 11 C-2 9 -2 9 -2.25 5.5 C-2 2 -2 2 0 0 Z " fill="#2C4262" transform="translate(580,604)"/>
<path d="M0 0 C0.66 0.33 1.32 0.66 2 1 C2.36625971 5.51720311 2.36625971 5.51720311 0.625 7.8125 C-1 9 -1 9 -3 9 C-2.44271087 5.65626525 -1.64826111 2.96687001 0 0 Z " fill="#2C4362" transform="translate(519,521)"/>
<path d="M0 0 C1.9078584 3.1749094 2.1609041 5.10585211 1.625 8.75 C1.51414062 9.54921875 1.40328125 10.3484375 1.2890625 11.171875 C1.19367187 11.77515625 1.09828125 12.3784375 1 13 C0.34 12.67 -0.32 12.34 -1 12 C-1.02687279 10.18757948 -1.04633715 8.37504767 -1.0625 6.5625 C-1.07410156 5.55316406 -1.08570313 4.54382813 -1.09765625 3.50390625 C-1 1 -1 1 0 0 Z " fill="#768693" transform="translate(636,415)"/>
<path d="M0 0 C1.98 0.495 1.98 0.495 4 1 C2.81323934 5.10801767 2.10551666 6.89448334 -1 10 C-0.67 6.7 -0.34 3.4 0 0 Z " fill="#314767" transform="translate(320,848)"/>
<path d="M0 0 C0.99 0 1.98 0 3 0 C3 0.99 3 1.98 3 3 C3.66 3 4.32 3 5 3 C5.66 4.65 6.32 6.3 7 8 C4.03 6.35 1.06 4.7 -2 3 C-1.34 2.67 -0.68 2.34 0 2 C0 1.34 0 0.68 0 0 Z " fill="#344A69" transform="translate(691,374)"/>
<path d="M0 0 C0.66 0.66 1.32 1.32 2 2 C1.67 2.66 1.34 3.32 1 4 C-4.75 4.125 -4.75 4.125 -7 3 C-7 2.34 -7 1.68 -7 1 C-3.625 0.375 -3.625 0.375 0 0 Z " fill="#142D59" transform="translate(442,846)"/>
<path d="M0 0 C1.32 0.33 2.64 0.66 4 1 C3.67 1.99 3.34 2.98 3 4 C2.34 3.67 1.68 3.34 1 3 C0.71125 3.639375 0.4225 4.27875 0.125 4.9375 C-1 7 -1 7 -3 8 C-2.45276317 4.62537285 -1.9451 2.91765 0 0 Z " fill="#173159" transform="translate(619,821)"/>
<path d="M0 0 C3.5786304 1.65167557 6.74820188 3.78286492 10 6 C7 7 7 7 4 6 C4 5.34 4 4.68 4 4 C2.68 4 1.36 4 0 4 C0 2.68 0 1.36 0 0 Z " fill="#314563" transform="translate(629,459)"/>
<path d="M0 0 C0.66 0.33 1.32 0.66 2 1 C1.67 1.99 1.34 2.98 1 4 C-3.01804691 4.84098656 -6.01803543 5.05404945 -10 4 C-10 3.67 -10 3.34 -10 3 C-9.04287109 2.80083984 -9.04287109 2.80083984 -8.06640625 2.59765625 C-7.24011719 2.42105469 -6.41382813 2.24445313 -5.5625 2.0625 C-4.73878906 1.88847656 -3.91507813 1.71445312 -3.06640625 1.53515625 C-1.02338796 1.19247006 -1.02338796 1.19247006 0 0 Z " fill="#34476A" transform="translate(662,275)"/>
<path d="M0 0 C2.31 1.98 4.62 3.96 7 6 C6.34 6.66 5.68 7.32 5 8 C4.01 7.67 3.02 7.34 2 7 C0.8125 3.4375 0.8125 3.4375 0 0 Z " fill="#233957" transform="translate(560,713)"/>
<path d="M0 0 C0.66 0 1.32 0 2 0 C0.515 5.445 0.515 5.445 -1 11 C-1.66 10.67 -2.32 10.34 -3 10 C-2.25 3.375 -2.25 3.375 0 0 Z " fill="#304462" transform="translate(824,673)"/>
<path d="M0 0 C1.65 0 3.3 0 5 0 C5.28875 0.7425 5.5775 1.485 5.875 2.25 C6.82368263 4.56900199 7.86559779 6.76932676 9 9 C7.87105124 8.06725891 6.74699124 7.12859878 5.625 6.1875 C4.99851562 5.66542969 4.37203125 5.14335937 3.7265625 4.60546875 C2 3 2 3 0 0 Z " fill="#1B3151" transform="translate(723,500)"/>
<path d="M0 0 C0.66 0.99 1.32 1.98 2 3 C1.319375 4.0828125 1.319375 4.0828125 0.625 5.1875 C-0.85494358 7.74894081 -1.97217539 10.23277989 -3 13 C-3.66 13 -4.32 13 -5 13 C-3.58192622 8.52761347 -1.88695626 4.28853694 0 0 Z " fill="#283D5B" transform="translate(535,486)"/>
<path d="M0 0 C-4.18586481 3.18923033 -6.70558305 4.50423019 -12 4 C-8.71298741 1.21868166 -4.24676932 -2.12338466 0 0 Z " fill="#D7E1EB" transform="translate(652,373)"/>
<path d="M0 0 C0.66 0 1.32 0 2 0 C1.67 4.95 1.34 9.9 1 15 C-1.26166232 11.60750652 -1.24515545 10.34798499 -1.1875 6.375 C-1.18105469 5.39273437 -1.17460938 4.41046875 -1.16796875 3.3984375 C-1 1 -1 1 0 0 Z " fill="#122C56" transform="translate(744,261)"/>
<path d="M0 0 C1.58294782 -0.05437607 3.16644256 -0.09296271 4.75 -0.125 C5.63171875 -0.14820313 6.5134375 -0.17140625 7.421875 -0.1953125 C10.1135858 0.00860498 11.69904974 0.63448279 14 2 C14 2.66 14 3.32 14 4 C9.38 3.01 4.76 2.02 0 1 C0 0.67 0 0.34 0 0 Z " fill="#D9F5F8" transform="translate(475,262)"/>
<path d="M0 0 C0.66 0 1.32 0 2 0 C3.23076923 5.41538462 3.23076923 5.41538462 2.0625 8.375 C1.711875 8.91125 1.36125 9.4475 1 10 C-0.60725635 6.78548731 -0.05748185 3.56387464 0 0 Z " fill="#2A3F62" transform="translate(829,645)"/>
<path d="M0 0 C0.33 0.66 0.66 1.32 1 2 C-1.40983607 6.70491803 -1.40983607 6.70491803 -4 8 C-4.66 7.34 -5.32 6.68 -6 6 C-4.02 4.02 -2.04 2.04 0 0 Z " fill="#374B6A" transform="translate(704,454)"/>
<path d="M0 0 C0.66 0.99 1.32 1.98 2 3 C-0.57784846 5.64752004 -2.91648098 7.94432065 -6 10 C-5.67 8.35 -5.34 6.7 -5 5 C-3.68 5 -2.36 5 -1 5 C-0.67 3.35 -0.34 1.7 0 0 Z " fill="#738392" transform="translate(687,436)"/>
<path d="M0 0 C0.66 0.66 1.32 1.32 2 2 C1.01 4.31 0.02 6.62 -1 9 C-2.125 7.25 -2.125 7.25 -3 5 C-2.24307556 2.96212652 -1.53745581 1.53745581 0 0 Z " fill="#718593" transform="translate(596,300)"/>
<path d="M0 0 C2.0625 0.4375 2.0625 0.4375 4 1 C3.319375 1.61875 3.319375 1.61875 2.625 2.25 C0.94049626 4.06408095 0.00734029 5.75285627 -1 8 C-1 7.01 -1 6.02 -1 5 C-1.66 5 -2.32 5 -3 5 C-1.125 1.125 -1.125 1.125 0 0 Z " fill="#213757" transform="translate(668,227)"/>
<path d="M0 0 C6.625 -0.125 6.625 -0.125 10 1 C9.67 1.99 9.34 2.98 9 4 C5.7 3.34 2.4 2.68 -1 2 C-0.67 1.34 -0.34 0.68 0 0 Z " fill="#112B56" transform="translate(566,788)"/>
<path d="M0 0 C3.465 1.485 3.465 1.485 7 3 C7 3.66 7 4.32 7 5 C4 6 4 6 1.8125 5.0625 C1.214375 4.711875 0.61625 4.36125 0 4 C0 2.68 0 1.36 0 0 Z " fill="#294262" transform="translate(586,734)"/>
<path d="M0 0 C0.33 0 0.66 0 1 0 C1 4.29 1 8.58 1 13 C-0.65 12.67 -2.3 12.34 -4 12 C-3.34 11.34 -2.68 10.68 -2 10 C-1.34 10.33 -0.68 10.66 0 11 C0 7.37 0 3.74 0 0 Z " fill="#6BAFBF" transform="translate(474,639)"/>
<path d="M0 0 C0 0.99 0 1.98 0 3 C-3.3 3 -6.6 3 -10 3 C-9.67 2.34 -9.34 1.68 -9 1 C-5.98003217 0.45091494 -3.07380605 0 0 0 Z " fill="#102954" transform="translate(530,566)"/>
<path d="M0 0 C2.12508244 3.18762365 2.5020163 5.26512223 3 9 C2.01 9.495 2.01 9.495 1 10 C1 9.01 1 8.02 1 7 C0.34 7 -0.32 7 -1 7 C-0.67 4.69 -0.34 2.38 0 0 Z " fill="#3A4F6A" transform="translate(822,535)"/>
<path d="M0 0 C1.25 1.5625 1.25 1.5625 2 4 C0.93237266 6.57001015 -0.46544943 8.6530403 -2 11 C-2.66 11 -3.32 11 -4 11 C-2.7874262 7.27566618 -1.49140021 3.62197194 0 0 Z " fill="#304463" transform="translate(540,475)"/>
<path d="M0 0 C0.98247098 3.0565764 1.07716184 4.96436209 0 8 C-0.99 9.485 -0.99 9.485 -2 11 C-2.66 11 -3.32 11 -4 11 C-3.52269162 9.5410574 -3.04308958 8.08286504 -2.5625 6.625 C-2.29566406 5.81289063 -2.02882813 5.00078125 -1.75390625 4.1640625 C-1 2 -1 2 0 0 Z " fill="#314361" transform="translate(556,441)"/>
<path d="M0 0 C0.66 0.66 1.32 1.32 2 2 C0.68 4.97 -0.64 7.94 -2 11 C-2.66 11 -3.32 11 -4 11 C-3.52269162 9.5410574 -3.04308958 8.08286504 -2.5625 6.625 C-2.29566406 5.81289063 -2.02882813 5.00078125 -1.75390625 4.1640625 C-1 2 -1 2 0 0 Z " fill="#D6E1EB" transform="translate(620,396)"/>
<path d="M0 0 C0.66 0 1.32 0 2 0 C2 1.65 2 3.3 2 5 C1.01 5 0.02 5 -1 5 C-1.33 6.32 -1.66 7.64 -2 9 C-3 6 -3 6 -1.5625 2.8125 C-1.046875 1.884375 -0.53125 0.95625 0 0 Z " fill="#2B405F" transform="translate(620,816)"/>
<path d="M0 0 C5.41538462 -0.36923077 5.41538462 -0.36923077 8.375 1.5 C8.91125 1.995 9.4475 2.49 10 3 C8.375 3.6875 8.375 3.6875 6 4 C2.75 2.5625 2.75 2.5625 0 1 C0 0.67 0 0.34 0 0 Z " fill="#334765" transform="translate(565,790)"/>
<path d="M0 0 C2.97 0.33 5.94 0.66 9 1 C9 2.65 9 4.3 9 6 C6.03 4.35 3.06 2.7 0 1 C0 0.67 0 0.34 0 0 Z " fill="#2B405D" transform="translate(548,780)"/>
<path d="M0 0 C0.33 0.66 0.66 1.32 1 2 C1.66 2 2.32 2 3 2 C3 2.66 3 3.32 3 4 C0.36 4 -2.28 4 -5 4 C-3 1 -3 1 0 0 Z " fill="#152F53" transform="translate(666,732)"/>
<path d="M0 0 C2.31 0.66 4.62 1.32 7 2 C5 4 5 4 1.375 4.125 C0.26125 4.08375 -0.8525 4.0425 -2 4 C-1.34 2.68 -0.68 1.36 0 0 Z " fill="#263B5D" transform="translate(523,563)"/>
<path d="M0 0 C0.66 0.33 1.32 0.66 2 1 C0.35 4.63 -1.3 8.26 -3 12 C-3.33 12 -3.66 12 -4 12 C-4.50423019 6.70558305 -3.18923033 4.18586481 0 0 Z " fill="#E3EEF5" transform="translate(519,518)"/>
<path d="M0 0 C1.98 0 3.96 0 6 0 C6.33 1.65 6.66 3.3 7 5 C4.11424181 4.60196439 3.17810487 4.20990931 1.25 1.9375 C0.8375 1.298125 0.425 0.65875 0 0 Z " fill="#1C3255" transform="translate(715,493)"/>
<path d="M0 0 C0.66 0.33 1.32 0.66 2 1 C-0.64 3.64 -3.28 6.28 -6 9 C-6.66 8.67 -7.32 8.34 -8 8 C-5.58443874 4.80800833 -3.31996462 2.25283313 0 0 Z " fill="#D7E1EB" transform="translate(665,481)"/>
<path d="M0 0 C0.99 0 1.98 0 3 0 C2.60196439 2.88575819 2.20990931 3.82189513 -0.0625 5.75 C-0.701875 6.1625 -1.34125 6.575 -2 7 C-2.33 6.01 -2.66 5.02 -3 4 C-2.34 4 -1.68 4 -1 4 C-0.67 2.68 -0.34 1.36 0 0 Z " fill="#314664" transform="translate(740,281)"/>
<path d="M0 0 C2.64 0 5.28 0 8 0 C7.67 0.66 7.34 1.32 7 2 C6.01 2 5.02 2 4 2 C4 2.66 4 3.32 4 4 C2.68 3.34 1.36 2.68 0 2 C0 1.34 0 0.68 0 0 Z " fill="#1E3255" transform="translate(642,277)"/>
<path d="M0 0 C0.99 0 1.98 0 3 0 C1.50902342 3.7952131 -0.75700849 5.61042731 -4 8 C-2.87548273 5.0280615 -1.77706209 2.66559313 0 0 Z " fill="#61AABA" transform="translate(420,827)"/>
<path d="M0 0 C2.97 0 5.94 0 9 0 C9.33 1.32 9.66 2.64 10 4 C6.7 3.01 3.4 2.02 0 1 C0 0.67 0 0.34 0 0 Z " fill="#324665" transform="translate(582,798)"/>
<path d="M0 0 C1.65 0 3.3 0 5 0 C5 1.65 5 3.3 5 5 C3.0625 4.1875 3.0625 4.1875 1 3 C0.67 2.01 0.34 1.02 0 0 Z " fill="#152F54" transform="translate(511,751)"/>
<path d="M0 0 C4.35535069 1.16142685 6.64619703 2.07699505 9 6 C6.03 5.01 3.06 4.02 0 3 C0 2.01 0 1.02 0 0 Z " fill="#7AB4C0" transform="translate(465,728)"/>
<path d="M0 0 C0.66 0.33 1.32 0.66 2 1 C2.75 3.4375 2.75 3.4375 3 6 C2.34 6.66 1.68 7.32 1 8 C0.67 7.01 0.34 6.02 0 5 C-0.66 4.67 -1.32 4.34 -2 4 C-1.34 2.68 -0.68 1.36 0 0 Z " fill="#152F5A" transform="translate(764,655)"/>
<path d="M0 0 C2.31 0 4.62 0 7 0 C6.67 1.32 6.34 2.64 6 4 C4.35 3.67 2.7 3.34 1 3 C0.67 2.01 0.34 1.02 0 0 Z " fill="#172F52" transform="translate(534,592)"/>
<path d="M0 0 C0 0.66 0 1.32 0 2 C-2.64 2 -5.28 2 -8 2 C-8 1.34 -8 0.68 -8 0 C-4.94736336 -0.98120464 -3.05263664 -0.98120464 0 0 Z " fill="#132A4F" transform="translate(584,590)"/>
<path d="M0 0 C0.66 0 1.32 0 2 0 C2.33 2.64 2.66 5.28 3 8 C2.01 8 1.02 8 0 8 C0 5.36 0 2.72 0 0 Z " fill="#3A4F6C" transform="translate(827,554)"/>
<path d="M0 0 C0 1.65 0 3.3 0 5 C-1.65 5.33 -3.3 5.66 -5 6 C-4.67 4.35 -4.34 2.7 -4 1 C-1 0 -1 0 0 0 Z " fill="#18335B" transform="translate(531,504)"/>
<path d="M0 0 C0.33 0.99 0.66 1.98 1 3 C0.01 3 -0.98 3 -2 3 C-2 2.34 -2 1.68 -2 1 C-3.65 1.33 -5.3 1.66 -7 2 C-7 1.34 -7 0.68 -7 0 C-4.3333581 -1.33332095 -2.83319697 -0.67102033 0 0 Z " fill="#172E52" transform="translate(644,468)"/>
<path d="M0 0 C3.625 0.375 3.625 0.375 7 1 C4.77810176 3.22189824 2.91517292 3.92598892 0 5 C0 4.34 0 3.68 0 3 C-0.66 2.67 -1.32 2.34 -2 2 C-1.34 1.34 -0.68 0.68 0 0 Z " fill="#273E61" transform="translate(220,411)"/>
<path d="M0 0 C2.64 0.99 5.28 1.98 8 3 C7.67 3.99 7.34 4.98 7 6 C6.01 5.67 5.02 5.34 4 5 C4 4.34 4 3.68 4 3 C2.68 2.67 1.36 2.34 0 2 C0 1.34 0 0.68 0 0 Z " fill="#283E5C" transform="translate(678,227)"/>
<path d="M0 0 C0.99 0.33 1.98 0.66 3 1 C-0.465 3.97 -0.465 3.97 -4 7 C-4 6.01 -4 5.02 -4 4 C-3.34 4 -2.68 4 -2 4 C-1.34 2.68 -0.68 1.36 0 0 Z " fill="#293C59" transform="translate(313,861)"/>
<path d="M0 0 C1.32 0 2.64 0 4 0 C3.6875 1.9375 3.6875 1.9375 3 4 C2.01 4.33 1.02 4.66 0 5 C-0.5625 3.0625 -0.5625 3.0625 -1 1 C-0.67 0.67 -0.34 0.34 0 0 Z " fill="#142F58" transform="translate(557,781)"/>
<path d="M0 0 C1.65 0 3.3 0 5 0 C5.33 1.98 5.66 3.96 6 6 C3.37812506 4.95125002 2.20628639 4.35068687 0.75 1.875 C0.5025 1.25625 0.255 0.6375 0 0 Z " fill="#324869" transform="translate(500,738)"/>
<path d="M0 0 C0.99 0.33 1.98 0.66 3 1 C2.67 2.98 2.34 4.96 2 7 C1.34 7 0.68 7 0 7 C0 4.69 0 2.38 0 0 Z " fill="#193055" transform="translate(804,713)"/>
<path d="M0 0 C1.9451 2.91765 2.45276317 4.62537285 3 8 C2.01 8.33 1.02 8.66 0 9 C-0.87890625 2.84765625 -0.87890625 2.84765625 -1 1 C-0.67 0.67 -0.34 0.34 0 0 Z " fill="#374A67" transform="translate(615,433)"/>
<path d="M0 0 C1.1875 1.5 1.1875 1.5 2 4 C1.27101296 6.78824238 0.1843275 9.37665092 -1 12 C-1.84062397 8.90226756 -2.08935201 6.21667249 -2 3 C-1.34 3 -0.68 3 0 3 C0 2.01 0 1.02 0 0 Z " fill="#2E4364" transform="translate(724,335)"/>
<path d="M0 0 C0.33 0.99 0.66 1.98 1 3 C-1.39509338 5.89932357 -3.31245243 6.50168276 -7 7 C-4.66666667 4.66666667 -2.33333333 2.33333333 0 0 Z " fill="#DEF9FC" transform="translate(492,284)"/>
<path d="M0 0 C1.32 0 2.64 0 4 0 C4.33 1.32 4.66 2.64 5 4 C2.03 3.505 2.03 3.505 -1 3 C-0.67 2.01 -0.34 1.02 0 0 Z " fill="#2B4163" transform="translate(555,554)"/>
<path d="M0 0 C0.66 0.66 1.32 1.32 2 2 C1.625 5.125 1.625 5.125 1 8 C0.01 7.67 -0.98 7.34 -2 7 C-2 6.34 -2 5.68 -2 5 C-1.34 5 -0.68 5 0 5 C-0.2784375 4.0409375 -0.2784375 4.0409375 -0.5625 3.0625 C-0.7790625 2.0415625 -0.7790625 2.0415625 -1 1 C-0.67 0.67 -0.34 0.34 0 0 Z " fill="#17315A" transform="translate(757,538)"/>
<path d="M0 0 C1.98 0.99 1.98 0.99 4 2 C4 3.65 4 5.3 4 7 C3.34 7 2.68 7 2 7 C0.5393715 4.35261084 0 3.10551666 0 0 Z " fill="#203658" transform="translate(748,529)"/>
<path d="M0 0 C1.32 1.32 2.64 2.64 4 4 C3.67 4.99 3.34 5.98 3 7 C2.67 6.34 2.34 5.68 2 5 C1.01 5 0.02 5 -1 5 C-0.67 3.35 -0.34 1.7 0 0 Z " fill="#1D3353" transform="translate(798,489)"/>
<path d="M0 0 C0.66 0.33 1.32 0.66 2 1 C1.8125 2.875 1.8125 2.875 1 5 C-1.5625 6.25 -1.5625 6.25 -4 7 C-2.68 4.69 -1.36 2.38 0 0 Z " fill="#273B5B" transform="translate(709,447)"/>
<path d="M0 0 C3.93673644 1.31224548 6.22719294 2.91910327 9 6 C6 6 6 6 3 4 C3 3.34 3 2.68 3 2 C2.01 1.67 1.02 1.34 0 1 C0 0.67 0 0.34 0 0 Z " fill="#2B405C" transform="translate(744,434)"/>
</svg>
