<svg xmlns="http://www.w3.org/2000/svg" width="1024" height="1024" viewBox="0 0 1024 1024">
<g>
<path d="M 344.00 590.19 L 344.00 595.00 L 249.00 595.00 L 249.00 590.43 C249.00,590.18 249.00,589.93 249.00,589.69 C248.99,587.06 248.99,585.33 249.81,584.19 C251.39,581.99 256.01,581.99 269.53,582.00 C270.17,582.00 270.83,582.00 271.51,582.00 L 291.95 582.00 L 293.47 579.05 C294.31,577.43 295.00,575.88 295.00,575.62 C295.00,575.36 292.64,574.45 289.75,573.61 C283.95,571.92 273.97,566.27 269.83,562.32 C268.36,560.92 266.12,557.82 264.85,555.43 L 262.54 551.07 L 246.50 550.50 L 246.50 542.50 L 274.31 542.23 L 302.12 541.97 L 301.81 546.23 L 301.50 550.50 L 279.60 551.50 L 282.79 554.17 C285.95,556.83 295.64,561.00 298.66,561.00 C299.52,561.00 301.84,559.60 303.79,557.88 C307.07,555.00 307.76,554.80 312.65,555.30 C317.96,555.85 317.96,555.85 322.08,551.18 C327.08,545.51 329.32,541.21 330.99,534.13 C334.11,520.90 328.23,505.91 317.17,498.89 C312.27,495.78 307.00,495.13 304.82,497.35 C304.09,498.09 301.06,503.68 298.08,509.76 C293.94,518.21 292.29,520.68 291.08,520.25 C290.21,519.95 284.90,517.55 279.28,514.93 L 269.05 510.16 L 272.91 501.83 C283.45,479.04 296.28,452.24 297.65,450.14 C298.87,448.27 299.78,447.91 302.07,448.36 C305.81,449.11 307.88,446.02 306.00,442.50 C304.75,440.17 306.01,436.00 307.96,436.00 C309.15,436.00 325.17,443.77 326.29,444.89 C327.65,446.25 324.28,452.04 322.52,451.37 C321.57,451.01 320.61,451.77 319.82,453.50 C318.77,455.80 318.84,456.33 320.30,457.15 C322.64,458.46 322.46,460.04 319.05,467.54 L 316.11 474.04 L 312.80 472.02 C306.57,468.22 299.39,469.82 295.28,475.91 C292.75,479.66 292.38,484.21 294.28,487.97 C295.98,491.34 301.67,495.00 305.20,495.00 C311.07,495.00 318.00,489.25 318.00,484.37 C318.00,483.06 318.59,482.00 319.30,482.00 C321.78,482.00 329.52,487.67 334.50,493.14 C353.18,513.63 352.02,544.67 331.88,563.52 L 326.84 568.23 L 329.80 574.87 C332.74,581.47 332.78,581.50 337.13,581.80 C342.55,582.17 344.00,583.93 344.00,590.19 ZM 429.41 545.95 C423.64,547.74 420.12,548.00 401.89,548.00 L 381.00 548.00 L 381.00 474.00 L 397.75 474.03 C424.63,474.08 433.29,475.90 442.49,483.44 C447.72,487.72 452.50,496.63 453.99,504.88 C457.28,523.16 446.87,540.56 429.41,545.95 ZM 219.13 588.43 C213.02,591.59 205.38,589.56 202.51,584.02 C201.22,581.53 201.00,574.04 201.00,533.62 L 201.00 486.14 L 198.75 485.82 C197.10,485.59 196.50,484.83 196.50,483.00 L 196.50 480.50 L 213.00 480.50 C229.33,480.50 229.50,480.52 229.82,482.74 C230.05,484.35 229.41,485.31 227.57,486.15 L 225.00 487.32 L 225.00 533.69 C225.00,584.61 224.91,585.44 219.13,588.43 ZM 490.10 547.99 C484.47,549.55 475.94,549.16 471.46,547.12 C466.95,545.07 462.32,540.14 461.38,536.36 C460.41,532.53 461.58,526.40 463.88,523.17 C467.47,518.13 472.13,516.59 485.50,516.01 L 497.50 515.50 L 497.29 512.56 C497.17,510.95 496.17,508.73 495.08,507.63 C492.28,504.84 482.99,504.26 477.00,506.50 C469.64,509.25 469.05,509.07 466.91,503.50 C465.86,500.75 465.19,497.96 465.44,497.31 C466.37,494.85 478.83,492.00 488.64,492.00 C499.33,492.00 503.70,493.36 508.78,498.27 C513.95,503.28 515.00,508.60 515.00,529.68 L 515.00 548.00 L 507.00 548.00 C499.13,548.00 499.00,547.96 499.00,545.50 C499.00,542.48 497.92,542.33 495.51,544.99 C494.51,546.09 492.08,547.44 490.10,547.99 ZM 601.26 545.75 C598.17,548.11 596.58,548.54 590.08,548.76 C582.00,549.04 577.23,547.44 572.30,542.81 C567.75,538.54 567.12,530.17 570.87,523.65 C573.86,518.45 579.08,516.60 592.50,516.02 L 604.50 515.50 L 604.29 512.56 C604.17,510.95 603.17,508.73 602.08,507.63 C599.30,504.85 590.01,504.26 584.00,506.47 C581.53,507.39 578.81,508.36 577.96,508.63 C576.10,509.23 571.18,498.42 572.65,496.95 C573.15,496.45 576.20,495.14 579.43,494.02 C587.46,491.26 603.64,491.20 609.60,493.91 C619.98,498.62 622.00,504.44 622.00,529.68 L 622.00 548.00 L 614.00 548.00 C606.13,548.00 606.00,547.96 606.00,545.50 C606.00,542.36 605.68,542.38 601.26,545.75 ZM 562.19 546.79 C558.13,549.45 545.60,549.58 540.50,547.01 C531.69,542.57 530.01,538.14 530.01,519.25 L 530.00 506.00 L 522.00 506.00 L 522.00 493.12 L 529.50 492.50 L 529.80 485.75 L 530.09 479.00 L 546.91 479.00 L 547.20 485.75 L 547.50 492.50 L 561.00 493.09 L 561.00 506.00 L 547.00 506.00 L 547.00 518.55 C547.00,530.68 547.08,531.17 549.57,533.66 C552.10,536.19 554.28,536.39 559.09,534.52 C560.31,534.05 561.16,535.21 562.74,539.50 L 564.80 545.08 ZM 399.00 489.00 L 399.00 534.22 L 409.75 533.81 C421.96,533.35 426.46,531.66 431.83,525.54 C435.64,521.21 436.52,518.34 436.45,510.50 C436.36,500.61 431.10,493.15 422.10,490.14 C420.23,489.51 414.27,489.00 408.85,489.00 ZM 480.75 536.02 C486.82,540.82 498.00,535.61 498.00,527.98 L 498.00 525.00 L 490.22 525.00 C481.10,525.00 478.00,526.52 478.00,530.98 C478.00,532.92 478.89,534.56 480.75,536.02 ZM 589.50 536.89 C595.13,540.11 605.00,534.44 605.00,527.98 L 605.00 525.00 L 597.00 525.00 C590.33,525.00 588.67,525.33 587.00,527.00 C583.73,530.27 584.72,534.16 589.50,536.89 ZM 285.86 525.96 C285.28,527.63 284.74,528.98 284.65,528.95 C284.57,528.92 280.84,527.01 276.37,524.70 C268.79,520.78 268.32,520.35 269.28,518.25 C269.84,517.01 270.63,516.00 271.03,516.00 C271.43,516.00 275.16,517.56 279.34,519.46 L 286.93 522.92 Z" fill="rgb(23,51,97)"/>
<path d="M 804.50 546.61 C797.23,550.05 789.05,549.89 781.64,546.15 L 776.00 543.31 L 776.00 545.65 C776.00,547.93 775.75,548.00 767.47,548.00 L 758.94 548.00 L 759.50 470.50 L 777.00 469.92 L 777.00 482.96 C777.00,490.13 777.11,496.00 777.25,496.00 C777.39,495.99 779.71,494.87 782.42,493.50 C791.57,488.85 804.15,490.71 811.47,497.78 C817.42,503.53 820.26,510.69 820.26,519.94 C820.26,532.62 814.91,541.69 804.50,546.61 ZM 244.29 585.85 C243.99,588.13 243.39,590.00 242.97,590.00 C242.55,590.00 240.81,588.69 239.11,587.10 L 236.00 584.20 L 236.00 453.14 L 233.76 452.82 C231.19,452.45 230.27,449.59 232.04,447.45 C233.90,445.21 263.53,445.33 264.39,447.58 C265.54,450.57 265.00,452.05 262.39,453.04 L 259.78 454.03 L 260.14 495.77 L 260.50 537.50 L 251.71 538.00 C245.40,538.36 242.65,538.92 241.98,540.00 C240.48,542.37 240.84,550.33 242.56,552.78 C243.94,554.75 244.99,555.00 251.94,555.00 C252.15,555.00 252.36,555.00 252.56,555.00 C256.24,555.00 258.31,555.00 259.48,556.02 C260.97,557.34 260.98,560.35 260.99,567.23 C260.99,567.52 260.99,567.82 260.99,568.13 L 261.00 576.76 L 254.96 577.20 C247.70,577.72 245.10,579.83 244.29,585.85 ZM 722.75 547.46 C715.78,550.37 702.77,548.82 698.00,544.50 C692.92,539.90 691.67,531.53 695.06,524.88 C698.07,518.98 704.41,516.40 717.93,515.59 C723.67,515.25 728.56,514.77 728.80,514.53 C729.04,514.29 728.95,512.93 728.59,511.52 C727.14,505.73 717.13,503.30 708.50,506.63 C701.73,509.25 701.03,509.02 698.91,503.50 C697.86,500.75 697.19,497.98 697.42,497.36 C697.66,496.73 700.93,495.16 704.68,493.88 C714.71,490.46 727.68,490.54 734.52,494.05 C737.52,495.60 740.67,498.30 742.49,500.89 L 745.50 505.17 L 745.82 526.58 L 746.14 548.00 L 738.07 548.00 C730.00,548.00 730.00,548.00 730.00,545.35 C730.00,542.86 729.89,542.79 728.21,544.31 C727.23,545.20 724.77,546.62 722.75,547.46 ZM 690.00 534.00 L 690.00 548.00 L 636.00 548.00 L 636.00 474.00 L 652.75 474.00 L 653.38 477.12 C653.72,478.84 654.00,492.34 654.00,507.12 L 654.00 534.00 ZM 782.89 533.50 C786.14,535.27 792.70,535.38 795.97,533.72 C797.33,533.03 799.51,530.90 800.81,528.99 C803.94,524.38 803.62,515.08 800.17,510.23 C797.59,506.62 791.59,504.49 786.89,505.52 C774.96,508.14 772.17,527.68 782.89,533.50 ZM 714.50 537.30 C722.30,539.13 728.33,535.71 728.81,529.22 L 729.11 525.00 L 721.78 525.00 C713.21,525.00 710.00,526.60 710.00,530.87 C710.00,534.15 711.75,536.66 714.50,537.30 Z" fill="rgb(69,180,209)"/>
<path d="M 286.74 460.44 C281.62,470.92 276.23,481.98 274.77,485.00 L 272.12 490.50 L 272.00 408.73 L 279.25 409.41 C283.24,409.78 288.52,410.18 291.00,410.29 L 295.50 410.50 L 296.05 441.37 ZM 296.80 530.50 L 296.50 537.50 L 285.50 537.69 C279.45,537.79 273.98,537.65 273.35,537.39 C272.34,536.96 272.49,531.22 273.54,530.14 C273.73,529.94 276.02,530.50 278.62,531.39 C285.49,533.73 286.80,533.48 288.70,529.50 C289.83,527.13 291.05,526.00 292.49,526.00 C293.65,526.00 295.16,525.44 295.85,524.75 C296.85,523.75 297.04,524.90 296.80,530.50 ZM 309.36 487.75 C306.61,490.26 306.50,490.27 303.03,488.89 C299.99,487.67 299.04,486.26 299.02,482.94 C298.98,476.57 307.03,473.68 310.94,478.66 C313.41,481.79 312.94,484.50 309.36,487.75 Z" fill="rgb(96,117,138)"/>
<path d="M 0.00 512.00 L 0.00 0.00 L 512.00 0.00 L 1024.00 0.00 L 1024.00 512.00 L 1024.00 1024.00 L 512.00 1024.00 L 0.00 1024.00 L 0.00 512.00 ZM 344.00 590.19 C344.00,583.93 342.55,582.17 337.13,581.80 C332.78,581.50 332.74,581.47 329.80,574.87 L 326.84 568.23 L 331.88 563.52 C352.02,544.67 353.18,513.63 334.50,493.14 C329.52,487.67 321.78,482.00 319.30,482.00 C318.59,482.00 318.00,483.06 318.00,484.37 C318.00,489.25 311.07,495.00 305.20,495.00 C301.67,495.00 295.98,491.34 294.28,487.97 C292.38,484.21 292.75,479.66 295.28,475.91 C299.39,469.82 306.57,468.22 312.80,472.02 L 316.11 474.04 L 319.05 467.54 C322.46,460.04 322.64,458.46 320.30,457.15 C318.84,456.33 318.77,455.80 319.82,453.50 C320.61,451.77 321.57,451.01 322.52,451.37 C324.28,452.04 327.65,446.25 326.29,444.89 C325.17,443.77 309.15,436.00 307.96,436.00 C306.01,436.00 304.75,440.17 306.00,442.50 C307.88,446.02 305.81,449.11 302.07,448.36 C299.78,447.91 298.87,448.27 297.65,450.14 C296.28,452.24 283.45,479.04 272.91,501.83 L 269.05 510.16 L 279.28 514.93 C284.90,517.55 290.21,519.95 291.08,520.25 C292.29,520.68 293.94,518.21 298.08,509.76 C301.06,503.68 304.09,498.09 304.82,497.35 C307.00,495.13 312.27,495.78 317.17,498.89 C328.23,505.91 334.11,520.90 330.99,534.13 C329.32,541.21 327.08,545.51 322.08,551.18 C317.96,555.85 317.96,555.85 312.65,555.30 C307.76,554.80 307.07,555.00 303.79,557.88 C301.84,559.60 299.52,561.00 298.66,561.00 C295.64,561.00 285.95,556.83 282.79,554.17 L 279.60 551.50 L 290.55 551.00 L 301.50 550.50 L 301.81 546.23 L 302.12 541.97 L 274.31 542.23 L 246.50 542.50 L 246.50 546.50 L 246.50 550.50 L 254.52 550.79 L 262.54 551.07 L 264.85 555.43 C266.12,557.82 268.36,560.92 269.83,562.32 C273.97,566.27 283.95,571.92 289.75,573.61 C292.64,574.45 295.00,575.36 295.00,575.62 C295.00,575.88 294.31,577.43 293.47,579.05 L 291.95 582.00 L 271.51 582.00 C248.30,582.00 249.00,581.74 249.00,590.43 L 249.00 595.00 L 296.50 595.00 L 344.00 595.00 L 344.00 590.19 ZM 219.13 588.43 C224.91,585.44 225.00,584.61 225.00,533.69 L 225.00 487.32 L 227.57 486.15 C229.41,485.31 230.05,484.35 229.82,482.74 C229.50,480.52 229.33,480.50 213.00,480.50 L 196.50 480.50 L 196.50 483.00 C196.50,484.83 197.10,485.59 198.75,485.82 L 201.00 486.14 L 201.00 533.62 C201.00,574.04 201.22,581.53 202.51,584.02 C205.38,589.56 213.02,591.59 219.13,588.43 ZM 244.29 585.85 C245.10,579.83 247.70,577.72 254.96,577.20 L 261.00 576.76 L 260.99 568.13 C260.97,554.68 261.18,555.00 251.94,555.00 C244.99,555.00 243.94,554.75 242.56,552.78 C240.84,550.33 240.48,542.37 241.98,540.00 C242.65,538.92 245.40,538.36 251.71,538.00 L 260.50 537.50 L 260.14 495.77 L 259.78 454.03 L 262.39 453.04 C265.00,452.05 265.54,450.57 264.39,447.58 C263.53,445.33 233.90,445.21 232.04,447.45 C230.27,449.59 231.19,452.45 233.76,452.82 L 236.00 453.14 L 236.00 518.67 L 236.00 584.20 L 239.11 587.10 C240.81,588.69 242.55,590.00 242.97,590.00 C243.39,590.00 243.99,588.13 244.29,585.85 ZM 490.10 547.99 C492.08,547.44 494.51,546.09 495.51,544.99 C497.92,542.33 499.00,542.48 499.00,545.50 C499.00,547.96 499.13,548.00 507.00,548.00 L 515.00 548.00 L 515.00 529.68 C515.00,508.60 513.95,503.28 508.78,498.27 C503.70,493.36 499.33,492.00 488.64,492.00 C478.83,492.00 466.37,494.85 465.44,497.31 C465.19,497.96 465.86,500.75 466.91,503.50 C469.05,509.07 469.64,509.25 477.00,506.50 C482.99,504.26 492.28,504.84 495.08,507.63 C496.17,508.73 497.17,510.95 497.29,512.56 L 497.50 515.50 L 485.50 516.01 C472.13,516.59 467.47,518.13 463.88,523.17 C461.58,526.40 460.41,532.53 461.38,536.36 C462.32,540.14 466.95,545.07 471.46,547.12 C475.94,549.16 484.47,549.55 490.10,547.99 ZM 562.19 546.79 L 564.80 545.08 L 562.74 539.50 C561.16,535.21 560.31,534.05 559.09,534.52 C554.28,536.39 552.10,536.19 549.57,533.66 C547.08,531.17 547.00,530.68 547.00,518.55 L 547.00 506.00 L 554.00 506.00 L 561.00 506.00 L 561.00 499.55 L 561.00 493.09 L 554.25 492.80 L 547.50 492.50 L 547.20 485.75 L 546.91 479.00 L 538.50 479.00 L 530.09 479.00 L 529.80 485.75 L 529.50 492.50 L 525.75 492.81 L 522.00 493.12 L 522.00 499.56 L 522.00 506.00 L 526.00 506.00 L 530.00 506.00 L 530.01 519.25 C530.01,538.14 531.69,542.57 540.50,547.01 C545.60,549.58 558.13,549.45 562.19,546.79 ZM 601.26 545.75 C605.68,542.38 606.00,542.36 606.00,545.50 C606.00,547.96 606.13,548.00 614.00,548.00 L 622.00 548.00 L 622.00 529.68 C622.00,504.44 619.98,498.62 609.60,493.91 C603.64,491.20 587.46,491.26 579.43,494.02 C576.20,495.14 573.15,496.45 572.65,496.95 C571.18,498.42 576.10,509.23 577.96,508.63 C578.81,508.36 581.53,507.39 584.00,506.47 C590.01,504.26 599.30,504.85 602.08,507.63 C603.17,508.73 604.17,510.95 604.29,512.56 L 604.50 515.50 L 592.50 516.02 C579.08,516.60 573.86,518.45 570.87,523.65 C567.12,530.17 567.75,538.54 572.30,542.81 C577.23,547.44 582.00,549.04 590.08,548.76 C596.58,548.54 598.17,548.11 601.26,545.75 ZM 722.75 547.46 C724.77,546.62 727.23,545.20 728.21,544.31 C729.89,542.79 730.00,542.86 730.00,545.35 C730.00,548.00 730.00,548.00 738.07,548.00 L 746.14 548.00 L 745.82 526.58 L 745.50 505.17 L 742.49 500.89 C740.67,498.30 737.52,495.60 734.52,494.05 C727.68,490.54 714.71,490.46 704.68,493.88 C700.93,495.16 697.66,496.73 697.42,497.36 C697.19,497.98 697.86,500.75 698.91,503.50 C701.03,509.02 701.73,509.25 708.50,506.63 C717.13,503.30 727.14,505.73 728.59,511.52 C728.95,512.93 729.04,514.29 728.80,514.53 C728.56,514.77 723.67,515.25 717.93,515.59 C704.41,516.40 698.07,518.98 695.06,524.88 C691.67,531.53 692.92,539.90 698.00,544.50 C702.77,548.82 715.78,550.37 722.75,547.46 ZM 804.50 546.61 C814.91,541.69 820.26,532.62 820.26,519.94 C820.26,510.69 817.42,503.53 811.47,497.78 C804.15,490.71 791.57,488.85 782.42,493.50 C779.71,494.87 777.39,495.99 777.25,496.00 C777.11,496.00 777.00,490.13 777.00,482.96 L 777.00 469.92 L 768.25 470.21 L 759.50 470.50 L 759.22 509.25 L 758.94 548.00 L 767.47 548.00 C775.75,548.00 776.00,547.93 776.00,545.65 L 776.00 543.31 L 781.64 546.15 C789.05,549.89 797.23,550.05 804.50,546.61 ZM 429.41 545.95 C446.87,540.56 457.28,523.16 453.99,504.88 C452.50,496.63 447.72,487.72 442.49,483.44 C433.29,475.90 424.63,474.08 397.75,474.03 L 381.00 474.00 L 381.00 511.00 L 381.00 548.00 L 401.89 548.00 C420.12,548.00 423.64,547.74 429.41,545.95 ZM 690.00 541.00 L 690.00 534.00 L 672.00 534.00 L 654.00 534.00 L 654.00 507.12 C654.00,492.34 653.72,478.84 653.38,477.12 L 652.75 474.00 L 644.38 474.00 L 636.00 474.00 L 636.00 511.00 L 636.00 548.00 L 663.00 548.00 L 690.00 548.00 L 690.00 541.00 ZM 296.80 530.50 C297.04,524.90 296.85,523.75 295.85,524.75 C295.16,525.44 293.65,526.00 292.49,526.00 C291.05,526.00 289.83,527.13 288.70,529.50 C286.80,533.48 285.49,533.73 278.62,531.39 C276.02,530.50 273.73,529.94 273.54,530.14 C272.49,531.22 272.34,536.96 273.35,537.39 C273.98,537.65 279.45,537.79 285.50,537.69 L 296.50 537.50 L 296.80 530.50 ZM 285.86 525.96 L 286.93 522.92 L 279.34 519.46 C275.16,517.56 271.43,516.00 271.03,516.00 C270.63,516.00 269.84,517.01 269.28,518.25 C268.32,520.35 268.79,520.78 276.37,524.70 C280.84,527.01 284.57,528.92 284.65,528.95 C284.74,528.98 285.28,527.63 285.86,525.96 ZM 286.74 460.44 L 296.05 441.37 L 295.78 425.94 L 295.50 410.50 L 291.00 410.29 C288.52,410.18 283.24,409.78 279.25,409.41 L 272.00 408.73 L 272.06 449.62 L 272.12 490.50 L 274.77 485.00 C276.23,481.98 281.62,470.92 286.74,460.44 ZM 309.36 487.75 C312.94,484.50 313.41,481.79 310.94,478.66 C307.03,473.68 298.98,476.57 299.02,482.94 C299.04,486.26 299.99,487.67 303.03,488.89 C306.50,490.27 306.61,490.26 309.36,487.75 ZM 480.75 536.02 C478.89,534.56 478.00,532.92 478.00,530.98 C478.00,526.52 481.10,525.00 490.22,525.00 L 498.00 525.00 L 498.00 527.98 C498.00,535.61 486.82,540.82 480.75,536.02 ZM 589.50 536.89 C584.72,534.16 583.73,530.27 587.00,527.00 C588.67,525.33 590.33,525.00 597.00,525.00 L 605.00 525.00 L 605.00 527.98 C605.00,534.44 595.13,540.11 589.50,536.89 ZM 714.50 537.30 C711.75,536.66 710.00,534.15 710.00,530.87 C710.00,526.60 713.21,525.00 721.78,525.00 L 729.11 525.00 L 728.81 529.22 C728.33,535.71 722.30,539.13 714.50,537.30 ZM 782.89 533.50 C772.17,527.68 774.96,508.14 786.89,505.52 C791.59,504.49 797.59,506.62 800.17,510.23 C803.62,515.08 803.94,524.38 800.81,528.99 C799.51,530.90 797.33,533.03 795.97,533.72 C792.70,535.38 786.14,535.27 782.89,533.50 ZM 399.00 511.61 L 399.00 489.00 L 408.85 489.00 C414.27,489.00 420.23,489.51 422.10,490.14 C431.10,493.15 436.36,500.61 436.45,510.50 C436.52,518.34 435.64,521.21 431.83,525.54 C426.46,531.66 421.96,533.35 409.75,533.81 L 399.00 534.22 L 399.00 511.61 Z" fill="rgb(254,254,254)"/>
</g>
</svg>