<svg width="699" height="229" viewBox="0 0 699 229" fill="none" xmlns="http://www.w3.org/2000/svg">
<g filter="url(#filter0_d_2002_132)">
<rect x="4" width="691" height="221" fill="#FFFAFA"/>
<rect x="4.5" y="0.5" width="690" height="220" stroke="#FFFBFB"/>
</g>
<g filter="url(#filter1_d_2002_132)">
<mask id="path-3-inside-1_2002_132" fill="white">
<path d="M189.5 194.46V199.27H94.5V194.7C94.5 194.45 94.5 194.2 94.5 193.96C94.49 191.33 94.49 189.6 95.31 188.46C96.89 186.26 101.51 186.26 115.03 186.27C115.67 186.27 116.33 186.27 117.01 186.27H137.45L138.97 183.32C139.81 181.7 140.5 180.15 140.5 179.89C140.5 179.63 138.14 178.72 135.25 177.88C129.45 176.19 119.47 170.54 115.33 166.59C113.86 165.19 111.62 162.09 110.35 159.7L108.04 155.34L92 154.77V146.77L119.81 146.5L147.62 146.24L147.31 150.5L147 154.77L125.1 155.77L128.29 158.44C131.45 161.1 141.14 165.27 144.16 165.27C145.02 165.27 147.34 163.87 149.29 162.15C152.57 159.27 153.26 159.07 158.15 159.57C163.46 160.12 163.46 160.12 167.58 155.45C172.58 149.78 174.82 145.48 176.49 138.4C179.61 125.17 173.73 110.18 162.67 103.16C157.77 100.05 152.5 99.4 150.32 101.62C149.59 102.36 146.56 107.95 143.58 114.03C139.44 122.48 137.79 124.95 136.58 124.52C135.71 124.22 130.4 121.82 124.78 119.2L114.55 114.43L118.41 106.1C128.95 83.31 141.78 56.51 143.15 54.41C144.37 52.54 145.28 52.18 147.57 52.63C151.31 53.38 153.38 50.29 151.5 46.77C150.25 44.44 151.51 40.27 153.46 40.27C154.65 40.27 170.67 48.04 171.79 49.16C173.15 50.52 169.78 56.31 168.02 55.64C167.07 55.28 166.11 56.04 165.32 57.77C164.27 60.07 164.34 60.6 165.8 61.42C168.14 62.73 167.96 64.31 164.55 71.81L161.61 78.31L158.3 76.29C152.07 72.49 144.89 74.09 140.78 80.18C138.25 83.93 137.88 88.48 139.78 92.24C141.48 95.61 147.17 99.27 150.7 99.27C156.57 99.27 163.5 93.52 163.5 88.64C163.5 87.33 164.09 86.27 164.8 86.27C167.28 86.27 175.02 91.94 180 97.41C198.68 117.9 197.52 148.94 177.38 167.79L172.34 172.5L175.3 179.14C178.24 185.74 178.28 185.77 182.63 186.07C188.05 186.44 189.5 188.2 189.5 194.46ZM274.91 150.22C269.14 152.01 265.62 152.27 247.39 152.27H226.5V78.27L243.25 78.3C270.13 78.35 278.79 80.17 287.99 87.71C293.22 91.99 298 100.9 299.49 109.15C302.78 127.43 292.37 144.83 274.91 150.22ZM64.63 192.7C58.52 195.86 50.88 193.83 48.01 188.29C46.72 185.8 46.5 178.31 46.5 137.89V90.41L44.25 90.09C42.6 89.86 42 89.1 42 87.27V84.77H58.5C74.83 84.77 75 84.79 75.32 87.01C75.55 88.62 74.91 89.58 73.07 90.42L70.5 91.59V137.96C70.5 188.88 70.41 189.71 64.63 192.7ZM335.6 152.26C329.97 153.82 321.44 153.43 316.96 151.39C312.45 149.34 307.82 144.41 306.88 140.63C305.91 136.8 307.08 130.67 309.38 127.44C312.97 122.4 317.63 120.86 331 120.28L343 119.77L342.79 116.83C342.67 115.22 341.67 113 340.58 111.9C337.78 109.11 328.49 108.53 322.5 110.77C315.14 113.52 314.55 113.34 312.41 107.77C311.36 105.02 310.69 102.23 310.94 101.58C311.87 99.12 324.33 96.27 334.14 96.27C344.83 96.27 349.2 97.63 354.28 102.54C359.45 107.55 360.5 112.87 360.5 133.95V152.27H352.5C344.63 152.27 344.5 152.23 344.5 149.77C344.5 146.75 343.42 146.6 341.01 149.26C340.01 150.36 337.58 151.71 335.6 152.26ZM446.76 150.02C443.67 152.38 442.08 152.81 435.58 153.03C427.5 153.31 422.73 151.71 417.8 147.08C413.25 142.81 412.62 134.44 416.37 127.92C419.36 122.72 424.58 120.87 438 120.29L450 119.77L449.79 116.83C449.67 115.22 448.67 113 447.58 111.9C444.8 109.12 435.51 108.53 429.5 110.74C427.03 111.66 424.31 112.63 423.46 112.9C421.6 113.5 416.68 102.69 418.15 101.22C418.65 100.72 421.7 99.41 424.93 98.29C432.96 95.53 449.14 95.47 455.1 98.18C465.48 102.89 467.5 108.71 467.5 133.95V152.27H459.5C451.63 152.27 451.5 152.23 451.5 149.77C451.5 146.63 451.18 146.65 446.76 150.02ZM407.69 151.06C403.63 153.72 391.1 153.85 386 151.28C377.19 146.84 375.51 142.41 375.51 123.52L375.5 110.27H367.5V97.39L375 96.77L375.3 90.02L375.59 83.27H392.41L392.7 90.02L393 96.77L406.5 97.36V110.27H392.5V122.82C392.5 134.95 392.58 135.44 395.07 137.93C397.6 140.46 399.78 140.66 404.59 138.79C405.81 138.32 406.66 139.48 408.24 143.77L410.3 149.35L407.69 151.06ZM244.5 93.27V138.49L255.25 138.08C267.46 137.62 271.96 135.93 277.33 129.81C281.14 125.48 282.02 122.61 281.95 114.77C281.86 104.88 276.6 97.42 267.6 94.41C265.73 93.78 259.77 93.27 254.35 93.27H244.5ZM326.25 140.29C332.32 145.09 343.5 139.88 343.5 132.25V129.27H335.72C326.6 129.27 323.5 130.79 323.5 135.25C323.5 137.19 324.39 138.83 326.25 140.29ZM435 141.16C440.63 144.38 450.5 138.71 450.5 132.25V129.27H442.5C435.83 129.27 434.17 129.6 432.5 131.27C429.23 134.54 430.22 138.43 435 141.16ZM131.36 130.23C130.78 131.9 130.24 133.25 130.15 133.22C130.07 133.19 126.34 131.28 121.87 128.97C114.29 125.05 113.82 124.62 114.78 122.52C115.34 121.28 116.13 120.27 116.53 120.27C116.93 120.27 120.66 121.83 124.84 123.73L132.43 127.19L131.36 130.23Z"/>
</mask>
<path d="M189.5 194.46V199.27H94.5V194.7C94.5 194.45 94.5 194.2 94.5 193.96C94.49 191.33 94.49 189.6 95.31 188.46C96.89 186.26 101.51 186.26 115.03 186.27C115.67 186.27 116.33 186.27 117.01 186.27H137.45L138.97 183.32C139.81 181.7 140.5 180.15 140.5 179.89C140.5 179.63 138.14 178.72 135.25 177.88C129.45 176.19 119.47 170.54 115.33 166.59C113.86 165.19 111.62 162.09 110.35 159.7L108.04 155.34L92 154.77V146.77L119.81 146.5L147.62 146.24L147.31 150.5L147 154.77L125.1 155.77L128.29 158.44C131.45 161.1 141.14 165.27 144.16 165.27C145.02 165.27 147.34 163.87 149.29 162.15C152.57 159.27 153.26 159.07 158.15 159.57C163.46 160.12 163.46 160.12 167.58 155.45C172.58 149.78 174.82 145.48 176.49 138.4C179.61 125.17 173.73 110.18 162.67 103.16C157.77 100.05 152.5 99.4 150.32 101.62C149.59 102.36 146.56 107.95 143.58 114.03C139.44 122.48 137.79 124.95 136.58 124.52C135.71 124.22 130.4 121.82 124.78 119.2L114.55 114.43L118.41 106.1C128.95 83.31 141.78 56.51 143.15 54.41C144.37 52.54 145.28 52.18 147.57 52.63C151.31 53.38 153.38 50.29 151.5 46.77C150.25 44.44 151.51 40.27 153.46 40.27C154.65 40.27 170.67 48.04 171.79 49.16C173.15 50.52 169.78 56.31 168.02 55.64C167.07 55.28 166.11 56.04 165.32 57.77C164.27 60.07 164.34 60.6 165.8 61.42C168.14 62.73 167.96 64.31 164.55 71.81L161.61 78.31L158.3 76.29C152.07 72.49 144.89 74.09 140.78 80.18C138.25 83.93 137.88 88.48 139.78 92.24C141.48 95.61 147.17 99.27 150.7 99.27C156.57 99.27 163.5 93.52 163.5 88.64C163.5 87.33 164.09 86.27 164.8 86.27C167.28 86.27 175.02 91.94 180 97.41C198.68 117.9 197.52 148.94 177.38 167.79L172.34 172.5L175.3 179.14C178.24 185.74 178.28 185.77 182.63 186.07C188.05 186.44 189.5 188.2 189.5 194.46ZM274.91 150.22C269.14 152.01 265.62 152.27 247.39 152.27H226.5V78.27L243.25 78.3C270.13 78.35 278.79 80.17 287.99 87.71C293.22 91.99 298 100.9 299.49 109.15C302.78 127.43 292.37 144.83 274.91 150.22ZM64.63 192.7C58.52 195.86 50.88 193.83 48.01 188.29C46.72 185.8 46.5 178.31 46.5 137.89V90.41L44.25 90.09C42.6 89.86 42 89.1 42 87.27V84.77H58.5C74.83 84.77 75 84.79 75.32 87.01C75.55 88.62 74.91 89.58 73.07 90.42L70.5 91.59V137.96C70.5 188.88 70.41 189.71 64.63 192.7ZM335.6 152.26C329.97 153.82 321.44 153.43 316.96 151.39C312.45 149.34 307.82 144.41 306.88 140.63C305.91 136.8 307.08 130.67 309.38 127.44C312.97 122.4 317.63 120.86 331 120.28L343 119.77L342.79 116.83C342.67 115.22 341.67 113 340.58 111.9C337.78 109.11 328.49 108.53 322.5 110.77C315.14 113.52 314.55 113.34 312.41 107.77C311.36 105.02 310.69 102.23 310.94 101.58C311.87 99.12 324.33 96.27 334.14 96.27C344.83 96.27 349.2 97.63 354.28 102.54C359.45 107.55 360.5 112.87 360.5 133.95V152.27H352.5C344.63 152.27 344.5 152.23 344.5 149.77C344.5 146.75 343.42 146.6 341.01 149.26C340.01 150.36 337.58 151.71 335.6 152.26ZM446.76 150.02C443.67 152.38 442.08 152.81 435.58 153.03C427.5 153.31 422.73 151.71 417.8 147.08C413.25 142.81 412.62 134.44 416.37 127.92C419.36 122.72 424.58 120.87 438 120.29L450 119.77L449.79 116.83C449.67 115.22 448.67 113 447.58 111.9C444.8 109.12 435.51 108.53 429.5 110.74C427.03 111.66 424.31 112.63 423.46 112.9C421.6 113.5 416.68 102.69 418.15 101.22C418.65 100.72 421.7 99.41 424.93 98.29C432.96 95.53 449.14 95.47 455.1 98.18C465.48 102.89 467.5 108.71 467.5 133.95V152.27H459.5C451.63 152.27 451.5 152.23 451.5 149.77C451.5 146.63 451.18 146.65 446.76 150.02ZM407.69 151.06C403.63 153.72 391.1 153.85 386 151.28C377.19 146.84 375.51 142.41 375.51 123.52L375.5 110.27H367.5V97.39L375 96.77L375.3 90.02L375.59 83.27H392.41L392.7 90.02L393 96.77L406.5 97.36V110.27H392.5V122.82C392.5 134.95 392.58 135.44 395.07 137.93C397.6 140.46 399.78 140.66 404.59 138.79C405.81 138.32 406.66 139.48 408.24 143.77L410.3 149.35L407.69 151.06ZM244.5 93.27V138.49L255.25 138.08C267.46 137.62 271.96 135.93 277.33 129.81C281.14 125.48 282.02 122.61 281.95 114.77C281.86 104.88 276.6 97.42 267.6 94.41C265.73 93.78 259.77 93.27 254.35 93.27H244.5ZM326.25 140.29C332.32 145.09 343.5 139.88 343.5 132.25V129.27H335.72C326.6 129.27 323.5 130.79 323.5 135.25C323.5 137.19 324.39 138.83 326.25 140.29ZM435 141.16C440.63 144.38 450.5 138.71 450.5 132.25V129.27H442.5C435.83 129.27 434.17 129.6 432.5 131.27C429.23 134.54 430.22 138.43 435 141.16ZM131.36 130.23C130.78 131.9 130.24 133.25 130.15 133.22C130.07 133.19 126.34 131.28 121.87 128.97C114.29 125.05 113.82 124.62 114.78 122.52C115.34 121.28 116.13 120.27 116.53 120.27C116.93 120.27 120.66 121.83 124.84 123.73L132.43 127.19L131.36 130.23Z" fill="#173361"/>
<path d="M189.5 194.46V199.27H94.5V194.7C94.5 194.45 94.5 194.2 94.5 193.96C94.49 191.33 94.49 189.6 95.31 188.46C96.89 186.26 101.51 186.26 115.03 186.27C115.67 186.27 116.33 186.27 117.01 186.27H137.45L138.97 183.32C139.81 181.7 140.5 180.15 140.5 179.89C140.5 179.63 138.14 178.72 135.25 177.88C129.45 176.19 119.47 170.54 115.33 166.59C113.86 165.19 111.62 162.09 110.35 159.7L108.04 155.34L92 154.77V146.77L119.81 146.5L147.62 146.24L147.31 150.5L147 154.77L125.1 155.77L128.29 158.44C131.45 161.1 141.14 165.27 144.16 165.27C145.02 165.27 147.34 163.87 149.29 162.15C152.57 159.27 153.26 159.07 158.15 159.57C163.46 160.12 163.46 160.12 167.58 155.45C172.58 149.78 174.82 145.48 176.49 138.4C179.61 125.17 173.73 110.18 162.67 103.16C157.77 100.05 152.5 99.4 150.32 101.62C149.59 102.36 146.56 107.95 143.58 114.03C139.44 122.48 137.79 124.95 136.58 124.52C135.71 124.22 130.4 121.82 124.78 119.2L114.55 114.43L118.41 106.1C128.95 83.31 141.78 56.51 143.15 54.41C144.37 52.54 145.28 52.18 147.57 52.63C151.31 53.38 153.38 50.29 151.5 46.77C150.25 44.44 151.51 40.27 153.46 40.27C154.65 40.27 170.67 48.04 171.79 49.16C173.15 50.52 169.78 56.31 168.02 55.64C167.07 55.28 166.11 56.04 165.32 57.77C164.27 60.07 164.34 60.6 165.8 61.42C168.14 62.73 167.96 64.31 164.55 71.81L161.61 78.31L158.3 76.29C152.07 72.49 144.89 74.09 140.78 80.18C138.25 83.93 137.88 88.48 139.78 92.24C141.48 95.61 147.17 99.27 150.7 99.27C156.57 99.27 163.5 93.52 163.5 88.64C163.5 87.33 164.09 86.27 164.8 86.27C167.28 86.27 175.02 91.94 180 97.41C198.68 117.9 197.52 148.94 177.38 167.79L172.34 172.5L175.3 179.14C178.24 185.74 178.28 185.77 182.63 186.07C188.05 186.44 189.5 188.2 189.5 194.46ZM274.91 150.22C269.14 152.01 265.62 152.27 247.39 152.27H226.5V78.27L243.25 78.3C270.13 78.35 278.79 80.17 287.99 87.71C293.22 91.99 298 100.9 299.49 109.15C302.78 127.43 292.37 144.83 274.91 150.22ZM64.63 192.7C58.52 195.86 50.88 193.83 48.01 188.29C46.72 185.8 46.5 178.31 46.5 137.89V90.41L44.25 90.09C42.6 89.86 42 89.1 42 87.27V84.77H58.5C74.83 84.77 75 84.79 75.32 87.01C75.55 88.62 74.91 89.58 73.07 90.42L70.5 91.59V137.96C70.5 188.88 70.41 189.71 64.63 192.7ZM335.6 152.26C329.97 153.82 321.44 153.43 316.96 151.39C312.45 149.34 307.82 144.41 306.88 140.63C305.91 136.8 307.08 130.67 309.38 127.44C312.97 122.4 317.63 120.86 331 120.28L343 119.77L342.79 116.83C342.67 115.22 341.67 113 340.58 111.9C337.78 109.11 328.49 108.53 322.5 110.77C315.14 113.52 314.55 113.34 312.41 107.77C311.36 105.02 310.69 102.23 310.94 101.58C311.87 99.12 324.33 96.27 334.14 96.27C344.83 96.27 349.2 97.63 354.28 102.54C359.45 107.55 360.5 112.87 360.5 133.95V152.27H352.5C344.63 152.27 344.5 152.23 344.5 149.77C344.5 146.75 343.42 146.6 341.01 149.26C340.01 150.36 337.58 151.71 335.6 152.26ZM446.76 150.02C443.67 152.38 442.08 152.81 435.58 153.03C427.5 153.31 422.73 151.71 417.8 147.08C413.25 142.81 412.62 134.44 416.37 127.92C419.36 122.72 424.58 120.87 438 120.29L450 119.77L449.79 116.83C449.67 115.22 448.67 113 447.58 111.9C444.8 109.12 435.51 108.53 429.5 110.74C427.03 111.66 424.31 112.63 423.46 112.9C421.6 113.5 416.68 102.69 418.15 101.22C418.65 100.72 421.7 99.41 424.93 98.29C432.96 95.53 449.14 95.47 455.1 98.18C465.48 102.89 467.5 108.71 467.5 133.95V152.27H459.5C451.63 152.27 451.5 152.23 451.5 149.77C451.5 146.63 451.18 146.65 446.76 150.02ZM407.69 151.06C403.63 153.72 391.1 153.85 386 151.28C377.19 146.84 375.51 142.41 375.51 123.52L375.5 110.27H367.5V97.39L375 96.77L375.3 90.02L375.59 83.27H392.41L392.7 90.02L393 96.77L406.5 97.36V110.27H392.5V122.82C392.5 134.95 392.58 135.44 395.07 137.93C397.6 140.46 399.78 140.66 404.59 138.79C405.81 138.32 406.66 139.48 408.24 143.77L410.3 149.35L407.69 151.06ZM244.5 93.27V138.49L255.25 138.08C267.46 137.62 271.96 135.93 277.33 129.81C281.14 125.48 282.02 122.61 281.95 114.77C281.86 104.88 276.6 97.42 267.6 94.41C265.73 93.78 259.77 93.27 254.35 93.27H244.5ZM326.25 140.29C332.32 145.09 343.5 139.88 343.5 132.25V129.27H335.72C326.6 129.27 323.5 130.79 323.5 135.25C323.5 137.19 324.39 138.83 326.25 140.29ZM435 141.16C440.63 144.38 450.5 138.71 450.5 132.25V129.27H442.5C435.83 129.27 434.17 129.6 432.5 131.27C429.23 134.54 430.22 138.43 435 141.16ZM131.36 130.23C130.78 131.9 130.24 133.25 130.15 133.22C130.07 133.19 126.34 131.28 121.87 128.97C114.29 125.05 113.82 124.62 114.78 122.52C115.34 121.28 116.13 120.27 116.53 120.27C116.93 120.27 120.66 121.83 124.84 123.73L132.43 127.19L131.36 130.23Z" stroke="#FFFBFB" stroke-width="2" mask="url(#path-3-inside-1_2002_132)"/>
</g>
<g filter="url(#filter2_d_2002_132)">
<path d="M650 150.88C642.73 154.32 634.55 154.16 627.14 150.42L621.5 147.58V149.92C621.5 152.2 621.25 152.27 612.97 152.27H604.44L605 74.77L622.5 74.19V87.23C622.5 94.4 622.61 100.27 622.75 100.27C622.89 100.26 625.21 99.14 627.92 97.77C637.07 93.12 649.65 94.98 656.97 102.05C662.92 107.8 665.76 114.96 665.76 124.21C665.76 136.89 660.41 145.96 650 150.88ZM89.7896 190.12C89.4896 192.4 88.8896 194.27 88.4696 194.27C88.0496 194.27 86.3096 192.96 84.6096 191.37L81.4996 188.47V57.41L79.2596 57.09C76.6896 56.72 75.7696 53.86 77.5396 51.72C79.3996 49.48 109.03 49.6 109.89 51.85C111.04 54.84 110.5 56.32 107.89 57.31L105.28 58.3L105.64 100.04L106 141.77L97.2096 142.27C90.8996 142.63 88.1496 143.19 87.4796 144.27C85.9796 146.64 86.3396 154.6 88.0596 157.05C89.4396 159.02 90.4896 159.27 97.4396 159.27C97.6496 159.27 97.8596 159.27 98.0596 159.27C101.74 159.27 103.81 159.27 104.98 160.29C106.47 161.61 106.48 164.62 106.49 171.5C106.49 171.79 106.49 172.09 106.49 172.4L106.5 181.03L100.46 181.47C93.1996 181.99 90.5996 184.1 89.7896 190.12ZM568.25 151.73C561.28 154.64 548.27 153.09 543.5 148.77C538.42 144.17 537.17 135.8 540.56 129.15C543.57 123.25 549.91 120.67 563.43 119.86C569.17 119.52 574.06 119.04 574.3 118.8C574.54 118.56 574.45 117.2 574.09 115.79C572.64 110 562.63 107.57 554 110.9C547.23 113.52 546.53 113.29 544.41 107.77C543.36 105.02 542.69 102.25 542.92 101.63C543.16 101 546.43 99.43 550.18 98.15C560.21 94.73 573.18 94.81 580.02 98.32C583.02 99.87 586.17 102.57 587.99 105.16L591 109.44L591.32 130.85L591.64 152.27H583.57C575.5 152.27 575.5 152.27 575.5 149.62C575.5 147.13 575.39 147.06 573.71 148.58C572.73 149.47 570.27 150.89 568.25 151.73ZM535.5 138.27V152.27H481.5V78.27H498.25L498.88 81.39C499.22 83.11 499.5 96.61 499.5 111.39V138.27H535.5ZM628.39 137.77C631.64 139.54 638.2 139.65 641.47 137.99C642.83 137.3 645.01 135.17 646.31 133.26C649.44 128.65 649.12 119.35 645.67 114.5C643.09 110.89 637.09 108.76 632.39 109.79C620.46 112.41 617.67 131.95 628.39 137.77ZM560 141.57C567.8 143.4 573.83 139.98 574.31 133.49L574.61 129.27H567.28C558.71 129.27 555.5 130.87 555.5 135.14C555.5 138.42 557.25 140.93 560 141.57Z" fill="#45B4D1"/>
<path d="M622 87.2299C622 90.817 622.027 94.0808 622.072 96.4486C622.095 97.6315 622.122 98.5942 622.152 99.2631C622.167 99.596 622.184 99.8633 622.201 100.05C622.21 100.141 622.219 100.227 622.232 100.295C622.238 100.326 622.249 100.378 622.27 100.431C622.279 100.455 622.301 100.51 622.346 100.569C622.382 100.616 622.513 100.77 622.75 100.77H622.768L622.785 100.769C622.875 100.763 622.958 100.73 622.97 100.726C623.007 100.713 623.049 100.696 623.093 100.677C623.183 100.64 623.302 100.588 623.443 100.523C623.728 100.393 624.119 100.207 624.589 99.9799C625.528 99.5258 626.789 98.9021 628.146 98.2162H628.146C637.108 93.662 649.457 95.4892 656.622 102.41C662.463 108.054 665.26 115.078 665.26 124.21C665.26 130.48 663.937 135.825 661.353 140.201C658.85 144.437 655.15 147.79 650.263 150.198L649.786 150.428C642.66 153.8 634.642 153.647 627.365 149.974L627.364 149.973L621.725 147.133L621 146.769V149.92C621 150.515 620.975 150.829 620.878 151.037C620.809 151.185 620.673 151.34 620.207 151.468C619.72 151.602 618.964 151.682 617.777 151.724C616.6 151.766 615.042 151.77 612.97 151.77H604.943L605.496 75.2533L622 74.7064V87.2299ZM566.293 96.1361C571.604 96.1671 576.468 97.0592 579.791 98.764C582.724 100.28 585.81 102.929 587.58 105.448H587.581L590.502 109.602L590.819 130.858L591.132 151.77H583.569C581.548 151.77 580.046 151.77 578.923 151.729C577.787 151.687 577.094 151.604 576.664 151.463C576.458 151.395 576.337 151.322 576.262 151.253C576.191 151.189 576.139 151.109 576.1 150.992C576.006 150.715 576 150.317 576 149.62C576 149.004 575.993 148.504 575.953 148.139C575.933 147.957 575.902 147.779 575.846 147.625C575.791 147.476 575.691 147.283 575.487 147.164C575.269 147.037 575.041 147.055 574.871 147.106C574.71 147.154 574.555 147.243 574.416 147.338C574.136 147.529 573.789 147.834 573.374 148.209L573.373 148.21C572.454 149.045 570.054 150.438 568.058 151.268L568.057 151.269C564.681 152.678 559.783 153.023 555.109 152.465C550.423 151.906 546.104 150.455 543.835 148.4C538.943 143.97 537.705 135.851 541.005 129.377C543.879 123.744 549.944 121.168 563.46 120.359L563.459 120.358C566.334 120.188 568.998 119.984 570.976 119.79C571.964 119.694 572.786 119.6 573.379 119.514C573.674 119.471 573.921 119.43 574.106 119.389C574.198 119.369 574.285 119.347 574.359 119.323C574.396 119.31 574.439 119.294 574.481 119.274C574.517 119.257 574.587 119.22 574.653 119.154C574.765 119.042 574.821 118.907 574.852 118.81C574.885 118.705 574.904 118.591 574.916 118.48C574.94 118.257 574.938 117.988 574.918 117.7C574.878 117.119 574.76 116.396 574.574 115.666H574.573C573.781 112.51 570.695 110.373 566.855 109.439C563.112 108.528 558.524 108.72 554.233 110.279L553.819 110.434C552.125 111.09 550.839 111.555 549.823 111.807C548.803 112.06 548.125 112.079 547.616 111.912C547.126 111.752 546.71 111.393 546.275 110.693C545.834 109.982 545.407 108.975 544.876 107.592H544.877C544.359 106.234 543.935 104.874 543.671 103.784C543.539 103.237 543.448 102.768 543.404 102.405C543.382 102.223 543.373 102.076 543.374 101.965C543.375 101.882 543.383 101.836 543.387 101.816C543.399 101.802 543.426 101.773 543.478 101.727C543.571 101.645 543.71 101.542 543.897 101.421C544.272 101.181 544.8 100.896 545.449 100.584C546.744 99.9632 548.481 99.2583 550.341 98.6234C555.297 96.9334 560.991 96.1052 566.293 96.1361ZM497.841 78.7699L498.389 81.4857V81.4867C498.464 81.8703 498.545 82.9918 498.62 84.7465C498.694 86.4797 498.761 88.7865 498.817 91.5033C498.93 96.9367 499 104.003 499 111.39V138.77H535V151.77H482V78.7699H497.841ZM567.279 128.77C562.989 128.77 559.94 129.167 557.953 130.157C556.945 130.659 556.195 131.321 555.702 132.17C555.212 133.017 555 134.011 555 135.14C555 138.598 556.861 141.352 559.886 142.056V142.057C563.876 142.993 567.468 142.599 570.146 141.085C572.837 139.564 574.557 136.934 574.809 133.527V133.526L575.108 129.305L575.146 128.77H567.279ZM639.992 109.934C637.511 109.054 634.74 108.763 632.282 109.301V109.302C626.047 110.672 622.268 116.44 621.4 122.509C620.533 128.578 622.547 135.166 628.15 138.208V138.209C629.875 139.148 632.419 139.624 634.914 139.666C637.409 139.708 639.958 139.317 641.695 138.435C642.443 138.055 643.372 137.309 644.262 136.44C645.159 135.563 646.051 134.528 646.723 133.541L646.724 133.54C648.37 131.115 649.079 127.519 648.957 123.953C648.835 120.382 647.876 116.74 646.077 114.21L646.076 114.209L645.811 113.856C644.431 112.116 642.315 110.758 639.992 109.934ZM82 56.976L81.5703 56.9154L79.3301 56.5951H79.3311C78.2339 56.4371 77.5192 55.7615 77.248 54.9164C76.9747 54.0642 77.1385 52.9895 77.9238 52.0394C77.9531 52.0041 78.0739 51.9111 78.3779 51.7953C78.6629 51.6868 79.0486 51.5805 79.5303 51.4799C80.4923 51.279 81.7837 51.1105 83.3018 50.9769C86.3346 50.7101 90.2238 50.5854 94.0879 50.601C97.9521 50.6165 101.777 50.7724 104.684 51.0629C106.139 51.2084 107.349 51.3867 108.213 51.5931C108.647 51.6968 108.973 51.8025 109.193 51.9056C109.303 51.9571 109.372 52.0017 109.411 52.0336C109.42 52.041 109.426 52.047 109.431 52.0511C109.988 53.508 110.081 54.4723 109.83 55.1586C109.587 55.8237 108.964 56.3671 107.712 56.8422L105.103 57.8324L104.776 57.9564L104.779 58.3041L105.14 100.044L105.495 141.297L97.1816 141.771H97.1807C94.0223 141.951 91.7266 142.182 90.1289 142.51C89.3301 142.674 88.6838 142.866 88.1836 143.099C87.6874 143.33 87.2951 143.62 87.0566 144.002C86.6225 144.688 86.3531 145.718 86.2002 146.856C86.0452 148.009 86.0027 149.333 86.0625 150.653C86.1223 151.973 86.2853 153.301 86.5449 154.462C86.7697 155.467 87.0748 156.384 87.4736 157.062L87.6504 157.337C88.0078 157.847 88.3676 158.282 88.8301 158.628C89.2975 158.978 89.8426 159.219 90.5459 159.385C91.9185 159.71 93.9836 159.77 97.4395 159.77H98.0596C99.9108 159.77 101.315 159.77 102.404 159.894C103.356 160.002 104.002 160.199 104.464 160.521L104.651 160.667C105.245 161.196 105.605 162.11 105.792 163.864C105.978 165.608 105.984 168.049 105.989 171.5V172.401L105.999 180.565L100.423 180.971C96.7701 181.233 94.1736 181.898 92.3906 183.344C90.5883 184.806 89.7063 186.989 89.2939 190.053V190.055C89.1468 191.173 88.9271 192.18 88.6982 192.898C88.5828 193.26 88.4711 193.527 88.376 193.695C88.3728 193.7 88.3683 193.705 88.3652 193.71C88.3144 193.685 88.2536 193.652 88.1836 193.611C87.9567 193.476 87.6628 193.274 87.3203 193.017C86.6371 192.503 85.7904 191.79 84.9512 191.005L84.9502 191.004L82 188.252V56.976Z" stroke="#FFFBFB"/>
</g>
<g filter="url(#filter3_d_2002_132)">
<path d="M132.24 64.71C127.12 75.19 121.73 86.25 120.27 89.27L117.62 94.77L117.5 13L124.75 13.68C128.74 14.05 134.02 14.45 136.5 14.56L141 14.77L141.55 45.64L132.24 64.71ZM142.3 134.77L142 141.77L131 141.96C124.95 142.06 119.48 141.92 118.85 141.66C117.84 141.23 117.99 135.49 119.04 134.41C119.23 134.21 121.52 134.77 124.12 135.66C130.99 138 132.3 137.75 134.2 133.77C135.33 131.4 136.55 130.27 137.99 130.27C139.15 130.27 140.66 129.71 141.35 129.02C142.35 128.02 142.54 129.17 142.3 134.77ZM154.86 92.02C152.11 94.53 152 94.54 148.53 93.16C145.49 91.94 144.54 90.53 144.52 87.21C144.48 80.84 152.53 77.95 156.44 82.93C158.91 86.06 158.44 88.77 154.86 92.02Z" fill="#60758A"/>
<path d="M141.797 129.502C141.929 130.302 141.922 131.931 141.801 134.749L141.52 141.278L130.991 141.46C127.972 141.51 125.099 141.5 122.905 141.445C121.808 141.418 120.884 141.379 120.198 141.332C119.855 141.308 119.576 141.283 119.368 141.256C119.264 141.242 119.183 141.229 119.122 141.217C119.094 141.211 119.074 141.206 119.061 141.202C119.047 141.186 119.018 141.147 118.98 141.063C118.913 140.915 118.85 140.695 118.798 140.408C118.694 139.837 118.651 139.083 118.672 138.292C118.693 137.503 118.777 136.701 118.915 136.04C118.984 135.71 119.065 135.424 119.154 135.197C119.21 135.055 119.264 134.949 119.312 134.872C119.357 134.875 119.413 134.882 119.481 134.892C119.738 134.926 120.103 135.001 120.557 135.112C121.46 135.334 122.668 135.691 123.958 136.133L123.959 136.134C125.679 136.72 127.072 137.151 128.22 137.4C129.365 137.65 130.308 137.728 131.116 137.576C132.698 137.279 133.584 136.136 134.474 134.351L134.651 133.985C135.769 131.641 136.866 130.77 137.99 130.77C138.642 130.769 139.37 130.614 140.021 130.372C140.666 130.132 141.289 129.788 141.703 129.374C141.722 129.355 141.742 129.338 141.759 129.322C141.771 129.372 141.785 129.432 141.797 129.502ZM145.02 87.207C144.982 81.2956 152.442 78.6476 156.047 83.2383L156.048 83.2393C157.23 84.7376 157.649 86.0576 157.426 87.3447C157.198 88.6572 156.282 90.0529 154.523 91.6494L154.522 91.6504C153.829 92.2829 153.328 92.7352 152.902 93.0488C152.482 93.3581 152.174 93.5036 151.877 93.5566C151.58 93.6097 151.238 93.58 150.733 93.4365C150.222 93.291 149.589 93.0432 148.714 92.6953C147.232 92.1004 146.344 91.491 145.807 90.6934C145.268 89.8942 145.029 88.8295 145.02 87.207ZM124.703 14.1777H124.704C128.696 14.5479 133.984 14.948 136.477 15.0586V15.0596L140.508 15.2471L141.047 45.5283L131.791 64.4902C126.671 74.97 121.281 86.0316 119.82 89.0527H119.819L118.116 92.5859L118 13.5488L124.703 14.1777Z" stroke="#FFFBFB"/>
</g>
<defs>
<filter id="filter0_d_2002_132" x="0" y="0" width="699" height="229" filterUnits="userSpaceOnUse" color-interpolation-filters="sRGB">
<feFlood flood-opacity="0" result="BackgroundImageFix"/>
<feColorMatrix in="SourceAlpha" type="matrix" values="0 0 0 0 0 0 0 0 0 0 0 0 0 0 0 0 0 0 127 0" result="hardAlpha"/>
<feOffset dy="4"/>
<feGaussianBlur stdDeviation="2"/>
<feComposite in2="hardAlpha" operator="out"/>
<feColorMatrix type="matrix" values="0 0 0 0 0 0 0 0 0 0 0 0 0 0 0 0 0 0 0.25 0"/>
<feBlend mode="normal" in2="BackgroundImageFix" result="effect1_dropShadow_2002_132"/>
<feBlend mode="normal" in="SourceGraphic" in2="effect1_dropShadow_2002_132" result="shape"/>
</filter>
<filter id="filter1_d_2002_132" x="38" y="40.27" width="433.5" height="167" filterUnits="userSpaceOnUse" color-interpolation-filters="sRGB">
<feFlood flood-opacity="0" result="BackgroundImageFix"/>
<feColorMatrix in="SourceAlpha" type="matrix" values="0 0 0 0 0 0 0 0 0 0 0 0 0 0 0 0 0 0 127 0" result="hardAlpha"/>
<feOffset dy="4"/>
<feGaussianBlur stdDeviation="2"/>
<feComposite in2="hardAlpha" operator="out"/>
<feColorMatrix type="matrix" values="0 0 0 0 0 0 0 0 0 0 0 0 0 0 0 0 0 0 0.25 0"/>
<feBlend mode="normal" in2="BackgroundImageFix" result="effect1_dropShadow_2002_132"/>
<feBlend mode="normal" in="SourceGraphic" in2="effect1_dropShadow_2002_132" result="shape"/>
</filter>
<filter id="filter2_d_2002_132" x="72.625" y="50.1" width="597.135" height="152.17" filterUnits="userSpaceOnUse" color-interpolation-filters="sRGB">
<feFlood flood-opacity="0" result="BackgroundImageFix"/>
<feColorMatrix in="SourceAlpha" type="matrix" values="0 0 0 0 0 0 0 0 0 0 0 0 0 0 0 0 0 0 127 0" result="hardAlpha"/>
<feOffset dy="4"/>
<feGaussianBlur stdDeviation="2"/>
<feComposite in2="hardAlpha" operator="out"/>
<feColorMatrix type="matrix" values="0 0 0 0 0 0 0 0 0 0 0 0 0 0 0 0 0 0 0.25 0"/>
<feBlend mode="normal" in2="BackgroundImageFix" result="effect1_dropShadow_2002_132"/>
<feBlend mode="normal" in="SourceGraphic" in2="effect1_dropShadow_2002_132" result="shape"/>
</filter>
<filter id="filter3_d_2002_132" x="113.5" y="13" width="48.4839" height="136.992" filterUnits="userSpaceOnUse" color-interpolation-filters="sRGB">
<feFlood flood-opacity="0" result="BackgroundImageFix"/>
<feColorMatrix in="SourceAlpha" type="matrix" values="0 0 0 0 0 0 0 0 0 0 0 0 0 0 0 0 0 0 127 0" result="hardAlpha"/>
<feOffset dy="4"/>
<feGaussianBlur stdDeviation="2"/>
<feComposite in2="hardAlpha" operator="out"/>
<feColorMatrix type="matrix" values="0 0 0 0 0 0 0 0 0 0 0 0 0 0 0 0 0 0 0.25 0"/>
<feBlend mode="normal" in2="BackgroundImageFix" result="effect1_dropShadow_2002_132"/>
<feBlend mode="normal" in="SourceGraphic" in2="effect1_dropShadow_2002_132" result="shape"/>
</filter>
</defs>
</svg>
