<svg xmlns="http://www.w3.org/2000/svg" width="1866" height="562" viewBox="0 0 1866 562">
<g>
<path d="M 483.72 534.50 L 483.50 545.50 L 348.18 545.75 L 212.85 546.01 L 213.18 531.58 C213.48,517.91 213.63,517.02 215.93,514.58 C217.26,513.16 219.96,511.47 221.93,510.82 C224.41,510.00 242.33,509.46 280.50,509.07 L 335.50 508.50 L 339.87 499.84 C342.27,495.08 343.95,490.72 343.60,490.15 C343.25,489.59 337.93,487.50 331.78,485.52 C311.49,478.97 286.22,464.89 273.90,453.26 C266.78,446.55 260.44,437.78 255.19,427.37 C251.53,420.12 251.19,420.00 234.12,419.99 C227.73,419.99 218.79,419.70 214.25,419.35 L 206.00 418.70 L 206.00 396.33 L 260.75 395.66 C290.86,395.30 326.47,395.00 339.88,395.00 L 364.26 395.00 L 363.55 406.25 C363.15,412.44 362.48,417.87 362.05,418.31 C361.62,418.76 350.52,419.58 337.39,420.13 C324.25,420.69 310.73,421.45 307.34,421.82 L 301.19 422.50 L 307.84 427.81 C311.50,430.74 319.45,435.56 325.50,438.53 C335.73,443.54 350.40,449.00 353.67,449.00 C356.20,449.00 362.73,445.14 368.96,439.95 C378.26,432.21 379.85,431.78 395.71,432.60 L 409.24 433.30 L 417.37 424.84 C432.11,409.48 440.57,395.06 445.72,376.50 C448.21,367.52 448.49,364.91 448.48,351.00 C448.45,332.51 446.62,324.20 439.09,308.50 C430.41,290.37 417.31,276.22 402.35,268.81 C395.25,265.29 392.81,264.60 386.17,264.22 C376.76,263.67 373.21,265.13 369.46,271.06 C368.07,273.27 361.06,286.50 353.88,300.46 C346.71,314.43 339.39,327.53 337.63,329.57 L 334.42 333.28 L 329.46 331.10 C326.73,329.90 312.28,323.25 297.36,316.32 L 270.21 303.72 L 272.97 297.61 C301.89,233.62 350.60,132.55 353.99,129.50 C355.81,127.86 357.62,127.50 364.03,127.50 C370.87,127.50 372.15,127.21 374.37,125.12 C378.00,121.72 378.44,118.19 376.05,111.89 C374.92,108.93 374.00,105.60 374.01,104.50 C374.02,100.23 376.20,94.91 378.59,93.35 C380.98,91.78 381.48,91.89 390.79,95.91 C405.00,102.04 432.25,116.25 433.34,118.09 C434.85,120.63 433.18,126.61 429.67,131.23 C427.12,134.57 425.66,135.57 422.96,135.83 C418.74,136.24 417.41,137.28 414.93,142.14 C412.20,147.49 412.48,148.98 417.00,153.11 C421.68,157.39 421.82,158.71 418.61,167.77 C416.45,173.88 405.41,198.93 404.46,199.87 C404.24,200.09 400.99,198.41 397.24,196.15 C393.45,193.86 387.38,191.27 383.57,190.33 C367.27,186.31 350.20,194.68 342.44,210.50 C339.81,215.86 339.50,217.51 339.50,226.00 C339.51,233.84 339.88,236.20 341.67,239.50 C346.21,247.89 359.30,257.67 369.14,260.03 C373.44,261.06 375.15,260.99 380.62,259.50 C395.78,255.40 410.00,240.83 410.00,229.40 C410.00,220.86 418.38,222.54 433.64,234.14 C462.41,256.01 481.57,283.69 489.96,315.50 C493.47,328.81 494.48,337.38 494.40,353.00 C494.29,375.94 490.06,393.86 479.86,414.73 C472.41,429.93 464.24,440.83 448.84,456.07 L 435.12 469.65 L 442.06 485.07 C445.88,493.56 449.83,501.62 450.86,503.00 C453.15,506.08 457.18,507.49 467.38,508.79 C472.27,509.42 476.25,510.53 477.88,511.73 C482.20,514.91 483.98,521.85 483.72,534.50 ZM 699.05 410.95 C687.86,411.82 590.01,412.54 590.00,411.75 C589.99,411.61 589.88,364.14 589.75,306.25 L 589.50 201.00 L 629.02 201.00 C709.11,201.00 734.47,205.21 758.50,222.51 C790.65,245.65 806.76,294.11 795.87,334.95 C792.87,346.22 784.18,363.22 776.63,372.59 C758.01,395.70 732.43,408.35 699.05,410.95 ZM 117.28 530.53 L 116.64 530.66 C112.92,531.45 111.28,531.80 109.64,531.78 C108.26,531.75 106.89,531.46 104.27,530.95 C94.96,529.11 83.99,521.75 80.50,515.01 C77.00,508.23 76.75,499.50 76.28,366.25 L 75.82 235.00 L 73.56 235.00 C69.93,235.00 65.04,232.94 63.98,230.96 C63.44,229.95 63.00,226.85 63.00,224.07 L 63.00 219.00 L 99.75 219.05 C140.63,219.10 155.69,219.90 157.08,222.09 C158.29,224.00 158.23,228.70 156.96,231.07 C156.39,232.14 153.24,234.36 149.96,236.02 L 144.00 239.03 L 144.00 358.31 C144.00,498.36 143.49,509.58 136.60,520.01 C133.64,524.50 125.93,528.70 117.28,530.53 ZM 896.32 412.86 C883.54,415.55 866.35,414.98 854.19,411.46 C842.38,408.05 827.59,396.00 821.52,384.87 C816.26,375.19 817.16,357.59 823.56,344.91 C826.48,339.11 833.56,331.78 838.81,329.10 C848.81,324.00 864.47,321.54 893.50,320.51 C902.30,320.20 912.36,319.69 915.87,319.38 L 922.23 318.82 L 921.56 313.66 C919.94,301.13 916.13,295.25 907.74,292.33 C903.53,290.86 899.45,290.50 887.00,290.51 C871.64,290.52 871.41,290.56 861.07,294.26 C850.32,298.12 845.36,298.80 841.83,296.91 C839.34,295.58 833.92,283.96 831.49,274.77 C830.01,269.17 829.94,267.78 831.04,266.46 C837.88,258.21 877.72,250.90 907.50,252.42 C930.79,253.61 941.59,257.60 953.48,269.37 C969.59,285.32 972.39,301.40 971.80,374.50 L 971.50 411.50 L 953.00 411.80 C941.68,411.99 933.05,411.68 930.76,411.01 C926.85,409.88 926.30,408.88 925.77,402.01 C925.38,396.91 922.89,397.02 916.92,402.38 C911.17,407.55 903.84,411.28 896.32,412.86 ZM 1206.89 411.60 C1200.66,413.87 1172.80,414.50 1164.29,412.56 C1149.80,409.25 1134.90,398.92 1129.20,388.22 C1124.54,379.47 1123.15,369.10 1125.27,358.79 C1127.92,345.91 1133.83,335.97 1141.88,330.86 C1151.55,324.73 1168.44,321.62 1198.00,320.55 C1207.07,320.22 1217.37,319.69 1220.89,319.38 L 1227.27 318.81 L 1226.68 312.45 C1226.35,308.95 1225.21,304.38 1224.14,302.29 C1219.64,293.52 1213.66,290.94 1196.21,290.24 C1181.76,289.67 1175.82,290.65 1161.34,295.97 L 1150.98 299.77 L 1148.47 297.80 C1147.09,296.71 1143.84,291.47 1141.25,286.16 C1137.41,278.28 1136.54,275.49 1136.52,271.03 L 1136.50 265.55 L 1145.00 261.90 C1162.69,254.31 1182.54,251.33 1209.00,252.29 C1228.10,252.99 1236.90,254.80 1247.25,260.19 C1266.40,270.15 1273.33,284.22 1275.99,318.50 C1276.54,325.65 1277.00,349.65 1277.00,371.82 L 1277.00 412.14 L 1255.91 411.82 C1235.13,411.50 1234.79,411.46 1232.91,409.14 C1231.68,407.62 1231.00,405.22 1231.00,402.39 C1231.00,396.04 1230.41,396.20 1216.39,406.31 C1213.57,408.33 1209.30,410.71 1206.89,411.60 ZM 1094.28 412.53 C1085.79,414.33 1064.66,414.31 1056.32,412.50 C1040.00,408.95 1026.44,398.90 1020.93,386.28 C1016.45,375.98 1015.78,369.32 1015.28,329.75 L 1014.80 292.00 L 992.00 292.00 L 992.00 255.19 L 1012.76 253.78 L 1013.38 249.25 C1013.72,246.76 1014.00,241.75 1014.01,238.11 C1014.01,234.47 1014.30,227.79 1014.65,223.25 L 1015.30 215.00 L 1062.70 215.00 L 1063.35 224.15 C1063.71,229.19 1064.00,236.56 1064.00,240.53 C1064.00,244.50 1064.27,249.10 1064.60,250.75 L 1065.20 253.75 L 1084.12 254.48 L 1103.04 255.20 L 1102.77 273.35 L 1102.50 291.50 L 1082.75 291.77 L 1063.00 292.04 L 1063.03 320.77 C1063.05,336.57 1063.46,352.57 1063.94,356.32 C1064.97,364.30 1067.81,369.21 1073.79,373.35 C1079.45,377.28 1084.34,377.72 1092.43,375.02 C1096.08,373.81 1099.71,373.06 1100.49,373.36 C1102.40,374.09 1105.49,380.34 1110.14,392.87 C1113.76,402.63 1113.89,403.36 1112.25,404.59 C1107.65,408.04 1100.43,411.23 1094.28,412.53 ZM 641.42 372.08 C642.02,372.69 659.16,372.15 677.50,370.95 C706.31,369.05 716.91,365.15 730.65,351.37 C744.45,337.53 748.96,324.67 747.65,303.00 C746.55,285.02 741.78,273.04 731.25,261.88 C724.12,254.32 713.08,247.97 703.50,245.91 C700.75,245.31 685.56,244.59 669.75,244.30 L 641.00 243.78 L 641.00 307.72 C641.00,342.89 641.19,371.85 641.42,372.08 ZM 881.39 381.44 C890.88,384.95 905.05,381.47 913.95,373.43 C920.27,367.71 923.00,361.57 923.00,353.03 L 923.00 346.00 L 909.75 346.01 C885.56,346.02 872.19,348.67 868.66,354.16 C862.63,363.51 868.83,376.80 881.39,381.44 ZM 1188.88 381.68 C1196.99,384.70 1211.42,380.21 1219.84,372.03 C1225.61,366.44 1228.21,360.80 1228.79,352.61 L 1229.29 345.71 L 1207.89 346.22 C1183.99,346.79 1181.54,347.34 1176.25,353.37 C1172.51,357.62 1171.53,360.71 1172.33,365.65 C1173.38,372.10 1179.75,378.27 1188.88,381.68 ZM 318.12 348.51 C316.53,352.86 314.85,356.54 314.37,356.69 C313.36,357.00 277.52,338.22 273.04,335.02 C270.94,333.54 270.00,332.03 270.00,330.18 C270.01,326.40 273.53,321.00 275.99,321.00 C278.79,321.00 317.66,337.63 320.25,339.93 C320.66,340.30 319.71,344.16 318.12,348.51 Z" fill="rgb(23,51,97)"/>
<path d="M 1785.97 411.99 C1767.11,417.33 1749.96,414.94 1727.77,403.86 C1722.42,401.19 1717.58,399.00 1717.02,399.00 C1716.46,399.00 1716.00,401.19 1716.00,403.88 C1716.00,411.43 1715.94,411.45 1691.24,411.84 C1677.98,412.05 1669.40,411.80 1668.79,411.19 C1668.14,410.54 1668.06,372.40 1668.54,300.67 L 1669.28 191.14 L 1676.39 190.61 C1680.30,190.31 1691.44,189.82 1701.16,189.51 L 1718.81 188.95 L 1719.16 225.39 C1719.34,245.44 1719.79,262.12 1720.15,262.48 C1720.50,262.83 1725.22,260.92 1730.65,258.22 C1745.38,250.90 1751.00,249.56 1767.00,249.58 C1776.82,249.59 1782.27,250.08 1787.00,251.38 C1807.71,257.06 1823.73,270.53 1833.56,290.50 C1838.62,300.78 1840.55,307.57 1842.19,320.86 C1844.22,337.25 1841.00,357.95 1834.17,372.38 C1825.43,390.88 1806.98,406.03 1785.97,411.99 ZM 197.85 526.25 C197.27,528.86 196.26,531.00 195.59,531.00 C193.90,531.00 188.92,527.18 181.96,520.54 L 176.00 514.86 L 176.00 141.23 L 171.37 140.53 C165.53,139.66 162.00,136.36 162.00,131.77 C162.00,127.27 164.32,124.29 168.78,123.04 C179.70,119.99 226.68,119.47 246.38,122.19 C255.94,123.50 258.00,125.12 258.00,131.33 C258.00,136.50 255.82,138.95 248.72,141.72 L 243.93 143.59 L 243.98 199.92 C244.01,230.90 244.21,256.53 244.42,256.87 C244.64,257.22 244.95,285.40 245.12,319.50 L 245.42 381.50 L 235.46 382.20 C199.87,384.71 194.30,385.70 192.05,389.91 C190.35,393.08 189.68,406.73 190.87,413.87 C193.44,429.33 196.58,431.23 220.48,431.76 C229.84,431.96 238.76,432.61 240.30,433.21 C245.98,435.39 246.45,437.85 246.83,467.12 L 247.17 493.75 L 237.33 494.43 C210.72,496.28 203.02,500.73 199.99,516.02 C199.39,519.04 198.43,523.64 197.85,526.25 ZM 1555.00 412.81 C1537.19,416.18 1518.41,414.02 1502.75,406.81 C1481.44,397.00 1473.64,368.99 1485.73,345.76 C1490.04,337.47 1495.05,332.83 1504.50,328.34 C1514.60,323.54 1526.54,321.35 1555.36,319.00 C1569.04,317.89 1580.68,316.70 1581.23,316.36 C1582.70,315.45 1581.56,307.71 1579.31,303.31 C1576.91,298.62 1569.62,293.53 1562.23,291.38 C1557.97,290.14 1553.83,289.88 1544.10,290.25 C1532.70,290.68 1530.56,291.07 1521.70,294.36 C1506.55,299.99 1502.82,299.17 1498.45,289.29 C1495.52,282.67 1492.00,271.53 1492.00,268.88 C1492.00,266.62 1495.86,264.10 1505.52,260.06 C1536.01,247.33 1579.20,246.94 1600.81,259.20 C1608.37,263.49 1617.05,271.89 1623.63,281.27 L 1629.29 289.36 L 1630.09 331.93 C1630.53,355.34 1630.91,382.94 1630.94,393.25 L 1631.00 412.00 L 1612.75 411.98 C1594.09,411.95 1587.35,411.16 1585.87,408.82 C1585.41,408.10 1585.02,405.59 1585.02,403.25 C1585.01,400.91 1584.55,399.00 1584.00,399.00 C1583.45,399.00 1580.81,400.58 1578.12,402.51 C1571.69,407.13 1561.84,411.52 1555.00,412.81 ZM 1471.00 372.02 L 1471.00 412.00 L 1394.67 412.00 C1352.68,412.00 1318.03,411.70 1317.67,411.33 C1317.30,410.97 1317.00,363.49 1317.00,305.83 L 1317.00 201.00 L 1364.66 201.00 L 1366.02 206.25 C1367.08,210.36 1367.50,228.80 1367.94,291.50 L 1368.50 371.50 L 1419.75 371.76 ZM 1742.50 372.60 C1748.22,374.41 1762.58,374.31 1769.07,372.41 C1776.53,370.23 1786.65,360.11 1790.01,351.47 C1793.51,342.48 1793.98,326.60 1791.04,316.79 C1787.37,304.56 1782.58,298.74 1772.02,293.69 C1763.15,289.45 1751.29,288.76 1742.75,291.97 C1724.05,299.02 1712.79,324.42 1718.55,346.54 C1721.98,359.72 1730.26,368.73 1742.50,372.60 ZM 1545.06 381.88 C1556.19,383.77 1567.25,381.01 1573.84,374.70 C1579.41,369.36 1581.30,364.59 1581.81,354.62 L 1582.26 345.73 L 1563.38 346.24 C1543.30,346.77 1536.86,348.02 1532.23,352.29 C1527.33,356.81 1526.87,367.55 1531.30,374.12 C1534.18,378.39 1538.35,380.75 1545.06,381.88 Z" fill="rgb(69,179,207)"/>
<path d="M 298.43 207.00 C292.97,218.27 286.39,231.77 283.82,237.00 L 279.14 246.50 L 279.07 152.50 C279.03,100.80 278.70,48.64 278.33,36.59 L 277.67 14.68 L 286.09 15.35 C290.71,15.71 302.15,16.68 311.50,17.49 C320.85,18.30 331.97,18.97 336.21,18.98 C342.54,19.00 344.09,19.32 344.83,20.75 C345.33,21.71 346.04,41.63 346.41,65.02 L 347.09 107.54 L 327.72 147.02 C317.07,168.73 303.89,195.72 298.43,207.00 ZM 330.64 382.01 C321.21,382.01 311.25,382.17 308.50,382.35 C297.70,383.07 283.24,382.00 281.90,380.37 C280.54,378.74 280.25,366.93 281.47,363.08 C282.40,360.17 284.95,360.40 298.17,364.58 C311.61,368.83 317.83,369.37 320.94,366.55 C322.12,365.48 324.50,361.97 326.22,358.74 C329.77,352.07 333.12,349.00 336.82,349.00 C338.22,349.00 341.33,348.05 343.74,346.89 C346.14,345.72 348.36,345.03 348.67,345.34 C349.40,346.07 349.15,374.50 348.37,378.75 L 347.78 382.00 ZM 378.80 244.58 C377.57,245.22 376.82,245.64 376.03,245.77 C374.68,245.99 373.19,245.38 369.01,243.66 L 368.50 243.46 C365.12,242.07 361.04,239.43 359.15,237.40 C355.86,233.87 355.80,233.67 356.15,226.08 C356.45,219.39 356.89,217.83 359.38,214.56 C362.94,209.90 368.96,207.05 375.32,207.02 C380.84,207.00 383.17,207.99 387.83,212.37 C393.71,217.90 395.36,224.39 392.39,230.30 C390.39,234.29 382.40,242.68 378.80,244.58 Z" fill="rgb(97,116,137)"/>
<path d="M 0.00 281.00 L 0.00 0.00 L 933.00 0.00 L 1866.00 0.00 L 1866.00 281.00 L 1866.00 562.00 L 933.00 562.00 L 0.00 562.00 L 0.00 281.00 ZM 483.72 534.50 C483.98,521.85 482.20,514.91 477.88,511.73 C476.25,510.53 472.27,509.42 467.38,508.79 C457.18,507.49 453.15,506.08 450.86,503.00 C449.83,501.62 445.88,493.56 442.06,485.07 L 435.12 469.65 L 448.84 456.07 C464.24,440.83 472.41,429.93 479.86,414.73 C490.06,393.86 494.29,375.94 494.40,353.00 C494.48,337.38 493.47,328.81 489.96,315.50 C481.57,283.69 462.41,256.01 433.64,234.14 C418.38,222.54 410.00,220.86 410.00,229.40 C410.00,240.83 395.78,255.40 380.62,259.50 C375.15,260.99 373.44,261.06 369.14,260.03 C359.30,257.67 346.21,247.89 341.67,239.50 C339.88,236.20 339.51,233.84 339.50,226.00 C339.50,217.51 339.81,215.86 342.44,210.50 C350.20,194.68 367.27,186.31 383.57,190.33 C387.38,191.27 393.45,193.86 397.24,196.15 C400.99,198.41 404.24,200.09 404.46,199.87 C405.41,198.93 416.45,173.88 418.61,167.77 C421.82,158.71 421.68,157.39 417.00,153.11 C412.48,148.98 412.20,147.49 414.93,142.14 C417.41,137.28 418.74,136.24 422.96,135.83 C425.66,135.57 427.12,134.57 429.67,131.23 C433.18,126.61 434.85,120.63 433.34,118.09 C432.25,116.25 405.00,102.04 390.79,95.91 C381.48,91.89 380.98,91.78 378.59,93.35 C376.20,94.91 374.02,100.23 374.01,104.50 C374.00,105.60 374.92,108.93 376.05,111.89 C378.44,118.19 378.00,121.72 374.37,125.12 C372.15,127.21 370.87,127.50 364.03,127.50 C357.62,127.50 355.81,127.86 353.99,129.50 C350.60,132.55 301.89,233.62 272.97,297.61 L 270.21 303.72 L 297.36 316.32 C312.28,323.25 326.73,329.90 329.46,331.10 L 334.42 333.28 L 337.63 329.57 C339.39,327.53 346.71,314.43 353.88,300.46 C361.06,286.50 368.07,273.27 369.46,271.06 C373.21,265.13 376.76,263.67 386.17,264.22 C392.81,264.60 395.25,265.29 402.35,268.81 C417.31,276.22 430.41,290.37 439.09,308.50 C446.62,324.20 448.45,332.51 448.48,351.00 C448.49,364.91 448.21,367.52 445.72,376.50 C440.57,395.06 432.11,409.48 417.37,424.84 L 409.24 433.30 L 395.71 432.60 C379.85,431.78 378.26,432.21 368.96,439.95 C362.73,445.14 356.20,449.00 353.67,449.00 C350.40,449.00 335.73,443.54 325.50,438.53 C319.45,435.56 311.50,430.74 307.84,427.81 L 301.19 422.50 L 307.34 421.82 C310.73,421.45 324.25,420.69 337.39,420.13 C350.52,419.58 361.62,418.76 362.05,418.31 C362.48,417.87 363.15,412.44 363.55,406.25 L 364.26 395.00 L 339.88 395.00 C326.47,395.00 290.86,395.30 260.75,395.66 L 206.00 396.33 L 206.00 407.52 L 206.00 418.70 L 214.25 419.35 C218.79,419.70 227.73,419.99 234.12,419.99 C251.19,420.00 251.53,420.12 255.19,427.37 C260.44,437.78 266.78,446.55 273.90,453.26 C286.22,464.89 311.49,478.97 331.78,485.52 C337.93,487.50 343.25,489.59 343.60,490.15 C343.95,490.72 342.27,495.08 339.87,499.84 L 335.50 508.50 L 280.50 509.07 C242.33,509.46 224.41,510.00 221.93,510.82 C219.96,511.47 217.26,513.16 215.93,514.58 C213.63,517.02 213.48,517.91 213.18,531.58 L 212.85 546.01 L 348.18 545.75 L 483.50 545.50 L 483.72 534.50 ZM 117.28 530.53 C125.93,528.70 133.64,524.50 136.60,520.01 C143.49,509.58 144.00,498.36 144.00,358.31 L 144.00 239.03 L 149.96 236.02 C153.24,234.36 156.39,232.14 156.96,231.07 C158.23,228.70 158.29,224.00 157.08,222.09 C155.69,219.90 140.63,219.10 99.75,219.05 L 63.00 219.00 L 63.00 224.07 C63.00,226.85 63.44,229.95 63.98,230.96 C65.04,232.94 69.93,235.00 73.56,235.00 L 75.82 235.00 L 76.28 366.25 C76.75,499.50 77.00,508.23 80.50,515.01 C83.99,521.75 94.96,529.11 104.27,530.95 C110.16,532.11 109.76,532.12 117.28,530.53 ZM 197.85 526.25 C198.43,523.64 199.39,519.04 199.99,516.02 C203.02,500.73 210.72,496.28 237.33,494.43 L 247.17 493.75 L 246.83 467.12 C246.45,437.85 245.98,435.39 240.30,433.21 C238.76,432.61 229.84,431.96 220.48,431.76 C196.58,431.23 193.44,429.33 190.87,413.87 C189.68,406.73 190.35,393.08 192.05,389.91 C194.30,385.70 199.87,384.71 235.46,382.20 L 245.42 381.50 L 245.12 319.50 C244.95,285.40 244.64,257.22 244.42,256.87 C244.21,256.53 244.01,230.90 243.98,199.92 L 243.93 143.59 L 248.72 141.72 C255.82,138.95 258.00,136.50 258.00,131.33 C258.00,125.12 255.94,123.50 246.38,122.19 C226.68,119.47 179.70,119.99 168.78,123.04 C164.32,124.29 162.00,127.27 162.00,131.77 C162.00,136.36 165.53,139.66 171.37,140.53 L 176.00 141.23 L 176.00 328.04 L 176.00 514.86 L 181.96 520.54 C188.92,527.18 193.90,531.00 195.59,531.00 C196.26,531.00 197.27,528.86 197.85,526.25 ZM 896.32 412.86 C903.84,411.28 911.17,407.55 916.92,402.38 C922.89,397.02 925.38,396.91 925.77,402.01 C926.30,408.88 926.85,409.88 930.76,411.01 C933.05,411.68 941.68,411.99 953.00,411.80 L 971.50 411.50 L 971.80 374.50 C972.39,301.40 969.59,285.32 953.48,269.37 C941.59,257.60 930.79,253.61 907.50,252.42 C877.72,250.90 837.88,258.21 831.04,266.46 C829.94,267.78 830.01,269.17 831.49,274.77 C833.92,283.96 839.34,295.58 841.83,296.91 C845.36,298.80 850.32,298.12 861.07,294.26 C871.41,290.56 871.64,290.52 887.00,290.51 C899.45,290.50 903.53,290.86 907.74,292.33 C916.13,295.25 919.94,301.13 921.56,313.66 L 922.23 318.82 L 915.87 319.38 C912.36,319.69 902.30,320.20 893.50,320.51 C864.47,321.54 848.81,324.00 838.81,329.10 C833.56,331.78 826.48,339.11 823.56,344.91 C817.16,357.59 816.26,375.19 821.52,384.87 C827.59,396.00 842.38,408.05 854.19,411.46 C866.35,414.98 883.54,415.55 896.32,412.86 ZM 1555.00 412.81 C1561.84,411.52 1571.69,407.13 1578.12,402.51 C1580.81,400.58 1583.45,399.00 1584.00,399.00 C1584.55,399.00 1585.01,400.91 1585.02,403.25 C1585.02,405.59 1585.41,408.10 1585.87,408.82 C1587.35,411.16 1594.09,411.95 1612.75,411.98 L 1631.00 412.00 L 1630.94 393.25 C1630.91,382.94 1630.53,355.34 1630.09,331.93 L 1629.29 289.36 L 1623.63 281.27 C1617.05,271.89 1608.37,263.49 1600.81,259.20 C1579.20,246.94 1536.01,247.33 1505.52,260.06 C1495.86,264.10 1492.00,266.62 1492.00,268.88 C1492.00,271.53 1495.52,282.67 1498.45,289.29 C1502.82,299.17 1506.55,299.99 1521.70,294.36 C1530.56,291.07 1532.70,290.68 1544.10,290.25 C1553.83,289.88 1557.97,290.14 1562.23,291.38 C1569.62,293.53 1576.91,298.62 1579.31,303.31 C1581.56,307.71 1582.70,315.45 1581.23,316.36 C1580.68,316.70 1569.04,317.89 1555.36,319.00 C1526.54,321.35 1514.60,323.54 1504.50,328.34 C1495.05,332.83 1490.04,337.47 1485.73,345.76 C1473.64,368.99 1481.44,397.00 1502.75,406.81 C1518.41,414.02 1537.19,416.18 1555.00,412.81 ZM 1785.97 411.99 C1806.98,406.03 1825.43,390.88 1834.17,372.38 C1841.00,357.95 1844.22,337.25 1842.19,320.86 C1840.55,307.57 1838.62,300.78 1833.56,290.50 C1823.73,270.53 1807.71,257.06 1787.00,251.38 C1782.27,250.08 1776.82,249.59 1767.00,249.58 C1751.00,249.56 1745.38,250.90 1730.65,258.22 C1725.22,260.92 1720.50,262.83 1720.15,262.48 C1719.79,262.12 1719.34,245.44 1719.16,225.39 L 1718.81 188.95 L 1701.16 189.51 C1691.44,189.82 1680.30,190.31 1676.39,190.61 L 1669.28 191.14 L 1668.54 300.67 C1668.06,372.40 1668.14,410.54 1668.79,411.19 C1669.40,411.80 1677.98,412.05 1691.24,411.84 C1715.94,411.45 1716.00,411.43 1716.00,403.88 C1716.00,401.19 1716.46,399.00 1717.02,399.00 C1717.58,399.00 1722.42,401.19 1727.77,403.86 C1749.96,414.94 1767.11,417.33 1785.97,411.99 ZM 1094.28 412.53 C1100.43,411.23 1107.65,408.04 1112.25,404.59 C1113.89,403.36 1113.76,402.63 1110.14,392.87 C1105.49,380.34 1102.40,374.09 1100.49,373.36 C1099.71,373.06 1096.08,373.81 1092.43,375.02 C1084.34,377.72 1079.45,377.28 1073.79,373.35 C1067.81,369.21 1064.97,364.30 1063.94,356.32 C1063.46,352.57 1063.05,336.57 1063.03,320.77 L 1063.00 292.04 L 1082.75 291.77 L 1102.50 291.50 L 1102.77 273.35 L 1103.04 255.20 L 1084.12 254.48 L 1065.20 253.75 L 1064.60 250.75 C1064.27,249.10 1064.00,244.50 1064.00,240.53 C1064.00,236.56 1063.71,229.19 1063.35,224.15 L 1062.70 215.00 L 1039.00 215.00 L 1015.30 215.00 L 1014.65 223.25 C1014.30,227.79 1014.01,234.47 1014.01,238.11 C1014.00,241.75 1013.72,246.76 1013.38,249.25 L 1012.76 253.78 L 1002.38 254.49 L 992.00 255.19 L 992.00 273.60 L 992.00 292.00 L 1003.40 292.00 L 1014.80 292.00 L 1015.28 329.75 C1015.78,369.32 1016.45,375.98 1020.93,386.28 C1026.44,398.90 1040.00,408.95 1056.32,412.50 C1064.66,414.31 1085.79,414.33 1094.28,412.53 ZM 1206.89 411.60 C1209.30,410.71 1213.57,408.33 1216.39,406.31 C1230.41,396.20 1231.00,396.04 1231.00,402.39 C1231.00,405.22 1231.68,407.62 1232.91,409.14 C1234.79,411.46 1235.13,411.50 1255.91,411.82 L 1277.00 412.14 L 1277.00 371.82 C1277.00,349.65 1276.54,325.65 1275.99,318.50 C1273.33,284.22 1266.40,270.15 1247.25,260.19 C1236.90,254.80 1228.10,252.99 1209.00,252.29 C1182.54,251.33 1162.69,254.31 1145.00,261.90 L 1136.50 265.55 L 1136.52 271.03 C1136.54,275.49 1137.41,278.28 1141.25,286.16 C1143.84,291.47 1147.09,296.71 1148.47,297.80 L 1150.98 299.77 L 1161.34 295.97 C1175.82,290.65 1181.76,289.67 1196.21,290.24 C1213.66,290.94 1219.64,293.52 1224.14,302.29 C1225.21,304.38 1226.35,308.95 1226.68,312.45 L 1227.27 318.81 L 1220.89 319.38 C1217.37,319.69 1207.07,320.22 1198.00,320.55 C1168.44,321.62 1151.55,324.73 1141.88,330.86 C1133.83,335.97 1127.92,345.91 1125.27,358.79 C1123.15,369.10 1124.54,379.47 1129.20,388.22 C1134.90,398.92 1149.80,409.25 1164.29,412.56 C1172.80,414.50 1200.66,413.87 1206.89,411.60 ZM 699.05 410.95 C732.43,408.35 758.01,395.70 776.63,372.59 C784.18,363.22 792.87,346.22 795.87,334.95 C806.76,294.11 790.65,245.65 758.50,222.51 C734.47,205.21 709.11,201.00 629.02,201.00 L 589.50 201.00 L 589.75 306.25 C589.88,364.14 589.99,411.61 590.00,411.75 C590.01,412.54 687.86,411.82 699.05,410.95 ZM 1471.00 392.01 L 1471.00 372.02 L 1419.75 371.76 L 1368.50 371.50 L 1367.94 291.50 C1367.50,228.80 1367.08,210.36 1366.02,206.25 L 1364.66 201.00 L 1340.83 201.00 L 1317.00 201.00 L 1317.00 305.83 C1317.00,363.49 1317.30,410.97 1317.67,411.33 C1318.03,411.70 1352.68,412.00 1394.67,412.00 L 1471.00 412.00 L 1471.00 392.01 ZM 330.64 382.01 L 347.78 382.00 L 348.37 378.75 C349.15,374.50 349.40,346.07 348.67,345.34 C348.36,345.03 346.14,345.72 343.74,346.89 C341.33,348.05 338.22,349.00 336.82,349.00 C333.12,349.00 329.77,352.07 326.22,358.74 C324.50,361.97 322.12,365.48 320.94,366.55 C317.83,369.37 311.61,368.83 298.17,364.58 C284.95,360.40 282.40,360.17 281.47,363.08 C280.25,366.93 280.54,378.74 281.90,380.37 C283.24,382.00 297.70,383.07 308.50,382.35 C311.25,382.17 321.21,382.01 330.64,382.01 ZM 318.12 348.51 C319.71,344.16 320.66,340.30 320.25,339.93 C317.66,337.63 278.79,321.00 275.99,321.00 C273.53,321.00 270.01,326.40 270.00,330.18 C270.00,332.03 270.94,333.54 273.04,335.02 C277.52,338.22 313.36,357.00 314.37,356.69 C314.85,356.54 316.53,352.86 318.12,348.51 ZM 298.43 207.00 C303.89,195.72 317.07,168.73 327.72,147.02 L 347.09 107.54 L 346.41 65.02 C346.04,41.63 345.33,21.71 344.83,20.75 C344.09,19.32 342.54,19.00 336.21,18.98 C331.97,18.97 320.85,18.30 311.50,17.49 C302.15,16.68 290.71,15.71 286.09,15.35 L 277.67 14.68 L 278.33 36.59 C278.70,48.64 279.03,100.80 279.07,152.50 L 279.14 246.50 L 283.82 237.00 C286.39,231.77 292.97,218.27 298.43,207.00 ZM 378.80 244.58 C382.40,242.68 390.39,234.29 392.39,230.30 C395.36,224.39 393.71,217.90 387.83,212.37 C383.17,207.99 380.84,207.00 375.32,207.02 C368.96,207.05 362.94,209.90 359.38,214.56 C356.89,217.83 356.45,219.39 356.15,226.08 C355.80,233.67 355.86,233.87 359.15,237.40 C361.04,239.43 365.12,242.07 368.50,243.46 C375.67,246.39 375.41,246.36 378.80,244.58 ZM 881.39 381.44 C868.83,376.80 862.63,363.51 868.66,354.16 C872.19,348.67 885.56,346.02 909.75,346.01 L 923.00 346.00 L 923.00 353.03 C923.00,361.57 920.27,367.71 913.95,373.43 C905.05,381.47 890.88,384.95 881.39,381.44 ZM 1545.06 381.88 C1538.35,380.75 1534.18,378.39 1531.30,374.12 C1526.87,367.55 1527.33,356.81 1532.23,352.29 C1536.86,348.02 1543.30,346.77 1563.38,346.24 L 1582.26 345.73 L 1581.81 354.62 C1581.30,364.59 1579.41,369.36 1573.84,374.70 C1567.25,381.01 1556.19,383.77 1545.06,381.88 ZM 1742.50 372.60 C1730.26,368.73 1721.98,359.72 1718.55,346.54 C1712.79,324.42 1724.05,299.02 1742.75,291.97 C1751.29,288.76 1763.15,289.45 1772.02,293.69 C1782.58,298.74 1787.37,304.56 1791.04,316.79 C1793.98,326.60 1793.51,342.48 1790.01,351.47 C1786.65,360.11 1776.53,370.23 1769.07,372.41 C1762.58,374.31 1748.22,374.41 1742.50,372.60 ZM 1188.88 381.68 C1179.75,378.27 1173.38,372.10 1172.33,365.65 C1171.53,360.71 1172.51,357.62 1176.25,353.37 C1181.54,347.34 1183.99,346.79 1207.89,346.22 L 1229.29 345.71 L 1228.79 352.61 C1228.21,360.80 1225.61,366.44 1219.84,372.03 C1211.42,380.21 1196.99,384.70 1188.88,381.68 ZM 641.42 372.08 C641.19,371.85 641.00,342.89 641.00,307.72 L 641.00 243.78 L 669.75 244.30 C685.56,244.59 700.75,245.31 703.50,245.91 C713.08,247.97 724.12,254.32 731.25,261.88 C741.78,273.04 746.55,285.02 747.65,303.00 C748.96,324.67 744.45,337.53 730.65,351.37 C716.91,365.15 706.31,369.05 677.50,370.95 C659.16,372.15 642.02,372.69 641.42,372.08 Z" fill="rgb(253,249,249)"/>
</g>
</svg>